<svg width="1423" height="1037" viewBox="0 0 1423 1037" fill="none" xmlns="http://www.w3.org/2000/svg">
<path d="M1368 72.0001C1412.19 -18.9999 1422.27 22 1422.27 0H562.001C636.065 249.6 244.778 181.333 0.000538617 120V246C0.000630923 313 0.00110087 329 0.000530988 348C-0.000136639 396.759 -7.51998e-05 402.329 0.000176777 425.173L0.000530988 464C166.646 443.2 196.979 523 191.368 577V707C193.051 774.2 266.415 765.667 302.886 753C361.801 753 354.086 853 342.864 903H0.000530988L0.000549316 1037H807.871C972.833 1037 980.408 947.667 963.575 903C955.159 821.4 1003.55 815.667 1028.8 823C1107.92 831 1120.68 779.667 1117.18 753V707H1165.57C1185.77 671.8 1157.15 655 1140.32 651C1120.12 649.4 1109.46 631.667 1106.65 623V591C1165.57 597.4 1170.48 556.333 1165.57 535H1314.96C1308.23 496.6 1331.79 480.333 1344.42 477C1384.82 485 1392.11 456.333 1390.71 441C1400.81 420.2 1415.96 413.667 1422.27 413V241C1388.6 241 1344.42 154 1368 72.0001Z" fill="#160040"/>
<path d="M1332 71.9994C1376.19 -19.0006 1422 21.9993 1422 -0.000732422H446C0.000701904 -0.000780869 0.000770403 -0.000732422 0.000783039 61L0.000778032 240.999V367.999C-0.000153045 435.999 0.00032623 403.999 0.000770403 467.999C166.646 447.199 160.978 522.999 155.367 576.999V706.999C157.051 774.199 212.53 796.666 249.001 783.999C307.916 783.999 315.223 869.999 304.001 919.999H0.000778032L0.000793291 1037H771.87C936.832 1037 944.407 947.666 927.574 902.999C919.158 821.399 967.552 815.666 992.802 822.999C1071.92 830.999 1084.68 779.666 1081.17 752.999V706.999H1129.57C1149.77 671.799 1121.15 654.999 1104.32 650.999C1084.12 649.399 1073.46 631.666 1070.65 622.999V590.999C1129.57 597.399 1134.48 556.332 1129.57 534.999H1278.96C1272.23 496.599 1295.79 480.333 1308.42 476.999C1348.82 484.999 1356.11 456.333 1354.71 440.999C1364.81 420.199 1379.96 413.666 1386.27 412.999V240.999C1352.6 240.999 1308.42 153.999 1332 71.9994Z" fill="#4C0070"/>
</svg>
