<svg width="492" height="150" viewBox="0 0 492 150" fill="none" xmlns="http://www.w3.org/2000/svg">
<g filter="url(#filter0_df_1166_69)">
<path d="M71.9554 46.8H82.4674V54H62.5474V20.16H71.9554V46.8ZM84.5895 40.512C84.5895 37.728 85.0855 35.296 86.0775 33.216C87.1015 31.136 88.4775 29.536 90.2055 28.416C91.9655 27.296 93.9175 26.736 96.0615 26.736C97.9175 26.736 99.5175 27.104 100.862 27.84C102.206 28.576 103.246 29.568 103.982 30.816V27.072H113.39V54H103.982V50.256C103.246 51.504 102.19 52.496 100.814 53.232C99.4695 53.968 97.8855 54.336 96.0615 54.336C93.9175 54.336 91.9655 53.776 90.2055 52.656C88.4775 51.536 87.1015 49.936 86.0775 47.856C85.0855 45.744 84.5895 43.296 84.5895 40.512ZM103.982 40.512C103.982 38.784 103.502 37.424 102.542 36.432C101.614 35.44 100.462 34.944 99.0855 34.944C97.6775 34.944 96.5095 35.44 95.5815 36.432C94.6535 37.392 94.1895 38.752 94.1895 40.512C94.1895 42.24 94.6535 43.616 95.5815 44.64C96.5095 45.632 97.6775 46.128 99.0855 46.128C100.462 46.128 101.614 45.632 102.542 44.64C103.502 43.648 103.982 42.272 103.982 40.512ZM135.599 54L128.159 42.96V54H118.751V18.48H128.159V37.632L135.599 27.072H146.879L136.271 40.608L147.071 54H135.599ZM154.581 24.576C152.917 24.576 151.573 24.128 150.549 23.232C149.557 22.304 149.061 21.152 149.061 19.776C149.061 18.368 149.557 17.2 150.549 16.272C151.573 15.344 152.917 14.88 154.581 14.88C156.213 14.88 157.525 15.344 158.517 16.272C159.541 17.2 160.053 18.368 160.053 19.776C160.053 21.152 159.541 22.304 158.517 23.232C157.525 24.128 156.213 24.576 154.581 24.576ZM159.237 27.072V54H149.829V27.072H159.237ZM185.378 33.456V41.28H163.634V33.456H185.378ZM201.752 18.48V54H192.344V18.48H201.752ZM205.574 40.512C205.574 37.728 206.07 35.296 207.062 33.216C208.086 31.136 209.462 29.536 211.19 28.416C212.95 27.296 214.902 26.736 217.046 26.736C218.902 26.736 220.502 27.104 221.846 27.84C223.19 28.576 224.23 29.568 224.966 30.816V27.072H234.374V54H224.966V50.256C224.23 51.504 223.174 52.496 221.798 53.232C220.454 53.968 218.87 54.336 217.046 54.336C214.902 54.336 212.95 53.776 211.19 52.656C209.462 51.536 208.086 49.936 207.062 47.856C206.07 45.744 205.574 43.296 205.574 40.512ZM224.966 40.512C224.966 38.784 224.486 37.424 223.526 36.432C222.598 35.44 221.446 34.944 220.07 34.944C218.662 34.944 217.494 35.44 216.566 36.432C215.638 37.392 215.174 38.752 215.174 40.512C215.174 42.24 215.638 43.616 216.566 44.64C217.494 45.632 218.662 46.128 220.07 46.128C221.446 46.128 222.598 45.632 223.526 44.64C224.486 43.648 224.966 42.272 224.966 40.512ZM256.583 54L249.143 42.96V54H239.735V18.48H249.143V37.632L256.583 27.072H267.863L257.255 40.608L268.055 54H256.583ZM275.565 24.576C273.901 24.576 272.557 24.128 271.533 23.232C270.541 22.304 270.045 21.152 270.045 19.776C270.045 18.368 270.541 17.2 271.533 16.272C272.557 15.344 273.901 14.88 275.565 14.88C277.197 14.88 278.509 15.344 279.501 16.272C280.525 17.2 281.037 18.368 281.037 19.776C281.037 21.152 280.525 22.304 279.501 23.232C278.509 24.128 277.197 24.576 275.565 24.576ZM280.221 27.072V54H270.813V27.072H280.221ZM320.254 20.16V27.648H311.23V54H301.822V27.648H292.894V20.16H320.254ZM328.487 24.576C326.823 24.576 325.479 24.128 324.455 23.232C323.463 22.304 322.967 21.152 322.967 19.776C322.967 18.368 323.463 17.2 324.455 16.272C325.479 15.344 326.823 14.88 328.487 14.88C330.119 14.88 331.431 15.344 332.423 16.272C333.447 17.2 333.959 18.368 333.959 19.776C333.959 21.152 333.447 22.304 332.423 23.232C331.431 24.128 330.119 24.576 328.487 24.576ZM333.143 27.072V54H323.735V27.072H333.143ZM336.965 40.512C336.965 37.728 337.461 35.296 338.453 33.216C339.477 31.136 340.869 29.536 342.629 28.416C344.389 27.296 346.341 26.736 348.484 26.736C350.213 26.736 351.749 27.104 353.093 27.84C354.469 28.544 355.541 29.52 356.309 30.768V18.48H365.765V54H356.309V50.256C355.573 51.504 354.533 52.496 353.189 53.232C351.845 53.968 350.261 54.336 348.437 54.336C346.293 54.336 344.341 53.776 342.581 52.656C340.853 51.536 339.477 49.936 338.453 47.856C337.461 45.744 336.965 43.296 336.965 40.512ZM356.357 40.512C356.357 38.784 355.877 37.424 354.917 36.432C353.989 35.44 352.837 34.944 351.461 34.944C350.053 34.944 348.885 35.44 347.957 36.432C347.029 37.392 346.565 38.752 346.565 40.512C346.565 42.24 347.029 43.616 347.957 44.64C348.885 45.632 350.053 46.128 351.461 46.128C352.837 46.128 353.989 45.632 354.917 44.64C355.877 43.648 356.357 42.272 356.357 40.512ZM369.59 40.512C369.59 37.728 370.086 35.296 371.078 33.216C372.102 31.136 373.478 29.536 375.206 28.416C376.966 27.296 378.918 26.736 381.062 26.736C382.918 26.736 384.518 27.104 385.862 27.84C387.206 28.576 388.246 29.568 388.982 30.816V27.072H398.39V54H388.982V50.256C388.246 51.504 387.19 52.496 385.814 53.232C384.47 53.968 382.886 54.336 381.062 54.336C378.918 54.336 376.966 53.776 375.206 52.656C373.478 51.536 372.102 49.936 371.078 47.856C370.086 45.744 369.59 43.296 369.59 40.512ZM388.982 40.512C388.982 38.784 388.502 37.424 387.542 36.432C386.614 35.44 385.462 34.944 384.086 34.944C382.678 34.944 381.51 35.44 380.582 36.432C379.654 37.392 379.19 38.752 379.19 40.512C379.19 42.24 379.654 43.616 380.582 44.64C381.51 45.632 382.678 46.128 384.086 46.128C385.462 46.128 386.614 45.632 387.542 44.64C388.502 43.648 388.982 42.272 388.982 40.512ZM420.599 54L413.159 42.96V54H403.751V18.48H413.159V37.632L420.599 27.072H431.879L421.271 40.608L432.071 54H420.599ZM71.9364 108.624C73.9204 109.072 75.4884 110.064 76.6404 111.6C77.8244 113.104 78.4164 114.832 78.4164 116.784C78.4164 119.664 77.4244 121.92 75.4404 123.552C73.4564 125.184 70.6724 126 67.0884 126H50.3364V92.16H66.5604C70.0164 92.16 72.7204 92.928 74.6724 94.464C76.6564 96 77.6484 98.16 77.6484 100.944C77.6484 102.928 77.1204 104.592 76.0644 105.936C75.0404 107.248 73.6644 108.144 71.9364 108.624ZM59.7444 105.6H64.4964C66.8644 105.6 68.0484 104.624 68.0484 102.672C68.0484 100.656 66.8644 99.648 64.4964 99.648H59.7444V105.6ZM65.2164 118.416C67.5844 118.416 68.7684 117.424 68.7684 115.44C68.7684 114.416 68.4484 113.632 67.8084 113.088C67.2004 112.544 66.3204 112.272 65.1684 112.272H59.7444V118.416H65.2164ZM95.0676 126.336C92.3796 126.336 89.9636 125.776 87.8196 124.656C85.7076 123.536 84.0436 121.936 82.8276 119.856C81.6116 117.776 81.0036 115.328 81.0036 112.512C81.0036 109.728 81.6116 107.296 82.8276 105.216C84.0756 103.136 85.7556 101.536 87.8676 100.416C90.0116 99.296 92.4276 98.736 95.1156 98.736C97.8036 98.736 100.204 99.296 102.316 100.416C104.46 101.536 106.14 103.136 107.356 105.216C108.604 107.296 109.228 109.728 109.228 112.512C109.228 115.296 108.604 117.744 107.356 119.856C106.14 121.936 104.46 123.536 102.316 124.656C100.172 125.776 97.7556 126.336 95.0676 126.336ZM95.0676 118.176C96.3796 118.176 97.4676 117.696 98.3316 116.736C99.2276 115.744 99.6756 114.336 99.6756 112.512C99.6756 110.688 99.2276 109.296 98.3316 108.336C97.4676 107.376 96.3956 106.896 95.1156 106.896C93.8356 106.896 92.7636 107.376 91.8996 108.336C91.0356 109.296 90.6036 110.688 90.6036 112.512C90.6036 114.368 91.0196 115.776 91.8516 116.736C92.6836 117.696 93.7556 118.176 95.0676 118.176ZM122.463 90.48V126H113.055V90.48H122.463ZM153.549 112.224C153.549 112.96 153.501 113.696 153.405 114.432H135.597C135.693 115.904 136.093 117.008 136.797 117.744C137.533 118.448 138.461 118.8 139.581 118.8C141.149 118.8 142.269 118.096 142.941 116.688H152.973C152.557 118.544 151.741 120.208 150.525 121.68C149.341 123.12 147.837 124.256 146.013 125.088C144.189 125.92 142.173 126.336 139.965 126.336C137.309 126.336 134.941 125.776 132.861 124.656C130.813 123.536 129.197 121.936 128.013 119.856C126.861 117.776 126.285 115.328 126.285 112.512C126.285 109.696 126.861 107.264 128.013 105.216C129.165 103.136 130.765 101.536 132.813 100.416C134.893 99.296 137.277 98.736 139.965 98.736C142.621 98.736 144.973 99.28 147.021 100.368C149.069 101.456 150.669 103.024 151.821 105.072C152.973 107.088 153.549 109.472 153.549 112.224ZM143.949 109.872C143.949 108.72 143.565 107.824 142.797 107.184C142.029 106.512 141.069 106.176 139.917 106.176C138.765 106.176 137.821 106.496 137.085 107.136C136.349 107.744 135.869 108.656 135.645 109.872H143.949ZM175.111 98.832C178.183 98.832 180.615 99.872 182.407 101.952C184.231 104 185.143 106.784 185.143 110.304V126H175.735V111.552C175.735 110.016 175.335 108.816 174.535 107.952C173.735 107.056 172.663 106.608 171.319 106.608C169.911 106.608 168.807 107.056 168.007 107.952C167.207 108.816 166.807 110.016 166.807 111.552V126H157.399V90.48H166.807V102.912C167.639 101.696 168.759 100.72 170.167 99.984C171.607 99.216 173.255 98.832 175.111 98.832ZM238.997 92.16V126H229.589V107.328L223.205 126H215.333L208.901 107.184V126H199.493V92.16H210.869L219.365 114.144L227.669 92.16H238.997ZM270.08 112.224C270.08 112.96 270.032 113.696 269.936 114.432H252.128C252.224 115.904 252.624 117.008 253.328 117.744C254.064 118.448 254.992 118.8 256.112 118.8C257.68 118.8 258.8 118.096 259.472 116.688H269.504C269.088 118.544 268.272 120.208 267.056 121.68C265.872 123.12 264.368 124.256 262.544 125.088C260.72 125.92 258.704 126.336 256.496 126.336C253.84 126.336 251.472 125.776 249.392 124.656C247.344 123.536 245.728 121.936 244.544 119.856C243.392 117.776 242.816 115.328 242.816 112.512C242.816 109.696 243.392 107.264 244.544 105.216C245.696 103.136 247.296 101.536 249.344 100.416C251.424 99.296 253.808 98.736 256.496 98.736C259.152 98.736 261.504 99.28 263.552 100.368C265.6 101.456 267.2 103.024 268.352 105.072C269.504 107.088 270.08 109.472 270.08 112.224ZM260.48 109.872C260.48 108.72 260.096 107.824 259.328 107.184C258.56 106.512 257.6 106.176 256.448 106.176C255.296 106.176 254.352 106.496 253.616 107.136C252.88 107.744 252.4 108.656 252.176 109.872H260.48ZM291.546 98.832C294.65 98.832 297.114 99.872 298.938 101.952C300.762 104 301.674 106.784 301.674 110.304V126H292.266V111.552C292.266 110.016 291.866 108.816 291.066 107.952C290.266 107.056 289.194 106.608 287.85 106.608C286.442 106.608 285.338 107.056 284.538 107.952C283.738 108.816 283.338 110.016 283.338 111.552V126H273.93V99.072H283.338V102.912C284.17 101.696 285.29 100.72 286.698 99.984C288.106 99.216 289.722 98.832 291.546 98.832ZM305.3 112.512C305.3 109.728 305.796 107.296 306.788 105.216C307.812 103.136 309.188 101.536 310.916 100.416C312.676 99.296 314.628 98.736 316.772 98.736C318.628 98.736 320.228 99.104 321.572 99.84C322.916 100.576 323.956 101.568 324.692 102.816V99.072H334.1V126H324.692V122.256C323.956 123.504 322.9 124.496 321.524 125.232C320.18 125.968 318.596 126.336 316.772 126.336C314.628 126.336 312.676 125.776 310.916 124.656C309.188 123.536 307.812 121.936 306.788 119.856C305.796 117.744 305.3 115.296 305.3 112.512ZM324.692 112.512C324.692 110.784 324.212 109.424 323.252 108.432C322.324 107.44 321.172 106.944 319.796 106.944C318.388 106.944 317.22 107.44 316.292 108.432C315.364 109.392 314.9 110.752 314.9 112.512C314.9 114.24 315.364 115.616 316.292 116.64C317.22 117.632 318.388 118.128 319.796 118.128C321.172 118.128 322.324 117.632 323.252 116.64C324.212 115.648 324.692 114.272 324.692 112.512ZM357.077 98.832C360.181 98.832 362.645 99.872 364.469 101.952C366.293 104 367.205 106.784 367.205 110.304V126H357.797V111.552C357.797 110.016 357.397 108.816 356.597 107.952C355.797 107.056 354.725 106.608 353.381 106.608C351.973 106.608 350.869 107.056 350.069 107.952C349.269 108.816 348.869 110.016 348.869 111.552V126H339.461V99.072H348.869V102.912C349.701 101.696 350.821 100.72 352.229 99.984C353.637 99.216 355.253 98.832 357.077 98.832ZM382.304 98.736C384.128 98.736 385.712 99.104 387.056 99.84C388.432 100.576 389.488 101.568 390.224 102.816V99.072H399.632V125.712C399.632 128.24 399.152 130.512 398.192 132.528C397.232 134.576 395.728 136.208 393.68 137.424C391.664 138.64 389.104 139.248 386 139.248C381.84 139.248 378.512 138.272 376.016 136.32C373.52 134.368 372.096 131.712 371.744 128.352H381.008C381.2 129.216 381.68 129.888 382.448 130.368C383.216 130.848 384.208 131.088 385.424 131.088C388.624 131.088 390.224 129.296 390.224 125.712V122.256C389.488 123.504 388.432 124.496 387.056 125.232C385.712 125.968 384.128 126.336 382.304 126.336C380.16 126.336 378.208 125.776 376.448 124.656C374.72 123.536 373.344 121.936 372.32 119.856C371.328 117.744 370.832 115.296 370.832 112.512C370.832 109.728 371.328 107.296 372.32 105.216C373.344 103.136 374.72 101.536 376.448 100.416C378.208 99.296 380.16 98.736 382.304 98.736ZM390.224 112.512C390.224 110.784 389.744 109.424 388.784 108.432C387.856 107.44 386.704 106.944 385.328 106.944C383.92 106.944 382.752 107.44 381.824 108.432C380.896 109.392 380.432 110.752 380.432 112.512C380.432 114.24 380.896 115.616 381.824 116.64C382.752 117.632 383.92 118.128 385.328 118.128C386.704 118.128 387.856 117.632 388.784 116.64C389.744 115.648 390.224 114.272 390.224 112.512ZM409.745 96.576C408.081 96.576 406.737 96.128 405.713 95.232C404.721 94.304 404.225 93.152 404.225 91.776C404.225 90.368 404.721 89.2 405.713 88.272C406.737 87.344 408.081 86.88 409.745 86.88C411.377 86.88 412.689 87.344 413.681 88.272C414.705 89.2 415.217 90.368 415.217 91.776C415.217 93.152 414.705 94.304 413.681 95.232C412.689 96.128 411.377 96.576 409.745 96.576ZM414.401 99.072V126H404.993V99.072H414.401ZM431.23 126.336C428.798 126.336 426.622 125.936 424.702 125.136C422.814 124.304 421.31 123.184 420.19 121.776C419.102 120.336 418.494 118.72 418.366 116.928H427.486C427.614 117.792 428.014 118.464 428.686 118.944C429.358 119.424 430.19 119.664 431.182 119.664C431.95 119.664 432.558 119.504 433.006 119.184C433.454 118.864 433.678 118.448 433.678 117.936C433.678 117.264 433.31 116.768 432.574 116.448C431.838 116.128 430.622 115.776 428.926 115.392C427.006 115.008 425.406 114.576 424.126 114.096C422.846 113.616 421.726 112.832 420.766 111.744C419.838 110.656 419.374 109.184 419.374 107.328C419.374 105.728 419.806 104.288 420.67 103.008C421.534 101.696 422.798 100.656 424.462 99.888C426.158 99.12 428.19 98.736 430.558 98.736C434.078 98.736 436.846 99.6 438.862 101.328C440.878 103.056 442.046 105.328 442.366 108.144H433.87C433.71 107.28 433.326 106.624 432.718 106.176C432.142 105.696 431.358 105.456 430.366 105.456C429.598 105.456 429.006 105.6 428.59 105.888C428.206 106.176 428.014 106.576 428.014 107.088C428.014 107.728 428.382 108.224 429.118 108.576C429.854 108.896 431.038 109.232 432.67 109.584C434.622 110 436.238 110.464 437.518 110.976C438.83 111.488 439.966 112.32 440.926 113.472C441.918 114.592 442.414 116.128 442.414 118.08C442.414 119.648 441.95 121.056 441.022 122.304C440.126 123.552 438.83 124.544 437.134 125.28C435.47 125.984 433.502 126.336 431.23 126.336Z" fill="#00B0BB"/>
</g>
<path d="M71.9554 45.8H82.4674V53H62.5474V19.16H71.9554V45.8ZM84.5895 39.512C84.5895 36.728 85.0855 34.296 86.0775 32.216C87.1015 30.136 88.4775 28.536 90.2055 27.416C91.9655 26.296 93.9175 25.736 96.0615 25.736C97.9175 25.736 99.5175 26.104 100.862 26.84C102.206 27.576 103.246 28.568 103.982 29.816V26.072H113.39V53H103.982V49.256C103.246 50.504 102.19 51.496 100.814 52.232C99.4695 52.968 97.8855 53.336 96.0615 53.336C93.9175 53.336 91.9655 52.776 90.2055 51.656C88.4775 50.536 87.1015 48.936 86.0775 46.856C85.0855 44.744 84.5895 42.296 84.5895 39.512ZM103.982 39.512C103.982 37.784 103.502 36.424 102.542 35.432C101.614 34.44 100.462 33.944 99.0855 33.944C97.6775 33.944 96.5095 34.44 95.5815 35.432C94.6535 36.392 94.1895 37.752 94.1895 39.512C94.1895 41.24 94.6535 42.616 95.5815 43.64C96.5095 44.632 97.6775 45.128 99.0855 45.128C100.462 45.128 101.614 44.632 102.542 43.64C103.502 42.648 103.982 41.272 103.982 39.512ZM135.599 53L128.159 41.96V53H118.751V17.48H128.159V36.632L135.599 26.072H146.879L136.271 39.608L147.071 53H135.599ZM154.581 23.576C152.917 23.576 151.573 23.128 150.549 22.232C149.557 21.304 149.061 20.152 149.061 18.776C149.061 17.368 149.557 16.2 150.549 15.272C151.573 14.344 152.917 13.88 154.581 13.88C156.213 13.88 157.525 14.344 158.517 15.272C159.541 16.2 160.053 17.368 160.053 18.776C160.053 20.152 159.541 21.304 158.517 22.232C157.525 23.128 156.213 23.576 154.581 23.576ZM159.237 26.072V53H149.829V26.072H159.237ZM185.378 32.456V40.28H163.634V32.456H185.378ZM201.752 17.48V53H192.344V17.48H201.752ZM205.574 39.512C205.574 36.728 206.07 34.296 207.062 32.216C208.086 30.136 209.462 28.536 211.19 27.416C212.95 26.296 214.902 25.736 217.046 25.736C218.902 25.736 220.502 26.104 221.846 26.84C223.19 27.576 224.23 28.568 224.966 29.816V26.072H234.374V53H224.966V49.256C224.23 50.504 223.174 51.496 221.798 52.232C220.454 52.968 218.87 53.336 217.046 53.336C214.902 53.336 212.95 52.776 211.19 51.656C209.462 50.536 208.086 48.936 207.062 46.856C206.07 44.744 205.574 42.296 205.574 39.512ZM224.966 39.512C224.966 37.784 224.486 36.424 223.526 35.432C222.598 34.44 221.446 33.944 220.07 33.944C218.662 33.944 217.494 34.44 216.566 35.432C215.638 36.392 215.174 37.752 215.174 39.512C215.174 41.24 215.638 42.616 216.566 43.64C217.494 44.632 218.662 45.128 220.07 45.128C221.446 45.128 222.598 44.632 223.526 43.64C224.486 42.648 224.966 41.272 224.966 39.512ZM256.583 53L249.143 41.96V53H239.735V17.48H249.143V36.632L256.583 26.072H267.863L257.255 39.608L268.055 53H256.583ZM275.565 23.576C273.901 23.576 272.557 23.128 271.533 22.232C270.541 21.304 270.045 20.152 270.045 18.776C270.045 17.368 270.541 16.2 271.533 15.272C272.557 14.344 273.901 13.88 275.565 13.88C277.197 13.88 278.509 14.344 279.501 15.272C280.525 16.2 281.037 17.368 281.037 18.776C281.037 20.152 280.525 21.304 279.501 22.232C278.509 23.128 277.197 23.576 275.565 23.576ZM280.221 26.072V53H270.813V26.072H280.221ZM320.254 19.16V26.648H311.23V53H301.822V26.648H292.894V19.16H320.254ZM328.487 23.576C326.823 23.576 325.479 23.128 324.455 22.232C323.463 21.304 322.967 20.152 322.967 18.776C322.967 17.368 323.463 16.2 324.455 15.272C325.479 14.344 326.823 13.88 328.487 13.88C330.119 13.88 331.431 14.344 332.423 15.272C333.447 16.2 333.959 17.368 333.959 18.776C333.959 20.152 333.447 21.304 332.423 22.232C331.431 23.128 330.119 23.576 328.487 23.576ZM333.143 26.072V53H323.735V26.072H333.143ZM336.965 39.512C336.965 36.728 337.461 34.296 338.453 32.216C339.477 30.136 340.869 28.536 342.629 27.416C344.389 26.296 346.341 25.736 348.484 25.736C350.213 25.736 351.749 26.104 353.093 26.84C354.469 27.544 355.541 28.52 356.309 29.768V17.48H365.765V53H356.309V49.256C355.573 50.504 354.533 51.496 353.189 52.232C351.845 52.968 350.261 53.336 348.437 53.336C346.293 53.336 344.341 52.776 342.581 51.656C340.853 50.536 339.477 48.936 338.453 46.856C337.461 44.744 336.965 42.296 336.965 39.512ZM356.357 39.512C356.357 37.784 355.877 36.424 354.917 35.432C353.989 34.44 352.837 33.944 351.461 33.944C350.053 33.944 348.885 34.44 347.957 35.432C347.029 36.392 346.565 37.752 346.565 39.512C346.565 41.24 347.029 42.616 347.957 43.64C348.885 44.632 350.053 45.128 351.461 45.128C352.837 45.128 353.989 44.632 354.917 43.64C355.877 42.648 356.357 41.272 356.357 39.512ZM369.59 39.512C369.59 36.728 370.086 34.296 371.078 32.216C372.102 30.136 373.478 28.536 375.206 27.416C376.966 26.296 378.918 25.736 381.062 25.736C382.918 25.736 384.518 26.104 385.862 26.84C387.206 27.576 388.246 28.568 388.982 29.816V26.072H398.39V53H388.982V49.256C388.246 50.504 387.19 51.496 385.814 52.232C384.47 52.968 382.886 53.336 381.062 53.336C378.918 53.336 376.966 52.776 375.206 51.656C373.478 50.536 372.102 48.936 371.078 46.856C370.086 44.744 369.59 42.296 369.59 39.512ZM388.982 39.512C388.982 37.784 388.502 36.424 387.542 35.432C386.614 34.44 385.462 33.944 384.086 33.944C382.678 33.944 381.51 34.44 380.582 35.432C379.654 36.392 379.19 37.752 379.19 39.512C379.19 41.24 379.654 42.616 380.582 43.64C381.51 44.632 382.678 45.128 384.086 45.128C385.462 45.128 386.614 44.632 387.542 43.64C388.502 42.648 388.982 41.272 388.982 39.512ZM420.599 53L413.159 41.96V53H403.751V17.48H413.159V36.632L420.599 26.072H431.879L421.271 39.608L432.071 53H420.599ZM71.9364 107.624C73.9204 108.072 75.4884 109.064 76.6404 110.6C77.8244 112.104 78.4164 113.832 78.4164 115.784C78.4164 118.664 77.4244 120.92 75.4404 122.552C73.4564 124.184 70.6724 125 67.0884 125H50.3364V91.16H66.5604C70.0164 91.16 72.7204 91.928 74.6724 93.464C76.6564 95 77.6484 97.16 77.6484 99.944C77.6484 101.928 77.1204 103.592 76.0644 104.936C75.0404 106.248 73.6644 107.144 71.9364 107.624ZM59.7444 104.6H64.4964C66.8644 104.6 68.0484 103.624 68.0484 101.672C68.0484 99.656 66.8644 98.648 64.4964 98.648H59.7444V104.6ZM65.2164 117.416C67.5844 117.416 68.7684 116.424 68.7684 114.44C68.7684 113.416 68.4484 112.632 67.8084 112.088C67.2004 111.544 66.3204 111.272 65.1684 111.272H59.7444V117.416H65.2164ZM95.0676 125.336C92.3796 125.336 89.9636 124.776 87.8196 123.656C85.7076 122.536 84.0436 120.936 82.8276 118.856C81.6116 116.776 81.0036 114.328 81.0036 111.512C81.0036 108.728 81.6116 106.296 82.8276 104.216C84.0756 102.136 85.7556 100.536 87.8676 99.416C90.0116 98.296 92.4276 97.736 95.1156 97.736C97.8036 97.736 100.204 98.296 102.316 99.416C104.46 100.536 106.14 102.136 107.356 104.216C108.604 106.296 109.228 108.728 109.228 111.512C109.228 114.296 108.604 116.744 107.356 118.856C106.14 120.936 104.46 122.536 102.316 123.656C100.172 124.776 97.7556 125.336 95.0676 125.336ZM95.0676 117.176C96.3796 117.176 97.4676 116.696 98.3316 115.736C99.2276 114.744 99.6756 113.336 99.6756 111.512C99.6756 109.688 99.2276 108.296 98.3316 107.336C97.4676 106.376 96.3956 105.896 95.1156 105.896C93.8356 105.896 92.7636 106.376 91.8996 107.336C91.0356 108.296 90.6036 109.688 90.6036 111.512C90.6036 113.368 91.0196 114.776 91.8516 115.736C92.6836 116.696 93.7556 117.176 95.0676 117.176ZM122.463 89.48V125H113.055V89.48H122.463ZM153.549 111.224C153.549 111.96 153.501 112.696 153.405 113.432H135.597C135.693 114.904 136.093 116.008 136.797 116.744C137.533 117.448 138.461 117.8 139.581 117.8C141.149 117.8 142.269 117.096 142.941 115.688H152.973C152.557 117.544 151.741 119.208 150.525 120.68C149.341 122.12 147.837 123.256 146.013 124.088C144.189 124.92 142.173 125.336 139.965 125.336C137.309 125.336 134.941 124.776 132.861 123.656C130.813 122.536 129.197 120.936 128.013 118.856C126.861 116.776 126.285 114.328 126.285 111.512C126.285 108.696 126.861 106.264 128.013 104.216C129.165 102.136 130.765 100.536 132.813 99.416C134.893 98.296 137.277 97.736 139.965 97.736C142.621 97.736 144.973 98.28 147.021 99.368C149.069 100.456 150.669 102.024 151.821 104.072C152.973 106.088 153.549 108.472 153.549 111.224ZM143.949 108.872C143.949 107.72 143.565 106.824 142.797 106.184C142.029 105.512 141.069 105.176 139.917 105.176C138.765 105.176 137.821 105.496 137.085 106.136C136.349 106.744 135.869 107.656 135.645 108.872H143.949ZM175.111 97.832C178.183 97.832 180.615 98.872 182.407 100.952C184.231 103 185.143 105.784 185.143 109.304V125H175.735V110.552C175.735 109.016 175.335 107.816 174.535 106.952C173.735 106.056 172.663 105.608 171.319 105.608C169.911 105.608 168.807 106.056 168.007 106.952C167.207 107.816 166.807 109.016 166.807 110.552V125H157.399V89.48H166.807V101.912C167.639 100.696 168.759 99.72 170.167 98.984C171.607 98.216 173.255 97.832 175.111 97.832ZM238.997 91.16V125H229.589V106.328L223.205 125H215.333L208.901 106.184V125H199.493V91.16H210.869L219.365 113.144L227.669 91.16H238.997ZM270.08 111.224C270.08 111.96 270.032 112.696 269.936 113.432H252.128C252.224 114.904 252.624 116.008 253.328 116.744C254.064 117.448 254.992 117.8 256.112 117.8C257.68 117.8 258.8 117.096 259.472 115.688H269.504C269.088 117.544 268.272 119.208 267.056 120.68C265.872 122.12 264.368 123.256 262.544 124.088C260.72 124.92 258.704 125.336 256.496 125.336C253.84 125.336 251.472 124.776 249.392 123.656C247.344 122.536 245.728 120.936 244.544 118.856C243.392 116.776 242.816 114.328 242.816 111.512C242.816 108.696 243.392 106.264 244.544 104.216C245.696 102.136 247.296 100.536 249.344 99.416C251.424 98.296 253.808 97.736 256.496 97.736C259.152 97.736 261.504 98.28 263.552 99.368C265.6 100.456 267.2 102.024 268.352 104.072C269.504 106.088 270.08 108.472 270.08 111.224ZM260.48 108.872C260.48 107.72 260.096 106.824 259.328 106.184C258.56 105.512 257.6 105.176 256.448 105.176C255.296 105.176 254.352 105.496 253.616 106.136C252.88 106.744 252.4 107.656 252.176 108.872H260.48ZM291.546 97.832C294.65 97.832 297.114 98.872 298.938 100.952C300.762 103 301.674 105.784 301.674 109.304V125H292.266V110.552C292.266 109.016 291.866 107.816 291.066 106.952C290.266 106.056 289.194 105.608 287.85 105.608C286.442 105.608 285.338 106.056 284.538 106.952C283.738 107.816 283.338 109.016 283.338 110.552V125H273.93V98.072H283.338V101.912C284.17 100.696 285.29 99.72 286.698 98.984C288.106 98.216 289.722 97.832 291.546 97.832ZM305.3 111.512C305.3 108.728 305.796 106.296 306.788 104.216C307.812 102.136 309.188 100.536 310.916 99.416C312.676 98.296 314.628 97.736 316.772 97.736C318.628 97.736 320.228 98.104 321.572 98.84C322.916 99.576 323.956 100.568 324.692 101.816V98.072H334.1V125H324.692V121.256C323.956 122.504 322.9 123.496 321.524 124.232C320.18 124.968 318.596 125.336 316.772 125.336C314.628 125.336 312.676 124.776 310.916 123.656C309.188 122.536 307.812 120.936 306.788 118.856C305.796 116.744 305.3 114.296 305.3 111.512ZM324.692 111.512C324.692 109.784 324.212 108.424 323.252 107.432C322.324 106.44 321.172 105.944 319.796 105.944C318.388 105.944 317.22 106.44 316.292 107.432C315.364 108.392 314.9 109.752 314.9 111.512C314.9 113.24 315.364 114.616 316.292 115.64C317.22 116.632 318.388 117.128 319.796 117.128C321.172 117.128 322.324 116.632 323.252 115.64C324.212 114.648 324.692 113.272 324.692 111.512ZM357.077 97.832C360.181 97.832 362.645 98.872 364.469 100.952C366.293 103 367.205 105.784 367.205 109.304V125H357.797V110.552C357.797 109.016 357.397 107.816 356.597 106.952C355.797 106.056 354.725 105.608 353.381 105.608C351.973 105.608 350.869 106.056 350.069 106.952C349.269 107.816 348.869 109.016 348.869 110.552V125H339.461V98.072H348.869V101.912C349.701 100.696 350.821 99.72 352.229 98.984C353.637 98.216 355.253 97.832 357.077 97.832ZM382.304 97.736C384.128 97.736 385.712 98.104 387.056 98.84C388.432 99.576 389.488 100.568 390.224 101.816V98.072H399.632V124.712C399.632 127.24 399.152 129.512 398.192 131.528C397.232 133.576 395.728 135.208 393.68 136.424C391.664 137.64 389.104 138.248 386 138.248C381.84 138.248 378.512 137.272 376.016 135.32C373.52 133.368 372.096 130.712 371.744 127.352H381.008C381.2 128.216 381.68 128.888 382.448 129.368C383.216 129.848 384.208 130.088 385.424 130.088C388.624 130.088 390.224 128.296 390.224 124.712V121.256C389.488 122.504 388.432 123.496 387.056 124.232C385.712 124.968 384.128 125.336 382.304 125.336C380.16 125.336 378.208 124.776 376.448 123.656C374.72 122.536 373.344 120.936 372.32 118.856C371.328 116.744 370.832 114.296 370.832 111.512C370.832 108.728 371.328 106.296 372.32 104.216C373.344 102.136 374.72 100.536 376.448 99.416C378.208 98.296 380.16 97.736 382.304 97.736ZM390.224 111.512C390.224 109.784 389.744 108.424 388.784 107.432C387.856 106.44 386.704 105.944 385.328 105.944C383.92 105.944 382.752 106.44 381.824 107.432C380.896 108.392 380.432 109.752 380.432 111.512C380.432 113.24 380.896 114.616 381.824 115.64C382.752 116.632 383.92 117.128 385.328 117.128C386.704 117.128 387.856 116.632 388.784 115.64C389.744 114.648 390.224 113.272 390.224 111.512ZM409.745 95.576C408.081 95.576 406.737 95.128 405.713 94.232C404.721 93.304 404.225 92.152 404.225 90.776C404.225 89.368 404.721 88.2 405.713 87.272C406.737 86.344 408.081 85.88 409.745 85.88C411.377 85.88 412.689 86.344 413.681 87.272C414.705 88.2 415.217 89.368 415.217 90.776C415.217 92.152 414.705 93.304 413.681 94.232C412.689 95.128 411.377 95.576 409.745 95.576ZM414.401 98.072V125H404.993V98.072H414.401ZM431.23 125.336C428.798 125.336 426.622 124.936 424.702 124.136C422.814 123.304 421.31 122.184 420.19 120.776C419.102 119.336 418.494 117.72 418.366 115.928H427.486C427.614 116.792 428.014 117.464 428.686 117.944C429.358 118.424 430.19 118.664 431.182 118.664C431.95 118.664 432.558 118.504 433.006 118.184C433.454 117.864 433.678 117.448 433.678 116.936C433.678 116.264 433.31 115.768 432.574 115.448C431.838 115.128 430.622 114.776 428.926 114.392C427.006 114.008 425.406 113.576 424.126 113.096C422.846 112.616 421.726 111.832 420.766 110.744C419.838 109.656 419.374 108.184 419.374 106.328C419.374 104.728 419.806 103.288 420.67 102.008C421.534 100.696 422.798 99.656 424.462 98.888C426.158 98.12 428.19 97.736 430.558 97.736C434.078 97.736 436.846 98.6 438.862 100.328C440.878 102.056 442.046 104.328 442.366 107.144H433.87C433.71 106.28 433.326 105.624 432.718 105.176C432.142 104.696 431.358 104.456 430.366 104.456C429.598 104.456 429.006 104.6 428.59 104.888C428.206 105.176 428.014 105.576 428.014 106.088C428.014 106.728 428.382 107.224 429.118 107.576C429.854 107.896 431.038 108.232 432.67 108.584C434.622 109 436.238 109.464 437.518 109.976C438.83 110.488 439.966 111.32 440.926 112.472C441.918 113.592 442.414 115.128 442.414 117.08C442.414 118.648 441.95 120.056 441.022 121.304C440.126 122.552 438.83 123.544 437.134 124.28C435.47 124.984 433.502 125.336 431.23 125.336Z" fill="white"/>
<defs>
<filter id="filter0_df_1166_69" x="40.3369" y="4.88" width="412.077" height="144.368" filterUnits="userSpaceOnUse" color-interpolation-filters="sRGB">
<feFlood flood-opacity="0" result="BackgroundImageFix"/>
<feColorMatrix in="SourceAlpha" type="matrix" values="0 0 0 0 0 0 0 0 0 0 0 0 0 0 0 0 0 0 127 0" result="hardAlpha"/>
<feOffset dy="4"/>
<feGaussianBlur stdDeviation="2"/>
<feComposite in2="hardAlpha" operator="out"/>
<feColorMatrix type="matrix" values="0 0 0 0 0 0 0 0 0 0.191489 0 0 0 0 1 0 0 0 1 0"/>
<feBlend mode="normal" in2="BackgroundImageFix" result="effect1_dropShadow_1166_69"/>
<feBlend mode="normal" in="SourceGraphic" in2="effect1_dropShadow_1166_69" result="shape"/>
<feGaussianBlur stdDeviation="5" result="effect2_foregroundBlur_1166_69"/>
</filter>
</defs>
</svg>
