<svg width="477" height="145" viewBox="0 0 477 145" fill="none" xmlns="http://www.w3.org/2000/svg">
<g filter="url(#filter0_df_1167_3)">
<path d="M25.2904 20.016V54H14.6344V20.016H25.2904ZM40.7591 30.624C41.4311 29.376 42.3911 28.4 43.6391 27.696C44.9191 26.96 46.4391 26.592 48.1991 26.592C50.3111 26.592 52.2151 27.152 53.9111 28.272C55.6071 29.36 56.9351 30.96 57.8951 33.072C58.8871 35.152 59.3831 37.616 59.3831 40.464C59.3831 43.312 58.8871 45.792 57.8951 47.904C56.9351 49.984 55.6071 51.584 53.9111 52.704C52.2151 53.792 50.3111 54.336 48.1991 54.336C46.4391 54.336 44.9191 53.984 43.6391 53.28C42.3911 52.544 41.4311 51.552 40.7591 50.304V54H30.1031V18.48H40.7591V30.624ZM48.5831 40.464C48.5831 39.024 48.2151 37.904 47.4791 37.104C46.7431 36.304 45.7991 35.904 44.6471 35.904C43.4951 35.904 42.5511 36.304 41.8151 37.104C41.0791 37.904 40.7111 39.024 40.7111 40.464C40.7111 41.904 41.0791 43.024 41.8151 43.824C42.5511 44.624 43.4951 45.024 44.6471 45.024C45.7991 45.024 46.7431 44.624 47.4791 43.824C48.2151 43.024 48.5831 41.904 48.5831 40.464ZM91.3841 26.928V54H80.7281V49.872C79.8961 51.152 78.7761 52.192 77.3681 52.992C75.9921 53.792 74.3441 54.192 72.4241 54.192C69.3201 54.192 66.8881 53.152 65.1281 51.072C63.4001 48.992 62.5361 46.176 62.5361 42.624V26.928H73.1441V41.28C73.1441 42.56 73.4801 43.584 74.1521 44.352C74.8561 45.088 75.7841 45.456 76.9361 45.456C78.1201 45.456 79.0481 45.088 79.7201 44.352C80.3921 43.584 80.7281 42.56 80.7281 41.28V26.928H91.3841ZM115.009 31.92C116.097 30.352 117.425 29.104 118.993 28.176C120.561 27.216 122.193 26.736 123.889 26.736V38.112H120.865C118.849 38.112 117.361 38.464 116.401 39.168C115.473 39.872 115.009 41.12 115.009 42.912V54H104.353V26.928H115.009V31.92ZM155.415 26.928V54H144.759V49.872C143.927 51.152 142.807 52.192 141.399 52.992C140.023 53.792 138.375 54.192 136.455 54.192C133.351 54.192 130.919 53.152 129.159 51.072C127.431 48.992 126.567 46.176 126.567 42.624V26.928H137.175V41.28C137.175 42.56 137.511 43.584 138.183 44.352C138.887 45.088 139.815 45.456 140.967 45.456C142.151 45.456 143.079 45.088 143.751 44.352C144.423 43.584 144.759 42.56 144.759 41.28V26.928H155.415ZM196.372 26.736C199.828 26.736 202.5 27.776 204.388 29.856C206.308 31.936 207.268 34.752 207.268 38.304V54H196.66V39.648C196.66 38.496 196.308 37.6 195.604 36.96C194.932 36.288 194.02 35.952 192.868 35.952C191.684 35.952 190.756 36.288 190.084 36.96C189.412 37.6 189.076 38.496 189.076 39.648V54H178.468V39.648C178.468 38.496 178.116 37.6 177.412 36.96C176.74 36.288 175.828 35.952 174.676 35.952C173.492 35.952 172.564 36.288 171.892 36.96C171.22 37.6 170.884 38.496 170.884 39.648V54H160.228V26.928H170.884V30.576C171.652 29.424 172.692 28.496 174.004 27.792C175.348 27.088 176.916 26.736 178.708 26.736C180.66 26.736 182.388 27.168 183.892 28.032C185.396 28.864 186.596 30.048 187.492 31.584C188.484 30.176 189.748 29.024 191.284 28.128C192.82 27.2 194.516 26.736 196.372 26.736ZM210.444 40.464C210.444 37.616 210.924 35.152 211.884 33.072C212.876 30.96 214.22 29.36 215.916 28.272C217.612 27.152 219.516 26.592 221.628 26.592C223.388 26.592 224.908 26.96 226.188 27.696C227.468 28.4 228.444 29.376 229.116 30.624V26.928H239.724V54H229.116V50.304C228.444 51.552 227.468 52.544 226.188 53.28C224.908 53.984 223.388 54.336 221.628 54.336C219.516 54.336 217.612 53.792 215.916 52.704C214.22 51.584 212.876 49.984 211.884 47.904C210.924 45.792 210.444 43.312 210.444 40.464ZM229.116 40.464C229.116 39.024 228.748 37.904 228.012 37.104C227.276 36.304 226.332 35.904 225.18 35.904C224.028 35.904 223.084 36.304 222.348 37.104C221.612 37.904 221.244 39.024 221.244 40.464C221.244 41.904 221.612 43.024 222.348 43.824C223.084 44.624 224.028 45.024 225.18 45.024C226.332 45.024 227.276 44.624 228.012 43.824C228.748 43.024 229.116 41.904 229.116 40.464ZM263.469 26.736C266.573 26.736 268.989 27.776 270.717 29.856C272.477 31.936 273.357 34.752 273.357 38.304V54H262.749V39.648C262.749 38.368 262.397 37.36 261.693 36.624C261.021 35.856 260.109 35.472 258.957 35.472C257.773 35.472 256.845 35.856 256.173 36.624C255.501 37.36 255.165 38.368 255.165 39.648V54H244.509V18.48H255.165V31.056C255.997 29.776 257.101 28.736 258.477 27.936C259.885 27.136 261.549 26.736 263.469 26.736ZM302.982 44.928V54H298.95C291.526 54 287.814 50.304 287.814 42.912V35.808H284.454V26.928H287.814V20.4H298.47V26.928H302.886V35.808H298.47V43.104C298.47 43.744 298.614 44.208 298.902 44.496C299.222 44.784 299.734 44.928 300.438 44.928H302.982ZM305.601 40.464C305.601 37.616 306.081 35.152 307.041 33.072C308.033 30.96 309.377 29.36 311.073 28.272C312.769 27.152 314.673 26.592 316.785 26.592C318.545 26.592 320.065 26.96 321.345 27.696C322.625 28.4 323.601 29.376 324.273 30.624V26.928H334.881V54H324.273V50.304C323.601 51.552 322.625 52.544 321.345 53.28C320.065 53.984 318.545 54.336 316.785 54.336C314.673 54.336 312.769 53.792 311.073 52.704C309.377 51.584 308.033 49.984 307.041 47.904C306.081 45.792 305.601 43.312 305.601 40.464ZM324.273 40.464C324.273 39.024 323.905 37.904 323.169 37.104C322.433 36.304 321.489 35.904 320.337 35.904C319.185 35.904 318.241 36.304 317.505 37.104C316.769 37.904 316.401 39.024 316.401 40.464C316.401 41.904 316.769 43.024 317.505 43.824C318.241 44.624 319.185 45.024 320.337 45.024C321.489 45.024 322.433 44.624 323.169 43.824C323.905 43.024 324.273 41.904 324.273 40.464ZM358.626 26.736C361.73 26.736 364.146 27.776 365.874 29.856C367.634 31.936 368.514 34.752 368.514 38.304V54H357.906V39.648C357.906 38.368 357.554 37.36 356.85 36.624C356.178 35.856 355.266 35.472 354.114 35.472C352.93 35.472 352.002 35.856 351.33 36.624C350.658 37.36 350.322 38.368 350.322 39.648V54H339.666V26.928H350.322V31.056C351.154 29.776 352.258 28.736 353.634 27.936C355.042 27.136 356.706 26.736 358.626 26.736ZM382.878 26.592C384.638 26.592 386.158 26.96 387.438 27.696C388.718 28.4 389.694 29.376 390.366 30.624V26.928H400.974V53.52C400.974 56.048 400.51 58.352 399.582 60.432C398.654 62.512 397.15 64.176 395.07 65.424C393.022 66.672 390.382 67.296 387.15 67.296C382.798 67.296 379.342 66.272 376.782 64.224C374.254 62.208 372.814 59.456 372.462 55.968H382.926C383.214 57.376 384.366 58.08 386.382 58.08C387.63 58.08 388.606 57.76 389.31 57.12C390.014 56.48 390.366 55.28 390.366 53.52V50.304C389.694 51.552 388.718 52.544 387.438 53.28C386.158 53.984 384.638 54.336 382.878 54.336C380.766 54.336 378.862 53.792 377.166 52.704C375.47 51.584 374.126 49.984 373.134 47.904C372.174 45.792 371.694 43.312 371.694 40.464C371.694 37.616 372.174 35.152 373.134 33.072C374.126 30.96 375.47 29.36 377.166 28.272C378.862 27.152 380.766 26.592 382.878 26.592ZM390.366 40.464C390.366 39.024 389.998 37.904 389.262 37.104C388.526 36.304 387.582 35.904 386.43 35.904C385.278 35.904 384.334 36.304 383.598 37.104C382.862 37.904 382.494 39.024 382.494 40.464C382.494 41.904 382.862 43.024 383.598 43.824C384.334 44.624 385.278 45.024 386.43 45.024C387.582 45.024 388.526 44.624 389.262 43.824C389.998 43.024 390.366 41.904 390.366 40.464ZM415.503 26.592C417.263 26.592 418.783 26.96 420.063 27.696C421.343 28.4 422.319 29.376 422.991 30.624V26.928H433.599V53.52C433.599 56.048 433.135 58.352 432.207 60.432C431.279 62.512 429.775 64.176 427.695 65.424C425.647 66.672 423.007 67.296 419.775 67.296C415.423 67.296 411.967 66.272 409.407 64.224C406.879 62.208 405.439 59.456 405.087 55.968H415.551C415.839 57.376 416.991 58.08 419.007 58.08C420.255 58.08 421.231 57.76 421.935 57.12C422.639 56.48 422.991 55.28 422.991 53.52V50.304C422.319 51.552 421.343 52.544 420.063 53.28C418.783 53.984 417.263 54.336 415.503 54.336C413.391 54.336 411.487 53.792 409.791 52.704C408.095 51.584 406.751 49.984 405.759 47.904C404.799 45.792 404.319 43.312 404.319 40.464C404.319 37.616 404.799 35.152 405.759 33.072C406.751 30.96 408.095 29.36 409.791 28.272C411.487 27.152 413.391 26.592 415.503 26.592ZM422.991 40.464C422.991 39.024 422.623 37.904 421.887 37.104C421.151 36.304 420.207 35.904 419.055 35.904C417.903 35.904 416.959 36.304 416.223 37.104C415.487 37.904 415.119 39.024 415.119 40.464C415.119 41.904 415.487 43.024 416.223 43.824C416.959 44.624 417.903 45.024 419.055 45.024C420.207 45.024 421.151 44.624 421.887 43.824C422.623 43.024 422.991 41.904 422.991 40.464ZM436.944 40.464C436.944 37.616 437.424 35.152 438.384 33.072C439.376 30.96 440.72 29.36 442.416 28.272C444.112 27.152 446.016 26.592 448.128 26.592C449.888 26.592 451.408 26.96 452.688 27.696C453.968 28.4 454.944 29.376 455.616 30.624V26.928H466.224V54H455.616V50.304C454.944 51.552 453.968 52.544 452.688 53.28C451.408 53.984 449.888 54.336 448.128 54.336C446.016 54.336 444.112 53.792 442.416 52.704C440.72 51.584 439.376 49.984 438.384 47.904C437.424 45.792 436.944 43.312 436.944 40.464ZM455.616 40.464C455.616 39.024 455.248 37.904 454.512 37.104C453.776 36.304 452.832 35.904 451.68 35.904C450.528 35.904 449.584 36.304 448.848 37.104C448.112 37.904 447.744 39.024 447.744 40.464C447.744 41.904 448.112 43.024 448.848 43.824C449.584 44.624 450.528 45.024 451.68 45.024C452.832 45.024 453.776 44.624 454.512 43.824C455.248 43.024 455.616 41.904 455.616 40.464ZM132.011 98.928L125.579 126H113.579L110.315 110.736L106.859 126H94.8594L88.4754 98.928H99.0354L101.291 115.392L104.795 98.928H116.171L119.867 115.584L122.171 98.928H132.011ZM132.843 112.464C132.843 109.616 133.323 107.152 134.283 105.072C135.275 102.96 136.619 101.36 138.315 100.272C140.011 99.152 141.915 98.592 144.027 98.592C145.787 98.592 147.307 98.96 148.587 99.696C149.867 100.4 150.843 101.376 151.515 102.624V98.928H162.123V126H151.515V122.304C150.843 123.552 149.867 124.544 148.587 125.28C147.307 125.984 145.787 126.336 144.027 126.336C141.915 126.336 140.011 125.792 138.315 124.704C136.619 123.584 135.275 121.984 134.283 119.904C133.323 117.792 132.843 115.312 132.843 112.464ZM151.515 112.464C151.515 111.024 151.147 109.904 150.411 109.104C149.675 108.304 148.731 107.904 147.579 107.904C146.427 107.904 145.483 108.304 144.747 109.104C144.011 109.904 143.643 111.024 143.643 112.464C143.643 113.904 144.011 115.024 144.747 115.824C145.483 116.624 146.427 117.024 147.579 117.024C148.731 117.024 149.675 116.624 150.411 115.824C151.147 115.024 151.515 113.904 151.515 112.464ZM185.868 98.736C188.972 98.736 191.388 99.776 193.116 101.856C194.876 103.936 195.756 106.752 195.756 110.304V126H185.148V111.648C185.148 110.368 184.796 109.36 184.092 108.624C183.42 107.856 182.508 107.472 181.356 107.472C180.172 107.472 179.244 107.856 178.572 108.624C177.9 109.36 177.564 110.368 177.564 111.648V126H166.908V98.928H177.564V103.056C178.396 101.776 179.5 100.736 180.876 99.936C182.284 99.136 183.948 98.736 185.868 98.736ZM205.753 96.768C203.897 96.768 202.409 96.272 201.289 95.28C200.169 94.288 199.609 93.04 199.609 91.536C199.609 90 200.169 88.736 201.289 87.744C202.409 86.72 203.897 86.208 205.753 86.208C207.577 86.208 209.049 86.72 210.169 87.744C211.289 88.736 211.849 90 211.849 91.536C211.849 93.04 211.289 94.288 210.169 95.28C209.049 96.272 207.577 96.768 205.753 96.768ZM211.033 98.928V126H200.377V98.928H211.033ZM232.693 116.928V126H228.661C221.237 126 217.525 122.304 217.525 114.912V107.808H214.165V98.928H217.525V92.4H228.181V98.928H232.597V107.808H228.181V115.104C228.181 115.744 228.325 116.208 228.613 116.496C228.933 116.784 229.445 116.928 230.149 116.928H232.693ZM235.312 112.464C235.312 109.616 235.792 107.152 236.752 105.072C237.744 102.96 239.088 101.36 240.784 100.272C242.48 99.152 244.384 98.592 246.496 98.592C248.256 98.592 249.776 98.96 251.056 99.696C252.336 100.4 253.312 101.376 253.984 102.624V98.928H264.592V126H253.984V122.304C253.312 123.552 252.336 124.544 251.056 125.28C249.776 125.984 248.256 126.336 246.496 126.336C244.384 126.336 242.48 125.792 240.784 124.704C239.088 123.584 237.744 121.984 236.752 119.904C235.792 117.792 235.312 115.312 235.312 112.464ZM253.984 112.464C253.984 111.024 253.616 109.904 252.88 109.104C252.144 108.304 251.2 107.904 250.048 107.904C248.896 107.904 247.952 108.304 247.216 109.104C246.48 109.904 246.112 111.024 246.112 112.464C246.112 113.904 246.48 115.024 247.216 115.824C247.952 116.624 248.896 117.024 250.048 117.024C251.2 117.024 252.144 116.624 252.88 115.824C253.616 115.024 253.984 113.904 253.984 112.464ZM294.861 126L288.189 115.2V126H277.533V90.48H288.189V109.056L294.957 98.928H307.341L297.213 112.56L307.581 126H294.861ZM308.53 112.464C308.53 109.616 309.01 107.152 309.97 105.072C310.962 102.96 312.306 101.36 314.002 100.272C315.698 99.152 317.602 98.592 319.714 98.592C321.474 98.592 322.994 98.96 324.274 99.696C325.554 100.4 326.53 101.376 327.202 102.624V98.928H337.81V126H327.202V122.304C326.53 123.552 325.554 124.544 324.274 125.28C322.994 125.984 321.474 126.336 319.714 126.336C317.602 126.336 315.698 125.792 314.002 124.704C312.306 123.584 310.962 121.984 309.97 119.904C309.01 117.792 308.53 115.312 308.53 112.464ZM327.202 112.464C327.202 111.024 326.834 109.904 326.098 109.104C325.362 108.304 324.418 107.904 323.266 107.904C322.114 107.904 321.17 108.304 320.434 109.104C319.698 109.904 319.33 111.024 319.33 112.464C319.33 113.904 319.698 115.024 320.434 115.824C321.17 116.624 322.114 117.024 323.266 117.024C324.418 117.024 325.362 116.624 326.098 115.824C326.834 115.024 327.202 113.904 327.202 112.464ZM353.251 103.92C354.339 102.352 355.667 101.104 357.235 100.176C358.803 99.216 360.435 98.736 362.131 98.736V110.112H359.107C357.091 110.112 355.603 110.464 354.643 111.168C353.715 111.872 353.251 113.12 353.251 114.912V126H342.595V98.928H353.251V103.92ZM370.378 96.768C368.522 96.768 367.034 96.272 365.914 95.28C364.794 94.288 364.234 93.04 364.234 91.536C364.234 90 364.794 88.736 365.914 87.744C367.034 86.72 368.522 86.208 370.378 86.208C372.202 86.208 373.674 86.72 374.794 87.744C375.914 88.736 376.474 90 376.474 91.536C376.474 93.04 375.914 94.288 374.794 95.28C373.674 96.272 372.202 96.768 370.378 96.768ZM375.658 98.928V126H365.002V98.928H375.658ZM391.126 103.92C392.214 102.352 393.542 101.104 395.11 100.176C396.678 99.216 398.31 98.736 400.006 98.736V110.112H396.982C394.966 110.112 393.478 110.464 392.518 111.168C391.59 111.872 391.126 113.12 391.126 114.912V126H380.47V98.928H391.126V103.92Z" fill="#FF006B"/>
</g>
<g filter="url(#filter1_f_1167_3)">
<path d="M46.8193 74.016L35.3953 108H21.6193L10.1953 74.016H21.5233L28.5313 97.392L35.4913 74.016H46.8193ZM62.5007 108.336C58.4367 108.336 55.0767 107.392 52.4207 105.504C49.7967 103.584 48.3727 100.784 48.1487 97.104H59.4767C59.6367 99.056 60.5007 100.032 62.0687 100.032C62.6447 100.032 63.1247 99.904 63.5087 99.648C63.9247 99.36 64.1327 98.928 64.1327 98.352C64.1327 97.552 63.7007 96.912 62.8367 96.432C61.9727 95.92 60.6287 95.344 58.8047 94.704C56.6287 93.936 54.8207 93.184 53.3807 92.448C51.9727 91.712 50.7567 90.64 49.7327 89.232C48.7087 87.824 48.2127 86.016 48.2447 83.808C48.2447 81.6 48.8047 79.728 49.9247 78.192C51.0767 76.624 52.6287 75.44 54.5807 74.64C56.5647 73.84 58.7887 73.44 61.2527 73.44C65.4127 73.44 68.7087 74.4 71.1407 76.32C73.6047 78.24 74.9007 80.944 75.0287 84.432H63.5567C63.5247 83.472 63.2847 82.784 62.8367 82.368C62.3887 81.952 61.8447 81.744 61.2047 81.744C60.7567 81.744 60.3887 81.904 60.1007 82.224C59.8127 82.512 59.6687 82.928 59.6687 83.472C59.6687 84.24 60.0847 84.88 60.9167 85.392C61.7807 85.872 63.1407 86.464 64.9967 87.168C67.1407 87.968 68.9007 88.736 70.2767 89.472C71.6847 90.208 72.9007 91.232 73.9247 92.544C74.9487 93.856 75.4607 95.504 75.4607 97.488C75.4607 99.568 74.9487 101.44 73.9247 103.104C72.9007 104.736 71.4127 106.016 69.4607 106.944C67.5087 107.872 65.1887 108.336 62.5007 108.336Z" fill="#00F0FF"/>
</g>
<path d="M25.2904 19.016V53H14.6344V19.016H25.2904ZM40.7591 29.624C41.4311 28.376 42.3911 27.4 43.6391 26.696C44.9191 25.96 46.4391 25.592 48.1991 25.592C50.3111 25.592 52.2151 26.152 53.9111 27.272C55.6071 28.36 56.9351 29.96 57.8951 32.072C58.8871 34.152 59.3831 36.616 59.3831 39.464C59.3831 42.312 58.8871 44.792 57.8951 46.904C56.9351 48.984 55.6071 50.584 53.9111 51.704C52.2151 52.792 50.3111 53.336 48.1991 53.336C46.4391 53.336 44.9191 52.984 43.6391 52.28C42.3911 51.544 41.4311 50.552 40.7591 49.304V53H30.1031V17.48H40.7591V29.624ZM48.5831 39.464C48.5831 38.024 48.2151 36.904 47.4791 36.104C46.7431 35.304 45.7991 34.904 44.6471 34.904C43.4951 34.904 42.5511 35.304 41.8151 36.104C41.0791 36.904 40.7111 38.024 40.7111 39.464C40.7111 40.904 41.0791 42.024 41.8151 42.824C42.5511 43.624 43.4951 44.024 44.6471 44.024C45.7991 44.024 46.7431 43.624 47.4791 42.824C48.2151 42.024 48.5831 40.904 48.5831 39.464ZM91.3841 25.928V53H80.7281V48.872C79.8961 50.152 78.7761 51.192 77.3681 51.992C75.9921 52.792 74.3441 53.192 72.4241 53.192C69.3201 53.192 66.8881 52.152 65.1281 50.072C63.4001 47.992 62.5361 45.176 62.5361 41.624V25.928H73.1441V40.28C73.1441 41.56 73.4801 42.584 74.1521 43.352C74.8561 44.088 75.7841 44.456 76.9361 44.456C78.1201 44.456 79.0481 44.088 79.7201 43.352C80.3921 42.584 80.7281 41.56 80.7281 40.28V25.928H91.3841ZM115.009 30.92C116.097 29.352 117.425 28.104 118.993 27.176C120.561 26.216 122.193 25.736 123.889 25.736V37.112H120.865C118.849 37.112 117.361 37.464 116.401 38.168C115.473 38.872 115.009 40.12 115.009 41.912V53H104.353V25.928H115.009V30.92ZM155.415 25.928V53H144.759V48.872C143.927 50.152 142.807 51.192 141.399 51.992C140.023 52.792 138.375 53.192 136.455 53.192C133.351 53.192 130.919 52.152 129.159 50.072C127.431 47.992 126.567 45.176 126.567 41.624V25.928H137.175V40.28C137.175 41.56 137.511 42.584 138.183 43.352C138.887 44.088 139.815 44.456 140.967 44.456C142.151 44.456 143.079 44.088 143.751 43.352C144.423 42.584 144.759 41.56 144.759 40.28V25.928H155.415ZM196.372 25.736C199.828 25.736 202.5 26.776 204.388 28.856C206.308 30.936 207.268 33.752 207.268 37.304V53H196.66V38.648C196.66 37.496 196.308 36.6 195.604 35.96C194.932 35.288 194.02 34.952 192.868 34.952C191.684 34.952 190.756 35.288 190.084 35.96C189.412 36.6 189.076 37.496 189.076 38.648V53H178.468V38.648C178.468 37.496 178.116 36.6 177.412 35.96C176.74 35.288 175.828 34.952 174.676 34.952C173.492 34.952 172.564 35.288 171.892 35.96C171.22 36.6 170.884 37.496 170.884 38.648V53H160.228V25.928H170.884V29.576C171.652 28.424 172.692 27.496 174.004 26.792C175.348 26.088 176.916 25.736 178.708 25.736C180.66 25.736 182.388 26.168 183.892 27.032C185.396 27.864 186.596 29.048 187.492 30.584C188.484 29.176 189.748 28.024 191.284 27.128C192.82 26.2 194.516 25.736 196.372 25.736ZM210.444 39.464C210.444 36.616 210.924 34.152 211.884 32.072C212.876 29.96 214.22 28.36 215.916 27.272C217.612 26.152 219.516 25.592 221.628 25.592C223.388 25.592 224.908 25.96 226.188 26.696C227.468 27.4 228.444 28.376 229.116 29.624V25.928H239.724V53H229.116V49.304C228.444 50.552 227.468 51.544 226.188 52.28C224.908 52.984 223.388 53.336 221.628 53.336C219.516 53.336 217.612 52.792 215.916 51.704C214.22 50.584 212.876 48.984 211.884 46.904C210.924 44.792 210.444 42.312 210.444 39.464ZM229.116 39.464C229.116 38.024 228.748 36.904 228.012 36.104C227.276 35.304 226.332 34.904 225.18 34.904C224.028 34.904 223.084 35.304 222.348 36.104C221.612 36.904 221.244 38.024 221.244 39.464C221.244 40.904 221.612 42.024 222.348 42.824C223.084 43.624 224.028 44.024 225.18 44.024C226.332 44.024 227.276 43.624 228.012 42.824C228.748 42.024 229.116 40.904 229.116 39.464ZM263.469 25.736C266.573 25.736 268.989 26.776 270.717 28.856C272.477 30.936 273.357 33.752 273.357 37.304V53H262.749V38.648C262.749 37.368 262.397 36.36 261.693 35.624C261.021 34.856 260.109 34.472 258.957 34.472C257.773 34.472 256.845 34.856 256.173 35.624C255.501 36.36 255.165 37.368 255.165 38.648V53H244.509V17.48H255.165V30.056C255.997 28.776 257.101 27.736 258.477 26.936C259.885 26.136 261.549 25.736 263.469 25.736ZM302.982 43.928V53H298.95C291.526 53 287.814 49.304 287.814 41.912V34.808H284.454V25.928H287.814V19.4H298.47V25.928H302.886V34.808H298.47V42.104C298.47 42.744 298.614 43.208 298.902 43.496C299.222 43.784 299.734 43.928 300.438 43.928H302.982ZM305.601 39.464C305.601 36.616 306.081 34.152 307.041 32.072C308.033 29.96 309.377 28.36 311.073 27.272C312.769 26.152 314.673 25.592 316.785 25.592C318.545 25.592 320.065 25.96 321.345 26.696C322.625 27.4 323.601 28.376 324.273 29.624V25.928H334.881V53H324.273V49.304C323.601 50.552 322.625 51.544 321.345 52.28C320.065 52.984 318.545 53.336 316.785 53.336C314.673 53.336 312.769 52.792 311.073 51.704C309.377 50.584 308.033 48.984 307.041 46.904C306.081 44.792 305.601 42.312 305.601 39.464ZM324.273 39.464C324.273 38.024 323.905 36.904 323.169 36.104C322.433 35.304 321.489 34.904 320.337 34.904C319.185 34.904 318.241 35.304 317.505 36.104C316.769 36.904 316.401 38.024 316.401 39.464C316.401 40.904 316.769 42.024 317.505 42.824C318.241 43.624 319.185 44.024 320.337 44.024C321.489 44.024 322.433 43.624 323.169 42.824C323.905 42.024 324.273 40.904 324.273 39.464ZM358.626 25.736C361.73 25.736 364.146 26.776 365.874 28.856C367.634 30.936 368.514 33.752 368.514 37.304V53H357.906V38.648C357.906 37.368 357.554 36.36 356.85 35.624C356.178 34.856 355.266 34.472 354.114 34.472C352.93 34.472 352.002 34.856 351.33 35.624C350.658 36.36 350.322 37.368 350.322 38.648V53H339.666V25.928H350.322V30.056C351.154 28.776 352.258 27.736 353.634 26.936C355.042 26.136 356.706 25.736 358.626 25.736ZM382.878 25.592C384.638 25.592 386.158 25.96 387.438 26.696C388.718 27.4 389.694 28.376 390.366 29.624V25.928H400.974V52.52C400.974 55.048 400.51 57.352 399.582 59.432C398.654 61.512 397.15 63.176 395.07 64.424C393.022 65.672 390.382 66.296 387.15 66.296C382.798 66.296 379.342 65.272 376.782 63.224C374.254 61.208 372.814 58.456 372.462 54.968H382.926C383.214 56.376 384.366 57.08 386.382 57.08C387.63 57.08 388.606 56.76 389.31 56.12C390.014 55.48 390.366 54.28 390.366 52.52V49.304C389.694 50.552 388.718 51.544 387.438 52.28C386.158 52.984 384.638 53.336 382.878 53.336C380.766 53.336 378.862 52.792 377.166 51.704C375.47 50.584 374.126 48.984 373.134 46.904C372.174 44.792 371.694 42.312 371.694 39.464C371.694 36.616 372.174 34.152 373.134 32.072C374.126 29.96 375.47 28.36 377.166 27.272C378.862 26.152 380.766 25.592 382.878 25.592ZM390.366 39.464C390.366 38.024 389.998 36.904 389.262 36.104C388.526 35.304 387.582 34.904 386.43 34.904C385.278 34.904 384.334 35.304 383.598 36.104C382.862 36.904 382.494 38.024 382.494 39.464C382.494 40.904 382.862 42.024 383.598 42.824C384.334 43.624 385.278 44.024 386.43 44.024C387.582 44.024 388.526 43.624 389.262 42.824C389.998 42.024 390.366 40.904 390.366 39.464ZM415.503 25.592C417.263 25.592 418.783 25.96 420.063 26.696C421.343 27.4 422.319 28.376 422.991 29.624V25.928H433.599V52.52C433.599 55.048 433.135 57.352 432.207 59.432C431.279 61.512 429.775 63.176 427.695 64.424C425.647 65.672 423.007 66.296 419.775 66.296C415.423 66.296 411.967 65.272 409.407 63.224C406.879 61.208 405.439 58.456 405.087 54.968H415.551C415.839 56.376 416.991 57.08 419.007 57.08C420.255 57.08 421.231 56.76 421.935 56.12C422.639 55.48 422.991 54.28 422.991 52.52V49.304C422.319 50.552 421.343 51.544 420.063 52.28C418.783 52.984 417.263 53.336 415.503 53.336C413.391 53.336 411.487 52.792 409.791 51.704C408.095 50.584 406.751 48.984 405.759 46.904C404.799 44.792 404.319 42.312 404.319 39.464C404.319 36.616 404.799 34.152 405.759 32.072C406.751 29.96 408.095 28.36 409.791 27.272C411.487 26.152 413.391 25.592 415.503 25.592ZM422.991 39.464C422.991 38.024 422.623 36.904 421.887 36.104C421.151 35.304 420.207 34.904 419.055 34.904C417.903 34.904 416.959 35.304 416.223 36.104C415.487 36.904 415.119 38.024 415.119 39.464C415.119 40.904 415.487 42.024 416.223 42.824C416.959 43.624 417.903 44.024 419.055 44.024C420.207 44.024 421.151 43.624 421.887 42.824C422.623 42.024 422.991 40.904 422.991 39.464ZM436.944 39.464C436.944 36.616 437.424 34.152 438.384 32.072C439.376 29.96 440.72 28.36 442.416 27.272C444.112 26.152 446.016 25.592 448.128 25.592C449.888 25.592 451.408 25.96 452.688 26.696C453.968 27.4 454.944 28.376 455.616 29.624V25.928H466.224V53H455.616V49.304C454.944 50.552 453.968 51.544 452.688 52.28C451.408 52.984 449.888 53.336 448.128 53.336C446.016 53.336 444.112 52.792 442.416 51.704C440.72 50.584 439.376 48.984 438.384 46.904C437.424 44.792 436.944 42.312 436.944 39.464ZM455.616 39.464C455.616 38.024 455.248 36.904 454.512 36.104C453.776 35.304 452.832 34.904 451.68 34.904C450.528 34.904 449.584 35.304 448.848 36.104C448.112 36.904 447.744 38.024 447.744 39.464C447.744 40.904 448.112 42.024 448.848 42.824C449.584 43.624 450.528 44.024 451.68 44.024C452.832 44.024 453.776 43.624 454.512 42.824C455.248 42.024 455.616 40.904 455.616 39.464ZM132.011 97.928L125.579 125H113.579L110.315 109.736L106.859 125H94.8594L88.4754 97.928H99.0354L101.291 114.392L104.795 97.928H116.171L119.867 114.584L122.171 97.928H132.011ZM132.843 111.464C132.843 108.616 133.323 106.152 134.283 104.072C135.275 101.96 136.619 100.36 138.315 99.272C140.011 98.152 141.915 97.592 144.027 97.592C145.787 97.592 147.307 97.96 148.587 98.696C149.867 99.4 150.843 100.376 151.515 101.624V97.928H162.123V125H151.515V121.304C150.843 122.552 149.867 123.544 148.587 124.28C147.307 124.984 145.787 125.336 144.027 125.336C141.915 125.336 140.011 124.792 138.315 123.704C136.619 122.584 135.275 120.984 134.283 118.904C133.323 116.792 132.843 114.312 132.843 111.464ZM151.515 111.464C151.515 110.024 151.147 108.904 150.411 108.104C149.675 107.304 148.731 106.904 147.579 106.904C146.427 106.904 145.483 107.304 144.747 108.104C144.011 108.904 143.643 110.024 143.643 111.464C143.643 112.904 144.011 114.024 144.747 114.824C145.483 115.624 146.427 116.024 147.579 116.024C148.731 116.024 149.675 115.624 150.411 114.824C151.147 114.024 151.515 112.904 151.515 111.464ZM185.868 97.736C188.972 97.736 191.388 98.776 193.116 100.856C194.876 102.936 195.756 105.752 195.756 109.304V125H185.148V110.648C185.148 109.368 184.796 108.36 184.092 107.624C183.42 106.856 182.508 106.472 181.356 106.472C180.172 106.472 179.244 106.856 178.572 107.624C177.9 108.36 177.564 109.368 177.564 110.648V125H166.908V97.928H177.564V102.056C178.396 100.776 179.5 99.736 180.876 98.936C182.284 98.136 183.948 97.736 185.868 97.736ZM205.753 95.768C203.897 95.768 202.409 95.272 201.289 94.28C200.169 93.288 199.609 92.04 199.609 90.536C199.609 89 200.169 87.736 201.289 86.744C202.409 85.72 203.897 85.208 205.753 85.208C207.577 85.208 209.049 85.72 210.169 86.744C211.289 87.736 211.849 89 211.849 90.536C211.849 92.04 211.289 93.288 210.169 94.28C209.049 95.272 207.577 95.768 205.753 95.768ZM211.033 97.928V125H200.377V97.928H211.033ZM232.693 115.928V125H228.661C221.237 125 217.525 121.304 217.525 113.912V106.808H214.165V97.928H217.525V91.4H228.181V97.928H232.597V106.808H228.181V114.104C228.181 114.744 228.325 115.208 228.613 115.496C228.933 115.784 229.445 115.928 230.149 115.928H232.693ZM235.312 111.464C235.312 108.616 235.792 106.152 236.752 104.072C237.744 101.96 239.088 100.36 240.784 99.272C242.48 98.152 244.384 97.592 246.496 97.592C248.256 97.592 249.776 97.96 251.056 98.696C252.336 99.4 253.312 100.376 253.984 101.624V97.928H264.592V125H253.984V121.304C253.312 122.552 252.336 123.544 251.056 124.28C249.776 124.984 248.256 125.336 246.496 125.336C244.384 125.336 242.48 124.792 240.784 123.704C239.088 122.584 237.744 120.984 236.752 118.904C235.792 116.792 235.312 114.312 235.312 111.464ZM253.984 111.464C253.984 110.024 253.616 108.904 252.88 108.104C252.144 107.304 251.2 106.904 250.048 106.904C248.896 106.904 247.952 107.304 247.216 108.104C246.48 108.904 246.112 110.024 246.112 111.464C246.112 112.904 246.48 114.024 247.216 114.824C247.952 115.624 248.896 116.024 250.048 116.024C251.2 116.024 252.144 115.624 252.88 114.824C253.616 114.024 253.984 112.904 253.984 111.464ZM294.861 125L288.189 114.2V125H277.533V89.48H288.189V108.056L294.957 97.928H307.341L297.213 111.56L307.581 125H294.861ZM308.53 111.464C308.53 108.616 309.01 106.152 309.97 104.072C310.962 101.96 312.306 100.36 314.002 99.272C315.698 98.152 317.602 97.592 319.714 97.592C321.474 97.592 322.994 97.96 324.274 98.696C325.554 99.4 326.53 100.376 327.202 101.624V97.928H337.81V125H327.202V121.304C326.53 122.552 325.554 123.544 324.274 124.28C322.994 124.984 321.474 125.336 319.714 125.336C317.602 125.336 315.698 124.792 314.002 123.704C312.306 122.584 310.962 120.984 309.97 118.904C309.01 116.792 308.53 114.312 308.53 111.464ZM327.202 111.464C327.202 110.024 326.834 108.904 326.098 108.104C325.362 107.304 324.418 106.904 323.266 106.904C322.114 106.904 321.17 107.304 320.434 108.104C319.698 108.904 319.33 110.024 319.33 111.464C319.33 112.904 319.698 114.024 320.434 114.824C321.17 115.624 322.114 116.024 323.266 116.024C324.418 116.024 325.362 115.624 326.098 114.824C326.834 114.024 327.202 112.904 327.202 111.464ZM353.251 102.92C354.339 101.352 355.667 100.104 357.235 99.176C358.803 98.216 360.435 97.736 362.131 97.736V109.112H359.107C357.091 109.112 355.603 109.464 354.643 110.168C353.715 110.872 353.251 112.12 353.251 113.912V125H342.595V97.928H353.251V102.92ZM370.378 95.768C368.522 95.768 367.034 95.272 365.914 94.28C364.794 93.288 364.234 92.04 364.234 90.536C364.234 89 364.794 87.736 365.914 86.744C367.034 85.72 368.522 85.208 370.378 85.208C372.202 85.208 373.674 85.72 374.794 86.744C375.914 87.736 376.474 89 376.474 90.536C376.474 92.04 375.914 93.288 374.794 94.28C373.674 95.272 372.202 95.768 370.378 95.768ZM375.658 97.928V125H365.002V97.928H375.658ZM391.126 102.92C392.214 101.352 393.542 100.104 395.11 99.176C396.678 98.216 398.31 97.736 400.006 97.736V109.112H396.982C394.966 109.112 393.478 109.464 392.518 110.168C391.59 110.872 391.126 112.12 391.126 113.912V125H380.47V97.928H391.126V102.92Z" fill="white"/>
<path d="M46.8193 73.016L35.3953 107H21.6193L10.1953 73.016H21.5233L28.5313 96.392L35.4913 73.016H46.8193ZM62.5007 107.336C58.4367 107.336 55.0767 106.392 52.4207 104.504C49.7967 102.584 48.3727 99.784 48.1487 96.104H59.4767C59.6367 98.056 60.5007 99.032 62.0687 99.032C62.6447 99.032 63.1247 98.904 63.5087 98.648C63.9247 98.36 64.1327 97.928 64.1327 97.352C64.1327 96.552 63.7007 95.912 62.8367 95.432C61.9727 94.92 60.6287 94.344 58.8047 93.704C56.6287 92.936 54.8207 92.184 53.3807 91.448C51.9727 90.712 50.7567 89.64 49.7327 88.232C48.7087 86.824 48.2127 85.016 48.2447 82.808C48.2447 80.6 48.8047 78.728 49.9247 77.192C51.0767 75.624 52.6287 74.44 54.5807 73.64C56.5647 72.84 58.7887 72.44 61.2527 72.44C65.4127 72.44 68.7087 73.4 71.1407 75.32C73.6047 77.24 74.9007 79.944 75.0287 83.432H63.5567C63.5247 82.472 63.2847 81.784 62.8367 81.368C62.3887 80.952 61.8447 80.744 61.2047 80.744C60.7567 80.744 60.3887 80.904 60.1007 81.224C59.8127 81.512 59.6687 81.928 59.6687 82.472C59.6687 83.24 60.0847 83.88 60.9167 84.392C61.7807 84.872 63.1407 85.464 64.9967 86.168C67.1407 86.968 68.9007 87.736 70.2767 88.472C71.6847 89.208 72.9007 90.232 73.9247 91.544C74.9487 92.856 75.4607 94.504 75.4607 96.488C75.4607 98.568 74.9487 100.44 73.9247 102.104C72.9007 103.736 71.4127 105.016 69.4607 105.944C67.5087 106.872 65.1887 107.336 62.5007 107.336Z" fill="white"/>
<defs>
<filter id="filter0_df_1167_3" x="4.63428" y="8.47998" width="471.59" height="127.856" filterUnits="userSpaceOnUse" color-interpolation-filters="sRGB">
<feFlood flood-opacity="0" result="BackgroundImageFix"/>
<feColorMatrix in="SourceAlpha" type="matrix" values="0 0 0 0 0 0 0 0 0 0 0 0 0 0 0 0 0 0 127 0" result="hardAlpha"/>
<feOffset dy="4"/>
<feGaussianBlur stdDeviation="2"/>
<feComposite in2="hardAlpha" operator="out"/>
<feColorMatrix type="matrix" values="0 0 0 0 0 0 0 0 0 0 0 0 0 0 0 0 0 0 0.25 0"/>
<feBlend mode="normal" in2="BackgroundImageFix" result="effect1_dropShadow_1167_3"/>
<feBlend mode="normal" in="SourceGraphic" in2="effect1_dropShadow_1167_3" result="shape"/>
<feGaussianBlur stdDeviation="5" result="effect2_foregroundBlur_1167_3"/>
</filter>
<filter id="filter1_f_1167_3" x="0.195312" y="63.4399" width="85.2656" height="54.896" filterUnits="userSpaceOnUse" color-interpolation-filters="sRGB">
<feFlood flood-opacity="0" result="BackgroundImageFix"/>
<feBlend mode="normal" in="SourceGraphic" in2="BackgroundImageFix" result="shape"/>
<feGaussianBlur stdDeviation="5" result="effect1_foregroundBlur_1167_3"/>
</filter>
</defs>
</svg>
