<svg width="480" height="246" viewBox="0 0 480 246" fill="none" xmlns="http://www.w3.org/2000/svg">
<g filter="url(#filter0_df_1166_3)">
<path d="M83.1434 44L74.9034 31.72V44H66.0234V15.68H74.9034V27.6L83.0234 15.68H93.0634L83.3034 29.24L93.7034 44H83.1434ZM118.059 32.52C118.059 33.1333 118.019 33.72 117.939 34.28H103.659C103.792 36.2267 104.605 37.2 106.099 37.2C107.059 37.2 107.752 36.76 108.179 35.88H117.579C117.259 37.48 116.579 38.92 115.539 40.2C114.525 41.4533 113.232 42.4533 111.659 43.2C110.112 43.92 108.405 44.28 106.539 44.28C104.299 44.28 102.299 43.8133 100.539 42.88C98.8054 41.9467 97.4454 40.6133 96.4588 38.88C95.4988 37.12 95.0188 35.0667 95.0188 32.72C95.0188 30.3733 95.4988 28.3333 96.4588 26.6C97.4454 24.84 98.8054 23.4933 100.539 22.56C102.299 21.6267 104.299 21.16 106.539 21.16C108.779 21.16 110.765 21.6267 112.499 22.56C114.259 23.4667 115.619 24.7733 116.579 26.48C117.565 28.1867 118.059 30.2 118.059 32.52ZM109.059 30.4C109.059 29.6533 108.819 29.0933 108.339 28.72C107.859 28.32 107.259 28.12 106.539 28.12C104.965 28.12 104.045 28.88 103.779 30.4H109.059ZM129.747 24.52C130.307 23.48 131.107 22.6667 132.147 22.08C133.214 21.4667 134.481 21.16 135.947 21.16C137.707 21.16 139.294 21.6267 140.707 22.56C142.121 23.4667 143.227 24.8 144.027 26.56C144.854 28.2933 145.267 30.3467 145.267 32.72C145.267 35.0933 144.854 37.16 144.027 38.92C143.227 40.6533 142.121 41.9867 140.707 42.92C139.294 43.8267 137.707 44.28 135.947 44.28C134.481 44.28 133.214 43.9867 132.147 43.4C131.107 42.7867 130.307 41.96 129.747 40.92V54.8H120.867V21.44H129.747V24.52ZM136.267 32.72C136.267 31.52 135.961 30.5867 135.347 29.92C134.734 29.2533 133.947 28.92 132.987 28.92C132.027 28.92 131.241 29.2533 130.627 29.92C130.014 30.5867 129.707 31.52 129.707 32.72C129.707 33.92 130.014 34.8533 130.627 35.52C131.241 36.1867 132.027 36.52 132.987 36.52C133.947 36.52 134.734 36.1867 135.347 35.52C135.961 34.8533 136.267 33.92 136.267 32.72ZM146.855 32.72C146.855 30.3467 147.255 28.2933 148.055 26.56C148.881 24.8 150.001 23.4667 151.415 22.56C152.828 21.6267 154.415 21.16 156.175 21.16C157.641 21.16 158.908 21.4667 159.975 22.08C161.041 22.6667 161.855 23.48 162.415 24.52V21.44H171.255V44H162.415V40.92C161.855 41.96 161.041 42.7867 159.975 43.4C158.908 43.9867 157.641 44.28 156.175 44.28C154.415 44.28 152.828 43.8267 151.415 42.92C150.001 41.9867 148.881 40.6533 148.055 38.92C147.255 37.16 146.855 35.0933 146.855 32.72ZM162.415 32.72C162.415 31.52 162.108 30.5867 161.495 29.92C160.881 29.2533 160.095 28.92 159.135 28.92C158.175 28.92 157.388 29.2533 156.775 29.92C156.161 30.5867 155.855 31.52 155.855 32.72C155.855 33.92 156.161 34.8533 156.775 35.52C157.388 36.1867 158.175 36.52 159.135 36.52C160.095 36.52 160.881 36.1867 161.495 35.52C162.108 34.8533 162.415 33.92 162.415 32.72ZM184.122 14.4V44H175.242V14.4H184.122ZM186.933 32.72C186.933 30.3467 187.333 28.2933 188.133 26.56C188.959 24.8 190.079 23.4667 191.493 22.56C192.906 21.6267 194.493 21.16 196.253 21.16C197.719 21.16 198.986 21.4667 200.053 22.08C201.119 22.6667 201.933 23.48 202.493 24.52V21.44H211.333V44H202.493V40.92C201.933 41.96 201.119 42.7867 200.053 43.4C198.986 43.9867 197.719 44.28 196.253 44.28C194.493 44.28 192.906 43.8267 191.493 42.92C190.079 41.9867 188.959 40.6533 188.133 38.92C187.333 37.16 186.933 35.0933 186.933 32.72ZM202.493 32.72C202.493 31.52 202.186 30.5867 201.573 29.92C200.959 29.2533 200.173 28.92 199.213 28.92C198.253 28.92 197.466 29.2533 196.853 29.92C196.239 30.5867 195.933 31.52 195.933 32.72C195.933 33.92 196.239 34.8533 196.853 35.52C197.466 36.1867 198.253 36.52 199.213 36.52C200.173 36.52 200.959 36.1867 201.573 35.52C202.186 34.8533 202.493 33.92 202.493 32.72ZM239.237 44L230.997 31.72V44H222.117V15.68H230.997V27.6L239.117 15.68H249.157L239.397 29.24L249.797 44H239.237ZM274.153 32.52C274.153 33.1333 274.113 33.72 274.033 34.28H259.753C259.886 36.2267 260.699 37.2 262.193 37.2C263.153 37.2 263.846 36.76 264.273 35.88H273.673C273.353 37.48 272.673 38.92 271.633 40.2C270.619 41.4533 269.326 42.4533 267.753 43.2C266.206 43.92 264.499 44.28 262.633 44.28C260.393 44.28 258.393 43.8133 256.633 42.88C254.899 41.9467 253.539 40.6133 252.553 38.88C251.593 37.12 251.113 35.0667 251.113 32.72C251.113 30.3733 251.593 28.3333 252.553 26.6C253.539 24.84 254.899 23.4933 256.633 22.56C258.393 21.6267 260.393 21.16 262.633 21.16C264.873 21.16 266.859 21.6267 268.593 22.56C270.353 23.4667 271.713 24.7733 272.673 26.48C273.659 28.1867 274.153 30.2 274.153 32.52ZM265.153 30.4C265.153 29.6533 264.913 29.0933 264.433 28.72C263.953 28.32 263.353 28.12 262.633 28.12C261.059 28.12 260.139 28.88 259.873 30.4H265.153ZM285.841 14.4V44H276.961V14.4H285.841ZM313.732 21.44V44H304.852V40.56C304.158 41.6267 303.225 42.4933 302.052 43.16C300.905 43.8267 299.532 44.16 297.932 44.16C295.345 44.16 293.318 43.2933 291.852 41.56C290.412 39.8267 289.692 37.48 289.692 34.52V21.44H298.532V33.4C298.532 34.4667 298.812 35.32 299.372 35.96C299.958 36.5733 300.732 36.88 301.692 36.88C302.678 36.88 303.452 36.5733 304.012 35.96C304.572 35.32 304.852 34.4667 304.852 33.4V21.44H313.732ZM316.542 32.72C316.542 30.3467 316.942 28.2933 317.742 26.56C318.569 24.8 319.689 23.4667 321.102 22.56C322.516 21.6267 324.102 21.16 325.862 21.16C327.329 21.16 328.596 21.4667 329.662 22.08C330.729 22.6667 331.542 23.48 332.102 24.52V21.44H340.942V44H332.102V40.92C331.542 41.96 330.729 42.7867 329.662 43.4C328.596 43.9867 327.329 44.28 325.862 44.28C324.102 44.28 322.516 43.8267 321.102 42.92C319.689 41.9867 318.569 40.6533 317.742 38.92C316.942 37.16 316.542 35.0933 316.542 32.72ZM332.102 32.72C332.102 31.52 331.796 30.5867 331.182 29.92C330.569 29.2533 329.782 28.92 328.822 28.92C327.862 28.92 327.076 29.2533 326.462 29.92C325.849 30.5867 325.542 31.52 325.542 32.72C325.542 33.92 325.849 34.8533 326.462 35.52C327.076 36.1867 327.862 36.52 328.822 36.52C329.782 36.52 330.569 36.1867 331.182 35.52C331.796 34.8533 332.102 33.92 332.102 32.72ZM353.81 25.6C354.716 24.2933 355.823 23.2533 357.13 22.48C358.436 21.68 359.796 21.28 361.21 21.28V30.76H358.69C357.01 30.76 355.77 31.0533 354.97 31.64C354.196 32.2267 353.81 33.2667 353.81 34.76V44H344.93V21.44H353.81V25.6ZM371.722 21.16C373.188 21.16 374.455 21.4667 375.522 22.08C376.588 22.6667 377.402 23.48 377.962 24.52V21.44H386.802V43.6C386.802 45.7067 386.415 47.6267 385.642 49.36C384.868 51.0933 383.615 52.48 381.882 53.52C380.175 54.56 377.975 55.08 375.282 55.08C371.655 55.08 368.775 54.2267 366.642 52.52C364.535 50.84 363.335 48.5467 363.042 45.64H371.762C372.002 46.8133 372.962 47.4 374.642 47.4C375.682 47.4 376.495 47.1333 377.082 46.6C377.668 46.0667 377.962 45.0667 377.962 43.6V40.92C377.402 41.96 376.588 42.7867 375.522 43.4C374.455 43.9867 373.188 44.28 371.722 44.28C369.962 44.28 368.375 43.8267 366.962 42.92C365.548 41.9867 364.428 40.6533 363.602 38.92C362.802 37.16 362.402 35.0933 362.402 32.72C362.402 30.3467 362.802 28.2933 363.602 26.56C364.428 24.8 365.548 23.4667 366.962 22.56C368.375 21.6267 369.962 21.16 371.722 21.16ZM377.962 32.72C377.962 31.52 377.655 30.5867 377.042 29.92C376.428 29.2533 375.642 28.92 374.682 28.92C373.722 28.92 372.935 29.2533 372.322 29.92C371.708 30.5867 371.402 31.52 371.402 32.72C371.402 33.92 371.708 34.8533 372.322 35.52C372.935 36.1867 373.722 36.52 374.682 36.52C375.642 36.52 376.428 36.1867 377.042 35.52C377.655 34.8533 377.962 33.92 377.962 32.72ZM389.589 32.72C389.589 30.3467 389.989 28.2933 390.789 26.56C391.616 24.8 392.736 23.4667 394.149 22.56C395.562 21.6267 397.149 21.16 398.909 21.16C400.376 21.16 401.642 21.4667 402.709 22.08C403.776 22.6667 404.589 23.48 405.149 24.52V21.44H413.989V44H405.149V40.92C404.589 41.96 403.776 42.7867 402.709 43.4C401.642 43.9867 400.376 44.28 398.909 44.28C397.149 44.28 395.562 43.8267 394.149 42.92C392.736 41.9867 391.616 40.6533 390.789 38.92C389.989 37.16 389.589 35.0933 389.589 32.72ZM405.149 32.72C405.149 31.52 404.842 30.5867 404.229 29.92C403.616 29.2533 402.829 28.92 401.869 28.92C400.909 28.92 400.122 29.2533 399.509 29.92C398.896 30.5867 398.589 31.52 398.589 32.72C398.589 33.92 398.896 34.8533 399.509 35.52C400.122 36.1867 400.909 36.52 401.869 36.52C402.829 36.52 403.616 36.1867 404.229 35.52C404.842 34.8533 405.149 33.92 405.149 32.72ZM54.2236 75.68V104H45.3836V89.88L41.0236 104H33.4236L29.0636 89.88V104H20.1836V75.68H31.0636L37.3036 92.68L43.3836 75.68H54.2236ZM80.0705 92.52C80.0705 93.1333 80.0305 93.72 79.9505 94.28H65.6705C65.8038 96.2267 66.6171 97.2 68.1105 97.2C69.0705 97.2 69.7638 96.76 70.1905 95.88H79.5905C79.2705 97.48 78.5905 98.92 77.5505 100.2C76.5371 101.453 75.2438 102.453 73.6705 103.2C72.1238 103.92 70.4171 104.28 68.5505 104.28C66.3105 104.28 64.3105 103.813 62.5505 102.88C60.8171 101.947 59.4571 100.613 58.4705 98.88C57.5105 97.12 57.0305 95.0667 57.0305 92.72C57.0305 90.3733 57.5105 88.3333 58.4705 86.6C59.4571 84.84 60.8171 83.4933 62.5505 82.56C64.3105 81.6267 66.3105 81.16 68.5505 81.16C70.7905 81.16 72.7771 81.6267 74.5105 82.56C76.2705 83.4667 77.6305 84.7733 78.5905 86.48C79.5771 88.1867 80.0705 90.2 80.0705 92.52ZM71.0705 90.4C71.0705 89.6533 70.8305 89.0933 70.3505 88.72C69.8705 88.32 69.2705 88.12 68.5505 88.12C66.9771 88.12 66.0571 88.88 65.7905 90.4H71.0705ZM98.6789 81.28C101.266 81.28 103.279 82.1467 104.719 83.88C106.186 85.6133 106.919 87.96 106.919 90.92V104H98.0789V92.04C98.0789 90.9733 97.7856 90.1333 97.1989 89.52C96.6389 88.88 95.8789 88.56 94.9189 88.56C93.9322 88.56 93.1589 88.88 92.5989 89.52C92.0389 90.1333 91.7589 90.9733 91.7589 92.04V104H82.8789V81.44H91.7589V84.88C92.4522 83.8133 93.3722 82.9467 94.5189 82.28C95.6922 81.6133 97.0789 81.28 98.6789 81.28ZM118.89 81.16C120.356 81.16 121.623 81.4667 122.69 82.08C123.756 82.6667 124.57 83.48 125.13 84.52V81.44H133.97V103.6C133.97 105.707 133.583 107.627 132.81 109.36C132.036 111.093 130.783 112.48 129.05 113.52C127.343 114.56 125.143 115.08 122.45 115.08C118.823 115.08 115.943 114.227 113.81 112.52C111.703 110.84 110.503 108.547 110.21 105.64H118.93C119.17 106.813 120.13 107.4 121.81 107.4C122.85 107.4 123.663 107.133 124.25 106.6C124.836 106.067 125.13 105.067 125.13 103.6V100.92C124.57 101.96 123.756 102.787 122.69 103.4C121.623 103.987 120.356 104.28 118.89 104.28C117.13 104.28 115.543 103.827 114.13 102.92C112.716 101.987 111.596 100.653 110.77 98.92C109.97 97.16 109.57 95.0933 109.57 92.72C109.57 90.3467 109.97 88.2933 110.77 86.56C111.596 84.8 112.716 83.4667 114.13 82.56C115.543 81.6267 117.13 81.16 118.89 81.16ZM125.13 92.72C125.13 91.52 124.823 90.5867 124.21 89.92C123.596 89.2533 122.81 88.92 121.85 88.92C120.89 88.92 120.103 89.2533 119.49 89.92C118.876 90.5867 118.57 91.52 118.57 92.72C118.57 93.92 118.876 94.8533 119.49 95.52C120.103 96.1867 120.89 96.52 121.85 96.52C122.81 96.52 123.596 96.1867 124.21 95.52C124.823 94.8533 125.13 93.92 125.13 92.72ZM146.077 81.16C147.544 81.16 148.81 81.4667 149.877 82.08C150.944 82.6667 151.757 83.48 152.317 84.52V81.44H161.157V103.6C161.157 105.707 160.77 107.627 159.997 109.36C159.224 111.093 157.97 112.48 156.237 113.52C154.53 114.56 152.33 115.08 149.637 115.08C146.01 115.08 143.13 114.227 140.997 112.52C138.89 110.84 137.69 108.547 137.397 105.64H146.117C146.357 106.813 147.317 107.4 148.997 107.4C150.037 107.4 150.85 107.133 151.437 106.6C152.024 106.067 152.317 105.067 152.317 103.6V100.92C151.757 101.96 150.944 102.787 149.877 103.4C148.81 103.987 147.544 104.28 146.077 104.28C144.317 104.28 142.73 103.827 141.317 102.92C139.904 101.987 138.784 100.653 137.957 98.92C137.157 97.16 136.757 95.0933 136.757 92.72C136.757 90.3467 137.157 88.2933 137.957 86.56C138.784 84.8 139.904 83.4667 141.317 82.56C142.73 81.6267 144.317 81.16 146.077 81.16ZM152.317 92.72C152.317 91.52 152.01 90.5867 151.397 89.92C150.784 89.2533 149.997 88.92 149.037 88.92C148.077 88.92 147.29 89.2533 146.677 89.92C146.064 90.5867 145.757 91.52 145.757 92.72C145.757 93.92 146.064 94.8533 146.677 95.52C147.29 96.1867 148.077 96.52 149.037 96.52C149.997 96.52 150.784 96.1867 151.397 95.52C152.01 94.8533 152.317 93.92 152.317 92.72ZM163.945 92.72C163.945 90.3467 164.345 88.2933 165.145 86.56C165.971 84.8 167.091 83.4667 168.505 82.56C169.918 81.6267 171.505 81.16 173.265 81.16C174.731 81.16 175.998 81.4667 177.065 82.08C178.131 82.6667 178.945 83.48 179.505 84.52V81.44H188.345V104H179.505V100.92C178.945 101.96 178.131 102.787 177.065 103.4C175.998 103.987 174.731 104.28 173.265 104.28C171.505 104.28 169.918 103.827 168.505 102.92C167.091 101.987 165.971 100.653 165.145 98.92C164.345 97.16 163.945 95.0933 163.945 92.72ZM179.505 92.72C179.505 91.52 179.198 90.5867 178.585 89.92C177.971 89.2533 177.185 88.92 176.225 88.92C175.265 88.92 174.478 89.2533 173.865 89.92C173.251 90.5867 172.945 91.52 172.945 92.72C172.945 93.92 173.251 94.8533 173.865 95.52C174.478 96.1867 175.265 96.52 176.225 96.52C177.185 96.52 177.971 96.1867 178.585 95.52C179.198 94.8533 179.505 93.92 179.505 92.72ZM208.132 81.28C210.719 81.28 212.732 82.1467 214.172 83.88C215.639 85.6133 216.372 87.96 216.372 90.92V104H207.532V92.04C207.532 90.9733 207.239 90.1333 206.652 89.52C206.092 88.88 205.332 88.56 204.372 88.56C203.385 88.56 202.612 88.88 202.052 89.52C201.492 90.1333 201.212 90.9733 201.212 92.04V104H192.332V81.44H201.212V84.88C201.905 83.8133 202.825 82.9467 203.972 82.28C205.145 81.6133 206.532 81.28 208.132 81.28ZM234.263 96.44V104H230.903C224.716 104 221.623 100.92 221.623 94.76V88.84H218.823V81.44H221.623V76H230.503V81.44H234.183V88.84H230.503V94.92C230.503 95.4533 230.623 95.84 230.863 96.08C231.129 96.32 231.556 96.44 232.143 96.44H234.263ZM242.125 79.64C240.578 79.64 239.338 79.2267 238.405 78.4C237.471 77.5733 237.005 76.5333 237.005 75.28C237.005 74 237.471 72.9467 238.405 72.12C239.338 71.2667 240.578 70.84 242.125 70.84C243.645 70.84 244.871 71.2667 245.805 72.12C246.738 72.9467 247.205 74 247.205 75.28C247.205 76.5333 246.738 77.5733 245.805 78.4C244.871 79.2267 243.645 79.64 242.125 79.64ZM246.525 81.44V104H237.645V81.44H246.525ZM264.975 104L259.415 95V104H250.535V74.4H259.415V89.88L265.055 81.44H275.375L266.935 92.8L275.575 104H264.975ZM276.366 92.72C276.366 90.3467 276.766 88.2933 277.566 86.56C278.393 84.8 279.513 83.4667 280.926 82.56C282.34 81.6267 283.926 81.16 285.686 81.16C287.153 81.16 288.42 81.4667 289.486 82.08C290.553 82.6667 291.366 83.48 291.926 84.52V81.44H300.766V104H291.926V100.92C291.366 101.96 290.553 102.787 289.486 103.4C288.42 103.987 287.153 104.28 285.686 104.28C283.926 104.28 282.34 103.827 280.926 102.92C279.513 101.987 278.393 100.653 277.566 98.92C276.766 97.16 276.366 95.0933 276.366 92.72ZM291.926 92.72C291.926 91.52 291.62 90.5867 291.006 89.92C290.393 89.2533 289.606 88.92 288.646 88.92C287.686 88.92 286.9 89.2533 286.286 89.92C285.673 90.5867 285.366 91.52 285.366 92.72C285.366 93.92 285.673 94.8533 286.286 95.52C286.9 96.1867 287.686 96.52 288.646 96.52C289.606 96.52 290.393 96.1867 291.006 95.52C291.62 94.8533 291.926 93.92 291.926 92.72ZM320.554 81.28C323.141 81.28 325.154 82.1467 326.594 83.88C328.061 85.6133 328.794 87.96 328.794 90.92V104H319.954V92.04C319.954 90.9733 319.661 90.1333 319.074 89.52C318.514 88.88 317.754 88.56 316.794 88.56C315.807 88.56 315.034 88.88 314.474 89.52C313.914 90.1333 313.634 90.9733 313.634 92.04V104H304.754V81.44H313.634V84.88C314.327 83.8133 315.247 82.9467 316.394 82.28C317.567 81.6133 318.954 81.28 320.554 81.28ZM362.601 85.4C362.601 87.1867 362.188 88.8133 361.361 90.28C360.535 91.72 359.308 92.8667 357.681 93.72C356.081 94.5733 354.135 95 351.841 95H348.321V104H339.441V75.68H351.841C355.308 75.68 357.961 76.56 359.801 78.32C361.668 80.08 362.601 82.44 362.601 85.4ZM350.841 88C352.681 88 353.601 87.1333 353.601 85.4C353.601 83.6667 352.681 82.8 350.841 82.8H348.321V88H350.841ZM387.258 92.52C387.258 93.1333 387.218 93.72 387.138 94.28H372.858C372.991 96.2267 373.805 97.2 375.298 97.2C376.258 97.2 376.951 96.76 377.378 95.88H386.778C386.458 97.48 385.778 98.92 384.738 100.2C383.725 101.453 382.431 102.453 380.858 103.2C379.311 103.92 377.605 104.28 375.738 104.28C373.498 104.28 371.498 103.813 369.738 102.88C368.005 101.947 366.645 100.613 365.658 98.88C364.698 97.12 364.218 95.0667 364.218 92.72C364.218 90.3733 364.698 88.3333 365.658 86.6C366.645 84.84 368.005 83.4933 369.738 82.56C371.498 81.6267 373.498 81.16 375.738 81.16C377.978 81.16 379.965 81.6267 381.698 82.56C383.458 83.4667 384.818 84.7733 385.778 86.48C386.765 88.1867 387.258 90.2 387.258 92.52ZM378.258 90.4C378.258 89.6533 378.018 89.0933 377.538 88.72C377.058 88.32 376.458 88.12 375.738 88.12C374.165 88.12 373.245 88.88 372.978 90.4H378.258ZM398.946 85.6C399.853 84.2933 400.96 83.2533 402.266 82.48C403.573 81.68 404.933 81.28 406.346 81.28V90.76H403.826C402.146 90.76 400.906 91.0533 400.106 91.64C399.333 92.2267 398.946 93.2667 398.946 94.76V104H390.066V81.44H398.946V85.6ZM407.538 92.72C407.538 90.3467 407.938 88.2933 408.738 86.56C409.565 84.8 410.685 83.4667 412.098 82.56C413.512 81.6267 415.098 81.16 416.858 81.16C418.325 81.16 419.592 81.4667 420.658 82.08C421.725 82.6667 422.538 83.48 423.098 84.52V81.44H431.938V104H423.098V100.92C422.538 101.96 421.725 102.787 420.658 103.4C419.592 103.987 418.325 104.28 416.858 104.28C415.098 104.28 413.512 103.827 412.098 102.92C410.685 101.987 409.565 100.653 408.738 98.92C407.938 97.16 407.538 95.0933 407.538 92.72ZM423.098 92.72C423.098 91.52 422.792 90.5867 422.178 89.92C421.565 89.2533 420.778 88.92 419.818 88.92C418.858 88.92 418.072 89.2533 417.458 89.92C416.845 90.5867 416.538 91.52 416.538 92.72C416.538 93.92 416.845 94.8533 417.458 95.52C418.072 96.1867 418.858 96.52 419.818 96.52C420.778 96.52 421.565 96.1867 422.178 95.52C422.792 94.8533 423.098 93.92 423.098 92.72ZM451.726 81.28C454.312 81.28 456.326 82.1467 457.766 83.88C459.232 85.6133 459.966 87.96 459.966 90.92V104H451.126V92.04C451.126 90.9733 450.832 90.1333 450.246 89.52C449.686 88.88 448.926 88.56 447.966 88.56C446.979 88.56 446.206 88.88 445.646 89.52C445.086 90.1333 444.806 90.9733 444.806 92.04V104H435.926V81.44H444.806V84.88C445.499 83.8133 446.419 82.9467 447.566 82.28C448.739 81.6133 450.126 81.28 451.726 81.28ZM50.248 164.28C46.8613 164.28 44.0613 163.493 41.848 161.92C39.6613 160.32 38.4746 157.987 38.288 154.92H47.728C47.8613 156.547 48.5813 157.36 49.888 157.36C50.368 157.36 50.768 157.253 51.088 157.04C51.4346 156.8 51.608 156.44 51.608 155.96C51.608 155.293 51.248 154.76 50.528 154.36C49.808 153.933 48.688 153.453 47.168 152.92C45.3546 152.28 43.848 151.653 42.648 151.04C41.4746 150.427 40.4613 149.533 39.608 148.36C38.7546 147.187 38.3413 145.68 38.368 143.84C38.368 142 38.8346 140.44 39.768 139.16C40.728 137.853 42.0213 136.867 43.648 136.2C45.3013 135.533 47.1546 135.2 49.208 135.2C52.6746 135.2 55.4213 136 57.448 137.6C59.5013 139.2 60.5813 141.453 60.688 144.36H51.128C51.1013 143.56 50.9013 142.987 50.528 142.64C50.1546 142.293 49.7013 142.12 49.168 142.12C48.7946 142.12 48.488 142.253 48.248 142.52C48.008 142.76 47.888 143.107 47.888 143.56C47.888 144.2 48.2346 144.733 48.928 145.16C49.648 145.56 50.7813 146.053 52.328 146.64C54.1146 147.307 55.5813 147.947 56.728 148.56C57.9013 149.173 58.9146 150.027 59.768 151.12C60.6213 152.213 61.048 153.587 61.048 155.24C61.048 156.973 60.6213 158.533 59.768 159.92C58.9146 161.28 57.6746 162.347 56.048 163.12C54.4213 163.893 52.488 164.28 50.248 164.28ZM86.008 152.52C86.008 153.133 85.968 153.72 85.888 154.28H71.608C71.7413 156.227 72.5546 157.2 74.048 157.2C75.008 157.2 75.7013 156.76 76.128 155.88H85.528C85.208 157.48 84.528 158.92 83.488 160.2C82.4746 161.453 81.1813 162.453 79.608 163.2C78.0613 163.92 76.3546 164.28 74.488 164.28C72.248 164.28 70.248 163.813 68.488 162.88C66.7546 161.947 65.3946 160.613 64.408 158.88C63.448 157.12 62.968 155.067 62.968 152.72C62.968 150.373 63.448 148.333 64.408 146.6C65.3946 144.84 66.7546 143.493 68.488 142.56C70.248 141.627 72.248 141.16 74.488 141.16C76.728 141.16 78.7146 141.627 80.448 142.56C82.208 143.467 83.568 144.773 84.528 146.48C85.5146 148.187 86.008 150.2 86.008 152.52ZM77.008 150.4C77.008 149.653 76.768 149.093 76.288 148.72C75.808 148.32 75.208 148.12 74.488 148.12C72.9146 148.12 71.9946 148.88 71.728 150.4H77.008ZM97.6964 144.52C98.2564 143.48 99.0564 142.667 100.096 142.08C101.163 141.467 102.43 141.16 103.896 141.16C105.656 141.16 107.243 141.627 108.656 142.56C110.07 143.467 111.176 144.8 111.976 146.56C112.803 148.293 113.216 150.347 113.216 152.72C113.216 155.093 112.803 157.16 111.976 158.92C111.176 160.653 110.07 161.987 108.656 162.92C107.243 163.827 105.656 164.28 103.896 164.28C102.43 164.28 101.163 163.987 100.096 163.4C99.0564 162.787 98.2564 161.96 97.6964 160.92V164H88.8164V134.4H97.6964V144.52ZM104.216 152.72C104.216 151.52 103.91 150.587 103.296 149.92C102.683 149.253 101.896 148.92 100.936 148.92C99.9764 148.92 99.1897 149.253 98.5764 149.92C97.9631 150.587 97.6564 151.52 97.6564 152.72C97.6564 153.92 97.9631 154.853 98.5764 155.52C99.1897 156.187 99.9764 156.52 100.936 156.52C101.896 156.52 102.683 156.187 103.296 155.52C103.91 154.853 104.216 153.92 104.216 152.72ZM114.804 152.72C114.804 150.347 115.204 148.293 116.004 146.56C116.831 144.8 117.951 143.467 119.364 142.56C120.777 141.627 122.364 141.16 124.124 141.16C125.591 141.16 126.857 141.467 127.924 142.08C128.991 142.667 129.804 143.48 130.364 144.52V141.44H139.204V164H130.364V160.92C129.804 161.96 128.991 162.787 127.924 163.4C126.857 163.987 125.591 164.28 124.124 164.28C122.364 164.28 120.777 163.827 119.364 162.92C117.951 161.987 116.831 160.653 116.004 158.92C115.204 157.16 114.804 155.093 114.804 152.72ZM130.364 152.72C130.364 151.52 130.057 150.587 129.444 149.92C128.831 149.253 128.044 148.92 127.084 148.92C126.124 148.92 125.337 149.253 124.724 149.92C124.111 150.587 123.804 151.52 123.804 152.72C123.804 153.92 124.111 154.853 124.724 155.52C125.337 156.187 126.124 156.52 127.084 156.52C128.044 156.52 128.831 156.187 129.444 155.52C130.057 154.853 130.364 153.92 130.364 152.72ZM151.311 141.16C152.778 141.16 154.045 141.467 155.111 142.08C156.178 142.667 156.991 143.48 157.551 144.52V141.44H166.391V163.6C166.391 165.707 166.005 167.627 165.231 169.36C164.458 171.093 163.205 172.48 161.471 173.52C159.765 174.56 157.565 175.08 154.871 175.08C151.245 175.08 148.365 174.227 146.231 172.52C144.125 170.84 142.925 168.547 142.631 165.64H151.351C151.591 166.813 152.551 167.4 154.231 167.4C155.271 167.4 156.085 167.133 156.671 166.6C157.258 166.067 157.551 165.067 157.551 163.6V160.92C156.991 161.96 156.178 162.787 155.111 163.4C154.045 163.987 152.778 164.28 151.311 164.28C149.551 164.28 147.965 163.827 146.551 162.92C145.138 161.987 144.018 160.653 143.191 158.92C142.391 157.16 141.991 155.093 141.991 152.72C141.991 150.347 142.391 148.293 143.191 146.56C144.018 144.8 145.138 143.467 146.551 142.56C147.965 141.627 149.551 141.16 151.311 141.16ZM157.551 152.72C157.551 151.52 157.245 150.587 156.631 149.92C156.018 149.253 155.231 148.92 154.271 148.92C153.311 148.92 152.525 149.253 151.911 149.92C151.298 150.587 150.991 151.52 150.991 152.72C150.991 153.92 151.298 154.853 151.911 155.52C152.525 156.187 153.311 156.52 154.271 156.52C155.231 156.52 156.018 156.187 156.631 155.52C157.245 154.853 157.551 153.92 157.551 152.72ZM169.179 152.72C169.179 150.347 169.579 148.293 170.379 146.56C171.206 144.8 172.326 143.467 173.739 142.56C175.152 141.627 176.739 141.16 178.499 141.16C179.966 141.16 181.232 141.467 182.299 142.08C183.366 142.667 184.179 143.48 184.739 144.52V141.44H193.579V164H184.739V160.92C184.179 161.96 183.366 162.787 182.299 163.4C181.232 163.987 179.966 164.28 178.499 164.28C176.739 164.28 175.152 163.827 173.739 162.92C172.326 161.987 171.206 160.653 170.379 158.92C169.579 157.16 169.179 155.093 169.179 152.72ZM184.739 152.72C184.739 151.52 184.432 150.587 183.819 149.92C183.206 149.253 182.419 148.92 181.459 148.92C180.499 148.92 179.712 149.253 179.099 149.92C178.486 150.587 178.179 151.52 178.179 152.72C178.179 153.92 178.486 154.853 179.099 155.52C179.712 156.187 180.499 156.52 181.459 156.52C182.419 156.52 183.206 156.187 183.819 155.52C184.432 154.853 184.739 153.92 184.739 152.72ZM202.046 139.64C200.5 139.64 199.26 139.227 198.326 138.4C197.393 137.573 196.926 136.533 196.926 135.28C196.926 134 197.393 132.947 198.326 132.12C199.26 131.267 200.5 130.84 202.046 130.84C203.566 130.84 204.793 131.267 205.726 132.12C206.66 132.947 207.126 134 207.126 135.28C207.126 136.533 206.66 137.573 205.726 138.4C204.793 139.227 203.566 139.64 202.046 139.64ZM206.446 141.44V164H197.566V141.44H206.446ZM226.134 135.68V164H217.254V135.68H226.134ZM239.025 144.52C239.585 143.48 240.385 142.667 241.425 142.08C242.491 141.467 243.758 141.16 245.225 141.16C246.985 141.16 248.571 141.627 249.985 142.56C251.398 143.467 252.505 144.8 253.305 146.56C254.131 148.293 254.545 150.347 254.545 152.72C254.545 155.093 254.131 157.16 253.305 158.92C252.505 160.653 251.398 161.987 249.985 162.92C248.571 163.827 246.985 164.28 245.225 164.28C243.758 164.28 242.491 163.987 241.425 163.4C240.385 162.787 239.585 161.96 239.025 160.92V164H230.145V134.4H239.025V144.52ZM245.545 152.72C245.545 151.52 245.238 150.587 244.625 149.92C244.011 149.253 243.225 148.92 242.265 148.92C241.305 148.92 240.518 149.253 239.905 149.92C239.291 150.587 238.985 151.52 238.985 152.72C238.985 153.92 239.291 154.853 239.905 155.52C240.518 156.187 241.305 156.52 242.265 156.52C243.225 156.52 244.011 156.187 244.625 155.52C245.238 154.853 245.545 153.92 245.545 152.72ZM281.212 141.44V164H272.332V160.56C271.639 161.627 270.705 162.493 269.532 163.16C268.385 163.827 267.012 164.16 265.412 164.16C262.825 164.16 260.799 163.293 259.332 161.56C257.892 159.827 257.172 157.48 257.172 154.52V141.44H266.012V153.4C266.012 154.467 266.292 155.32 266.852 155.96C267.439 156.573 268.212 156.88 269.172 156.88C270.159 156.88 270.932 156.573 271.492 155.96C272.052 155.32 272.332 154.467 272.332 153.4V141.44H281.212ZM306.26 164L300.94 153.84H300.9V164H292.02V135.68H305.22C307.513 135.68 309.473 136.093 311.1 136.92C312.726 137.72 313.94 138.827 314.74 140.24C315.566 141.627 315.98 143.2 315.98 144.96C315.98 146.853 315.446 148.533 314.38 150C313.34 151.467 311.833 152.52 309.86 153.16L316.02 164H306.26ZM300.9 147.92H304.42C305.273 147.92 305.913 147.733 306.34 147.36C306.766 146.96 306.98 146.347 306.98 145.52C306.98 144.773 306.753 144.187 306.3 143.76C305.873 143.333 305.246 143.12 304.42 143.12H300.9V147.92ZM342.696 141.44V164H333.816V160.56C333.123 161.627 332.19 162.493 331.016 163.16C329.87 163.827 328.496 164.16 326.896 164.16C324.31 164.16 322.283 163.293 320.816 161.56C319.376 159.827 318.656 157.48 318.656 154.52V141.44H327.496V153.4C327.496 154.467 327.776 155.32 328.336 155.96C328.923 156.573 329.696 156.88 330.656 156.88C331.643 156.88 332.416 156.573 332.976 155.96C333.536 155.32 333.816 154.467 333.816 153.4V141.44H342.696ZM376.827 141.28C379.707 141.28 381.934 142.147 383.507 143.88C385.107 145.613 385.907 147.96 385.907 150.92V164H377.067V152.04C377.067 151.08 376.774 150.333 376.187 149.8C375.627 149.24 374.867 148.96 373.907 148.96C372.92 148.96 372.147 149.24 371.587 149.8C371.027 150.333 370.747 151.08 370.747 152.04V164H361.907V152.04C361.907 151.08 361.614 150.333 361.027 149.8C360.467 149.24 359.707 148.96 358.747 148.96C357.76 148.96 356.987 149.24 356.427 149.8C355.867 150.333 355.587 151.08 355.587 152.04V164H346.707V141.44H355.587V144.48C356.227 143.52 357.094 142.747 358.187 142.16C359.307 141.573 360.614 141.28 362.107 141.28C363.734 141.28 365.174 141.64 366.427 142.36C367.68 143.053 368.68 144.04 369.427 145.32C370.254 144.147 371.307 143.187 372.587 142.44C373.867 141.667 375.28 141.28 376.827 141.28ZM388.554 152.72C388.554 150.347 388.954 148.293 389.754 146.56C390.581 144.8 391.701 143.467 393.114 142.56C394.527 141.627 396.114 141.16 397.874 141.16C399.341 141.16 400.607 141.467 401.674 142.08C402.741 142.667 403.554 143.48 404.114 144.52V141.44H412.954V164H404.114V160.92C403.554 161.96 402.741 162.787 401.674 163.4C400.607 163.987 399.341 164.28 397.874 164.28C396.114 164.28 394.527 163.827 393.114 162.92C391.701 161.987 390.581 160.653 389.754 158.92C388.954 157.16 388.554 155.093 388.554 152.72ZM404.114 152.72C404.114 151.52 403.807 150.587 403.194 149.92C402.581 149.253 401.794 148.92 400.834 148.92C399.874 148.92 399.087 149.253 398.474 149.92C397.861 150.587 397.554 151.52 397.554 152.72C397.554 153.92 397.861 154.853 398.474 155.52C399.087 156.187 399.874 156.52 400.834 156.52C401.794 156.52 402.581 156.187 403.194 155.52C403.807 154.853 404.114 153.92 404.114 152.72ZM432.741 141.28C435.328 141.28 437.341 142.147 438.781 143.88C440.248 145.613 440.981 147.96 440.981 150.92V164H432.141V152.04C432.141 150.973 431.848 150.133 431.261 149.52C430.701 148.88 429.941 148.56 428.981 148.56C427.995 148.56 427.221 148.88 426.661 149.52C426.101 150.133 425.821 150.973 425.821 152.04V164H416.941V134.4H425.821V144.88C426.515 143.813 427.435 142.947 428.581 142.28C429.755 141.613 431.141 141.28 432.741 141.28ZM183.595 195.68V202.72H176.075V224H167.195V202.72H159.755V195.68H183.595ZM184.804 212.72C184.804 210.347 185.204 208.293 186.004 206.56C186.831 204.8 187.951 203.467 189.364 202.56C190.777 201.627 192.364 201.16 194.124 201.16C195.591 201.16 196.857 201.467 197.924 202.08C198.991 202.667 199.804 203.48 200.364 204.52V201.44H209.204V224H200.364V220.92C199.804 221.96 198.991 222.787 197.924 223.4C196.857 223.987 195.591 224.28 194.124 224.28C192.364 224.28 190.777 223.827 189.364 222.92C187.951 221.987 186.831 220.653 186.004 218.92C185.204 217.16 184.804 215.093 184.804 212.72ZM200.364 212.72C200.364 211.52 200.057 210.587 199.444 209.92C198.831 209.253 198.044 208.92 197.084 208.92C196.124 208.92 195.337 209.253 194.724 209.92C194.111 210.587 193.804 211.52 193.804 212.72C193.804 213.92 194.111 214.853 194.724 215.52C195.337 216.187 196.124 216.52 197.084 216.52C198.044 216.52 198.831 216.187 199.444 215.52C200.057 214.853 200.364 213.92 200.364 212.72ZM228.991 201.28C231.578 201.28 233.591 202.147 235.031 203.88C236.498 205.613 237.231 207.96 237.231 210.92V224H228.391V212.04C228.391 210.973 228.098 210.133 227.511 209.52C226.951 208.88 226.191 208.56 225.231 208.56C224.245 208.56 223.471 208.88 222.911 209.52C222.351 210.133 222.071 210.973 222.071 212.04V224H213.191V201.44H222.071V204.88C222.765 203.813 223.685 202.947 224.831 202.28C226.005 201.613 227.391 201.28 228.991 201.28ZM249.202 201.16C250.669 201.16 251.935 201.467 253.002 202.08C254.069 202.667 254.882 203.48 255.442 204.52V201.44H264.282V223.6C264.282 225.707 263.895 227.627 263.122 229.36C262.349 231.093 261.095 232.48 259.362 233.52C257.655 234.56 255.455 235.08 252.762 235.08C249.135 235.08 246.255 234.227 244.122 232.52C242.015 230.84 240.815 228.547 240.522 225.64H249.242C249.482 226.813 250.442 227.4 252.122 227.4C253.162 227.4 253.975 227.133 254.562 226.6C255.149 226.067 255.442 225.067 255.442 223.6V220.92C254.882 221.96 254.069 222.787 253.002 223.4C251.935 223.987 250.669 224.28 249.202 224.28C247.442 224.28 245.855 223.827 244.442 222.92C243.029 221.987 241.909 220.653 241.082 218.92C240.282 217.16 239.882 215.093 239.882 212.72C239.882 210.347 240.282 208.293 241.082 206.56C241.909 204.8 243.029 203.467 244.442 202.56C245.855 201.627 247.442 201.16 249.202 201.16ZM255.442 212.72C255.442 211.52 255.135 210.587 254.522 209.92C253.909 209.253 253.122 208.92 252.162 208.92C251.202 208.92 250.415 209.253 249.802 209.92C249.189 210.587 248.882 211.52 248.882 212.72C248.882 213.92 249.189 214.853 249.802 215.52C250.415 216.187 251.202 216.52 252.162 216.52C253.122 216.52 253.909 216.187 254.522 215.52C255.135 214.853 255.442 213.92 255.442 212.72ZM276.39 201.16C277.856 201.16 279.123 201.467 280.19 202.08C281.256 202.667 282.07 203.48 282.63 204.52V201.44H291.47V223.6C291.47 225.707 291.083 227.627 290.31 229.36C289.536 231.093 288.283 232.48 286.55 233.52C284.843 234.56 282.643 235.08 279.95 235.08C276.323 235.08 273.443 234.227 271.31 232.52C269.203 230.84 268.003 228.547 267.71 225.64H276.43C276.67 226.813 277.63 227.4 279.31 227.4C280.35 227.4 281.163 227.133 281.75 226.6C282.336 226.067 282.63 225.067 282.63 223.6V220.92C282.07 221.96 281.256 222.787 280.19 223.4C279.123 223.987 277.856 224.28 276.39 224.28C274.63 224.28 273.043 223.827 271.63 222.92C270.216 221.987 269.096 220.653 268.27 218.92C267.47 217.16 267.07 215.093 267.07 212.72C267.07 210.347 267.47 208.293 268.27 206.56C269.096 204.8 270.216 203.467 271.63 202.56C273.043 201.627 274.63 201.16 276.39 201.16ZM282.63 212.72C282.63 211.52 282.323 210.587 281.71 209.92C281.096 209.253 280.31 208.92 279.35 208.92C278.39 208.92 277.603 209.253 276.99 209.92C276.376 210.587 276.07 211.52 276.07 212.72C276.07 213.92 276.376 214.853 276.99 215.52C277.603 216.187 278.39 216.52 279.35 216.52C280.31 216.52 281.096 216.187 281.71 215.52C282.323 214.853 282.63 213.92 282.63 212.72ZM294.257 212.72C294.257 210.347 294.657 208.293 295.457 206.56C296.284 204.8 297.404 203.467 298.817 202.56C300.23 201.627 301.817 201.16 303.577 201.16C305.044 201.16 306.31 201.467 307.377 202.08C308.444 202.667 309.257 203.48 309.817 204.52V201.44H318.657V224H309.817V220.92C309.257 221.96 308.444 222.787 307.377 223.4C306.31 223.987 305.044 224.28 303.577 224.28C301.817 224.28 300.23 223.827 298.817 222.92C297.404 221.987 296.284 220.653 295.457 218.92C294.657 217.16 294.257 215.093 294.257 212.72ZM309.817 212.72C309.817 211.52 309.51 210.587 308.897 209.92C308.284 209.253 307.497 208.92 306.537 208.92C305.577 208.92 304.79 209.253 304.177 209.92C303.564 210.587 303.257 211.52 303.257 212.72C303.257 213.92 303.564 214.853 304.177 215.52C304.79 216.187 305.577 216.52 306.537 216.52C307.497 216.52 308.284 216.187 308.897 215.52C309.51 214.853 309.817 213.92 309.817 212.72Z" fill="#00B4BF"/>
</g>
<path d="M83.1434 44L74.9034 31.72V44H66.0234V15.68H74.9034V27.6L83.0234 15.68H93.0634L83.3034 29.24L93.7034 44H83.1434ZM118.059 32.52C118.059 33.1333 118.019 33.72 117.939 34.28H103.659C103.792 36.2267 104.605 37.2 106.099 37.2C107.059 37.2 107.752 36.76 108.179 35.88H117.579C117.259 37.48 116.579 38.92 115.539 40.2C114.525 41.4533 113.232 42.4533 111.659 43.2C110.112 43.92 108.405 44.28 106.539 44.28C104.299 44.28 102.299 43.8133 100.539 42.88C98.8054 41.9467 97.4454 40.6133 96.4588 38.88C95.4988 37.12 95.0188 35.0667 95.0188 32.72C95.0188 30.3733 95.4988 28.3333 96.4588 26.6C97.4454 24.84 98.8054 23.4933 100.539 22.56C102.299 21.6267 104.299 21.16 106.539 21.16C108.779 21.16 110.765 21.6267 112.499 22.56C114.259 23.4667 115.619 24.7733 116.579 26.48C117.565 28.1867 118.059 30.2 118.059 32.52ZM109.059 30.4C109.059 29.6533 108.819 29.0933 108.339 28.72C107.859 28.32 107.259 28.12 106.539 28.12C104.965 28.12 104.045 28.88 103.779 30.4H109.059ZM129.747 24.52C130.307 23.48 131.107 22.6667 132.147 22.08C133.214 21.4667 134.481 21.16 135.947 21.16C137.707 21.16 139.294 21.6267 140.707 22.56C142.121 23.4667 143.227 24.8 144.027 26.56C144.854 28.2933 145.267 30.3467 145.267 32.72C145.267 35.0933 144.854 37.16 144.027 38.92C143.227 40.6533 142.121 41.9867 140.707 42.92C139.294 43.8267 137.707 44.28 135.947 44.28C134.481 44.28 133.214 43.9867 132.147 43.4C131.107 42.7867 130.307 41.96 129.747 40.92V54.8H120.867V21.44H129.747V24.52ZM136.267 32.72C136.267 31.52 135.961 30.5867 135.347 29.92C134.734 29.2533 133.947 28.92 132.987 28.92C132.027 28.92 131.241 29.2533 130.627 29.92C130.014 30.5867 129.707 31.52 129.707 32.72C129.707 33.92 130.014 34.8533 130.627 35.52C131.241 36.1867 132.027 36.52 132.987 36.52C133.947 36.52 134.734 36.1867 135.347 35.52C135.961 34.8533 136.267 33.92 136.267 32.72ZM146.855 32.72C146.855 30.3467 147.255 28.2933 148.055 26.56C148.881 24.8 150.001 23.4667 151.415 22.56C152.828 21.6267 154.415 21.16 156.175 21.16C157.641 21.16 158.908 21.4667 159.975 22.08C161.041 22.6667 161.855 23.48 162.415 24.52V21.44H171.255V44H162.415V40.92C161.855 41.96 161.041 42.7867 159.975 43.4C158.908 43.9867 157.641 44.28 156.175 44.28C154.415 44.28 152.828 43.8267 151.415 42.92C150.001 41.9867 148.881 40.6533 148.055 38.92C147.255 37.16 146.855 35.0933 146.855 32.72ZM162.415 32.72C162.415 31.52 162.108 30.5867 161.495 29.92C160.881 29.2533 160.095 28.92 159.135 28.92C158.175 28.92 157.388 29.2533 156.775 29.92C156.161 30.5867 155.855 31.52 155.855 32.72C155.855 33.92 156.161 34.8533 156.775 35.52C157.388 36.1867 158.175 36.52 159.135 36.52C160.095 36.52 160.881 36.1867 161.495 35.52C162.108 34.8533 162.415 33.92 162.415 32.72ZM184.122 14.4V44H175.242V14.4H184.122ZM186.933 32.72C186.933 30.3467 187.333 28.2933 188.133 26.56C188.959 24.8 190.079 23.4667 191.493 22.56C192.906 21.6267 194.493 21.16 196.253 21.16C197.719 21.16 198.986 21.4667 200.053 22.08C201.119 22.6667 201.933 23.48 202.493 24.52V21.44H211.333V44H202.493V40.92C201.933 41.96 201.119 42.7867 200.053 43.4C198.986 43.9867 197.719 44.28 196.253 44.28C194.493 44.28 192.906 43.8267 191.493 42.92C190.079 41.9867 188.959 40.6533 188.133 38.92C187.333 37.16 186.933 35.0933 186.933 32.72ZM202.493 32.72C202.493 31.52 202.186 30.5867 201.573 29.92C200.959 29.2533 200.173 28.92 199.213 28.92C198.253 28.92 197.466 29.2533 196.853 29.92C196.239 30.5867 195.933 31.52 195.933 32.72C195.933 33.92 196.239 34.8533 196.853 35.52C197.466 36.1867 198.253 36.52 199.213 36.52C200.173 36.52 200.959 36.1867 201.573 35.52C202.186 34.8533 202.493 33.92 202.493 32.72ZM239.237 44L230.997 31.72V44H222.117V15.68H230.997V27.6L239.117 15.68H249.157L239.397 29.24L249.797 44H239.237ZM274.153 32.52C274.153 33.1333 274.113 33.72 274.033 34.28H259.753C259.886 36.2267 260.699 37.2 262.193 37.2C263.153 37.2 263.846 36.76 264.273 35.88H273.673C273.353 37.48 272.673 38.92 271.633 40.2C270.619 41.4533 269.326 42.4533 267.753 43.2C266.206 43.92 264.499 44.28 262.633 44.28C260.393 44.28 258.393 43.8133 256.633 42.88C254.899 41.9467 253.539 40.6133 252.553 38.88C251.593 37.12 251.113 35.0667 251.113 32.72C251.113 30.3733 251.593 28.3333 252.553 26.6C253.539 24.84 254.899 23.4933 256.633 22.56C258.393 21.6267 260.393 21.16 262.633 21.16C264.873 21.16 266.859 21.6267 268.593 22.56C270.353 23.4667 271.713 24.7733 272.673 26.48C273.659 28.1867 274.153 30.2 274.153 32.52ZM265.153 30.4C265.153 29.6533 264.913 29.0933 264.433 28.72C263.953 28.32 263.353 28.12 262.633 28.12C261.059 28.12 260.139 28.88 259.873 30.4H265.153ZM285.841 14.4V44H276.961V14.4H285.841ZM313.732 21.44V44H304.852V40.56C304.158 41.6267 303.225 42.4933 302.052 43.16C300.905 43.8267 299.532 44.16 297.932 44.16C295.345 44.16 293.318 43.2933 291.852 41.56C290.412 39.8267 289.692 37.48 289.692 34.52V21.44H298.532V33.4C298.532 34.4667 298.812 35.32 299.372 35.96C299.958 36.5733 300.732 36.88 301.692 36.88C302.678 36.88 303.452 36.5733 304.012 35.96C304.572 35.32 304.852 34.4667 304.852 33.4V21.44H313.732ZM316.542 32.72C316.542 30.3467 316.942 28.2933 317.742 26.56C318.569 24.8 319.689 23.4667 321.102 22.56C322.516 21.6267 324.102 21.16 325.862 21.16C327.329 21.16 328.596 21.4667 329.662 22.08C330.729 22.6667 331.542 23.48 332.102 24.52V21.44H340.942V44H332.102V40.92C331.542 41.96 330.729 42.7867 329.662 43.4C328.596 43.9867 327.329 44.28 325.862 44.28C324.102 44.28 322.516 43.8267 321.102 42.92C319.689 41.9867 318.569 40.6533 317.742 38.92C316.942 37.16 316.542 35.0933 316.542 32.72ZM332.102 32.72C332.102 31.52 331.796 30.5867 331.182 29.92C330.569 29.2533 329.782 28.92 328.822 28.92C327.862 28.92 327.076 29.2533 326.462 29.92C325.849 30.5867 325.542 31.52 325.542 32.72C325.542 33.92 325.849 34.8533 326.462 35.52C327.076 36.1867 327.862 36.52 328.822 36.52C329.782 36.52 330.569 36.1867 331.182 35.52C331.796 34.8533 332.102 33.92 332.102 32.72ZM353.81 25.6C354.716 24.2933 355.823 23.2533 357.13 22.48C358.436 21.68 359.796 21.28 361.21 21.28V30.76H358.69C357.01 30.76 355.77 31.0533 354.97 31.64C354.196 32.2267 353.81 33.2667 353.81 34.76V44H344.93V21.44H353.81V25.6ZM371.722 21.16C373.188 21.16 374.455 21.4667 375.522 22.08C376.588 22.6667 377.402 23.48 377.962 24.52V21.44H386.802V43.6C386.802 45.7067 386.415 47.6267 385.642 49.36C384.868 51.0933 383.615 52.48 381.882 53.52C380.175 54.56 377.975 55.08 375.282 55.08C371.655 55.08 368.775 54.2267 366.642 52.52C364.535 50.84 363.335 48.5467 363.042 45.64H371.762C372.002 46.8133 372.962 47.4 374.642 47.4C375.682 47.4 376.495 47.1333 377.082 46.6C377.668 46.0667 377.962 45.0667 377.962 43.6V40.92C377.402 41.96 376.588 42.7867 375.522 43.4C374.455 43.9867 373.188 44.28 371.722 44.28C369.962 44.28 368.375 43.8267 366.962 42.92C365.548 41.9867 364.428 40.6533 363.602 38.92C362.802 37.16 362.402 35.0933 362.402 32.72C362.402 30.3467 362.802 28.2933 363.602 26.56C364.428 24.8 365.548 23.4667 366.962 22.56C368.375 21.6267 369.962 21.16 371.722 21.16ZM377.962 32.72C377.962 31.52 377.655 30.5867 377.042 29.92C376.428 29.2533 375.642 28.92 374.682 28.92C373.722 28.92 372.935 29.2533 372.322 29.92C371.708 30.5867 371.402 31.52 371.402 32.72C371.402 33.92 371.708 34.8533 372.322 35.52C372.935 36.1867 373.722 36.52 374.682 36.52C375.642 36.52 376.428 36.1867 377.042 35.52C377.655 34.8533 377.962 33.92 377.962 32.72ZM389.589 32.72C389.589 30.3467 389.989 28.2933 390.789 26.56C391.616 24.8 392.736 23.4667 394.149 22.56C395.562 21.6267 397.149 21.16 398.909 21.16C400.376 21.16 401.642 21.4667 402.709 22.08C403.776 22.6667 404.589 23.48 405.149 24.52V21.44H413.989V44H405.149V40.92C404.589 41.96 403.776 42.7867 402.709 43.4C401.642 43.9867 400.376 44.28 398.909 44.28C397.149 44.28 395.562 43.8267 394.149 42.92C392.736 41.9867 391.616 40.6533 390.789 38.92C389.989 37.16 389.589 35.0933 389.589 32.72ZM405.149 32.72C405.149 31.52 404.842 30.5867 404.229 29.92C403.616 29.2533 402.829 28.92 401.869 28.92C400.909 28.92 400.122 29.2533 399.509 29.92C398.896 30.5867 398.589 31.52 398.589 32.72C398.589 33.92 398.896 34.8533 399.509 35.52C400.122 36.1867 400.909 36.52 401.869 36.52C402.829 36.52 403.616 36.1867 404.229 35.52C404.842 34.8533 405.149 33.92 405.149 32.72ZM54.2236 75.68V104H45.3836V89.88L41.0236 104H33.4236L29.0636 89.88V104H20.1836V75.68H31.0636L37.3036 92.68L43.3836 75.68H54.2236ZM80.0705 92.52C80.0705 93.1333 80.0305 93.72 79.9505 94.28H65.6705C65.8038 96.2267 66.6171 97.2 68.1105 97.2C69.0705 97.2 69.7638 96.76 70.1905 95.88H79.5905C79.2705 97.48 78.5905 98.92 77.5505 100.2C76.5371 101.453 75.2438 102.453 73.6705 103.2C72.1238 103.92 70.4171 104.28 68.5505 104.28C66.3105 104.28 64.3105 103.813 62.5505 102.88C60.8171 101.947 59.4571 100.613 58.4705 98.88C57.5105 97.12 57.0305 95.0667 57.0305 92.72C57.0305 90.3733 57.5105 88.3333 58.4705 86.6C59.4571 84.84 60.8171 83.4933 62.5505 82.56C64.3105 81.6267 66.3105 81.16 68.5505 81.16C70.7905 81.16 72.7771 81.6267 74.5105 82.56C76.2705 83.4667 77.6305 84.7733 78.5905 86.48C79.5771 88.1867 80.0705 90.2 80.0705 92.52ZM71.0705 90.4C71.0705 89.6533 70.8305 89.0933 70.3505 88.72C69.8705 88.32 69.2705 88.12 68.5505 88.12C66.9771 88.12 66.0571 88.88 65.7905 90.4H71.0705ZM98.6789 81.28C101.266 81.28 103.279 82.1467 104.719 83.88C106.186 85.6133 106.919 87.96 106.919 90.92V104H98.0789V92.04C98.0789 90.9733 97.7856 90.1333 97.1989 89.52C96.6389 88.88 95.8789 88.56 94.9189 88.56C93.9322 88.56 93.1589 88.88 92.5989 89.52C92.0389 90.1333 91.7589 90.9733 91.7589 92.04V104H82.8789V81.44H91.7589V84.88C92.4522 83.8133 93.3722 82.9467 94.5189 82.28C95.6922 81.6133 97.0789 81.28 98.6789 81.28ZM118.89 81.16C120.356 81.16 121.623 81.4667 122.69 82.08C123.756 82.6667 124.57 83.48 125.13 84.52V81.44H133.97V103.6C133.97 105.707 133.583 107.627 132.81 109.36C132.036 111.093 130.783 112.48 129.05 113.52C127.343 114.56 125.143 115.08 122.45 115.08C118.823 115.08 115.943 114.227 113.81 112.52C111.703 110.84 110.503 108.547 110.21 105.64H118.93C119.17 106.813 120.13 107.4 121.81 107.4C122.85 107.4 123.663 107.133 124.25 106.6C124.836 106.067 125.13 105.067 125.13 103.6V100.92C124.57 101.96 123.756 102.787 122.69 103.4C121.623 103.987 120.356 104.28 118.89 104.28C117.13 104.28 115.543 103.827 114.13 102.92C112.716 101.987 111.596 100.653 110.77 98.92C109.97 97.16 109.57 95.0933 109.57 92.72C109.57 90.3467 109.97 88.2933 110.77 86.56C111.596 84.8 112.716 83.4667 114.13 82.56C115.543 81.6267 117.13 81.16 118.89 81.16ZM125.13 92.72C125.13 91.52 124.823 90.5867 124.21 89.92C123.596 89.2533 122.81 88.92 121.85 88.92C120.89 88.92 120.103 89.2533 119.49 89.92C118.876 90.5867 118.57 91.52 118.57 92.72C118.57 93.92 118.876 94.8533 119.49 95.52C120.103 96.1867 120.89 96.52 121.85 96.52C122.81 96.52 123.596 96.1867 124.21 95.52C124.823 94.8533 125.13 93.92 125.13 92.72ZM146.077 81.16C147.544 81.16 148.81 81.4667 149.877 82.08C150.944 82.6667 151.757 83.48 152.317 84.52V81.44H161.157V103.6C161.157 105.707 160.77 107.627 159.997 109.36C159.224 111.093 157.97 112.48 156.237 113.52C154.53 114.56 152.33 115.08 149.637 115.08C146.01 115.08 143.13 114.227 140.997 112.52C138.89 110.84 137.69 108.547 137.397 105.64H146.117C146.357 106.813 147.317 107.4 148.997 107.4C150.037 107.4 150.85 107.133 151.437 106.6C152.024 106.067 152.317 105.067 152.317 103.6V100.92C151.757 101.96 150.944 102.787 149.877 103.4C148.81 103.987 147.544 104.28 146.077 104.28C144.317 104.28 142.73 103.827 141.317 102.92C139.904 101.987 138.784 100.653 137.957 98.92C137.157 97.16 136.757 95.0933 136.757 92.72C136.757 90.3467 137.157 88.2933 137.957 86.56C138.784 84.8 139.904 83.4667 141.317 82.56C142.73 81.6267 144.317 81.16 146.077 81.16ZM152.317 92.72C152.317 91.52 152.01 90.5867 151.397 89.92C150.784 89.2533 149.997 88.92 149.037 88.92C148.077 88.92 147.29 89.2533 146.677 89.92C146.064 90.5867 145.757 91.52 145.757 92.72C145.757 93.92 146.064 94.8533 146.677 95.52C147.29 96.1867 148.077 96.52 149.037 96.52C149.997 96.52 150.784 96.1867 151.397 95.52C152.01 94.8533 152.317 93.92 152.317 92.72ZM163.945 92.72C163.945 90.3467 164.345 88.2933 165.145 86.56C165.971 84.8 167.091 83.4667 168.505 82.56C169.918 81.6267 171.505 81.16 173.265 81.16C174.731 81.16 175.998 81.4667 177.065 82.08C178.131 82.6667 178.945 83.48 179.505 84.52V81.44H188.345V104H179.505V100.92C178.945 101.96 178.131 102.787 177.065 103.4C175.998 103.987 174.731 104.28 173.265 104.28C171.505 104.28 169.918 103.827 168.505 102.92C167.091 101.987 165.971 100.653 165.145 98.92C164.345 97.16 163.945 95.0933 163.945 92.72ZM179.505 92.72C179.505 91.52 179.198 90.5867 178.585 89.92C177.971 89.2533 177.185 88.92 176.225 88.92C175.265 88.92 174.478 89.2533 173.865 89.92C173.251 90.5867 172.945 91.52 172.945 92.72C172.945 93.92 173.251 94.8533 173.865 95.52C174.478 96.1867 175.265 96.52 176.225 96.52C177.185 96.52 177.971 96.1867 178.585 95.52C179.198 94.8533 179.505 93.92 179.505 92.72ZM208.132 81.28C210.719 81.28 212.732 82.1467 214.172 83.88C215.639 85.6133 216.372 87.96 216.372 90.92V104H207.532V92.04C207.532 90.9733 207.239 90.1333 206.652 89.52C206.092 88.88 205.332 88.56 204.372 88.56C203.385 88.56 202.612 88.88 202.052 89.52C201.492 90.1333 201.212 90.9733 201.212 92.04V104H192.332V81.44H201.212V84.88C201.905 83.8133 202.825 82.9467 203.972 82.28C205.145 81.6133 206.532 81.28 208.132 81.28ZM234.263 96.44V104H230.903C224.716 104 221.623 100.92 221.623 94.76V88.84H218.823V81.44H221.623V76H230.503V81.44H234.183V88.84H230.503V94.92C230.503 95.4533 230.623 95.84 230.863 96.08C231.129 96.32 231.556 96.44 232.143 96.44H234.263ZM242.125 79.64C240.578 79.64 239.338 79.2267 238.405 78.4C237.471 77.5733 237.005 76.5333 237.005 75.28C237.005 74 237.471 72.9467 238.405 72.12C239.338 71.2667 240.578 70.84 242.125 70.84C243.645 70.84 244.871 71.2667 245.805 72.12C246.738 72.9467 247.205 74 247.205 75.28C247.205 76.5333 246.738 77.5733 245.805 78.4C244.871 79.2267 243.645 79.64 242.125 79.64ZM246.525 81.44V104H237.645V81.44H246.525ZM264.975 104L259.415 95V104H250.535V74.4H259.415V89.88L265.055 81.44H275.375L266.935 92.8L275.575 104H264.975ZM276.366 92.72C276.366 90.3467 276.766 88.2933 277.566 86.56C278.393 84.8 279.513 83.4667 280.926 82.56C282.34 81.6267 283.926 81.16 285.686 81.16C287.153 81.16 288.42 81.4667 289.486 82.08C290.553 82.6667 291.366 83.48 291.926 84.52V81.44H300.766V104H291.926V100.92C291.366 101.96 290.553 102.787 289.486 103.4C288.42 103.987 287.153 104.28 285.686 104.28C283.926 104.28 282.34 103.827 280.926 102.92C279.513 101.987 278.393 100.653 277.566 98.92C276.766 97.16 276.366 95.0933 276.366 92.72ZM291.926 92.72C291.926 91.52 291.62 90.5867 291.006 89.92C290.393 89.2533 289.606 88.92 288.646 88.92C287.686 88.92 286.9 89.2533 286.286 89.92C285.673 90.5867 285.366 91.52 285.366 92.72C285.366 93.92 285.673 94.8533 286.286 95.52C286.9 96.1867 287.686 96.52 288.646 96.52C289.606 96.52 290.393 96.1867 291.006 95.52C291.62 94.8533 291.926 93.92 291.926 92.72ZM320.554 81.28C323.141 81.28 325.154 82.1467 326.594 83.88C328.061 85.6133 328.794 87.96 328.794 90.92V104H319.954V92.04C319.954 90.9733 319.661 90.1333 319.074 89.52C318.514 88.88 317.754 88.56 316.794 88.56C315.807 88.56 315.034 88.88 314.474 89.52C313.914 90.1333 313.634 90.9733 313.634 92.04V104H304.754V81.44H313.634V84.88C314.327 83.8133 315.247 82.9467 316.394 82.28C317.567 81.6133 318.954 81.28 320.554 81.28ZM362.601 85.4C362.601 87.1867 362.188 88.8133 361.361 90.28C360.535 91.72 359.308 92.8667 357.681 93.72C356.081 94.5733 354.135 95 351.841 95H348.321V104H339.441V75.68H351.841C355.308 75.68 357.961 76.56 359.801 78.32C361.668 80.08 362.601 82.44 362.601 85.4ZM350.841 88C352.681 88 353.601 87.1333 353.601 85.4C353.601 83.6667 352.681 82.8 350.841 82.8H348.321V88H350.841ZM387.258 92.52C387.258 93.1333 387.218 93.72 387.138 94.28H372.858C372.991 96.2267 373.805 97.2 375.298 97.2C376.258 97.2 376.951 96.76 377.378 95.88H386.778C386.458 97.48 385.778 98.92 384.738 100.2C383.725 101.453 382.431 102.453 380.858 103.2C379.311 103.92 377.605 104.28 375.738 104.28C373.498 104.28 371.498 103.813 369.738 102.88C368.005 101.947 366.645 100.613 365.658 98.88C364.698 97.12 364.218 95.0667 364.218 92.72C364.218 90.3733 364.698 88.3333 365.658 86.6C366.645 84.84 368.005 83.4933 369.738 82.56C371.498 81.6267 373.498 81.16 375.738 81.16C377.978 81.16 379.965 81.6267 381.698 82.56C383.458 83.4667 384.818 84.7733 385.778 86.48C386.765 88.1867 387.258 90.2 387.258 92.52ZM378.258 90.4C378.258 89.6533 378.018 89.0933 377.538 88.72C377.058 88.32 376.458 88.12 375.738 88.12C374.165 88.12 373.245 88.88 372.978 90.4H378.258ZM398.946 85.6C399.853 84.2933 400.96 83.2533 402.266 82.48C403.573 81.68 404.933 81.28 406.346 81.28V90.76H403.826C402.146 90.76 400.906 91.0533 400.106 91.64C399.333 92.2267 398.946 93.2667 398.946 94.76V104H390.066V81.44H398.946V85.6ZM407.538 92.72C407.538 90.3467 407.938 88.2933 408.738 86.56C409.565 84.8 410.685 83.4667 412.098 82.56C413.512 81.6267 415.098 81.16 416.858 81.16C418.325 81.16 419.592 81.4667 420.658 82.08C421.725 82.6667 422.538 83.48 423.098 84.52V81.44H431.938V104H423.098V100.92C422.538 101.96 421.725 102.787 420.658 103.4C419.592 103.987 418.325 104.28 416.858 104.28C415.098 104.28 413.512 103.827 412.098 102.92C410.685 101.987 409.565 100.653 408.738 98.92C407.938 97.16 407.538 95.0933 407.538 92.72ZM423.098 92.72C423.098 91.52 422.792 90.5867 422.178 89.92C421.565 89.2533 420.778 88.92 419.818 88.92C418.858 88.92 418.072 89.2533 417.458 89.92C416.845 90.5867 416.538 91.52 416.538 92.72C416.538 93.92 416.845 94.8533 417.458 95.52C418.072 96.1867 418.858 96.52 419.818 96.52C420.778 96.52 421.565 96.1867 422.178 95.52C422.792 94.8533 423.098 93.92 423.098 92.72ZM451.726 81.28C454.312 81.28 456.326 82.1467 457.766 83.88C459.232 85.6133 459.966 87.96 459.966 90.92V104H451.126V92.04C451.126 90.9733 450.832 90.1333 450.246 89.52C449.686 88.88 448.926 88.56 447.966 88.56C446.979 88.56 446.206 88.88 445.646 89.52C445.086 90.1333 444.806 90.9733 444.806 92.04V104H435.926V81.44H444.806V84.88C445.499 83.8133 446.419 82.9467 447.566 82.28C448.739 81.6133 450.126 81.28 451.726 81.28ZM50.248 164.28C46.8613 164.28 44.0613 163.493 41.848 161.92C39.6613 160.32 38.4746 157.987 38.288 154.92H47.728C47.8613 156.547 48.5813 157.36 49.888 157.36C50.368 157.36 50.768 157.253 51.088 157.04C51.4346 156.8 51.608 156.44 51.608 155.96C51.608 155.293 51.248 154.76 50.528 154.36C49.808 153.933 48.688 153.453 47.168 152.92C45.3546 152.28 43.848 151.653 42.648 151.04C41.4746 150.427 40.4613 149.533 39.608 148.36C38.7546 147.187 38.3413 145.68 38.368 143.84C38.368 142 38.8346 140.44 39.768 139.16C40.728 137.853 42.0213 136.867 43.648 136.2C45.3013 135.533 47.1546 135.2 49.208 135.2C52.6746 135.2 55.4213 136 57.448 137.6C59.5013 139.2 60.5813 141.453 60.688 144.36H51.128C51.1013 143.56 50.9013 142.987 50.528 142.64C50.1546 142.293 49.7013 142.12 49.168 142.12C48.7946 142.12 48.488 142.253 48.248 142.52C48.008 142.76 47.888 143.107 47.888 143.56C47.888 144.2 48.2346 144.733 48.928 145.16C49.648 145.56 50.7813 146.053 52.328 146.64C54.1146 147.307 55.5813 147.947 56.728 148.56C57.9013 149.173 58.9146 150.027 59.768 151.12C60.6213 152.213 61.048 153.587 61.048 155.24C61.048 156.973 60.6213 158.533 59.768 159.92C58.9146 161.28 57.6746 162.347 56.048 163.12C54.4213 163.893 52.488 164.28 50.248 164.28ZM86.008 152.52C86.008 153.133 85.968 153.72 85.888 154.28H71.608C71.7413 156.227 72.5546 157.2 74.048 157.2C75.008 157.2 75.7013 156.76 76.128 155.88H85.528C85.208 157.48 84.528 158.92 83.488 160.2C82.4746 161.453 81.1813 162.453 79.608 163.2C78.0613 163.92 76.3546 164.28 74.488 164.28C72.248 164.28 70.248 163.813 68.488 162.88C66.7546 161.947 65.3946 160.613 64.408 158.88C63.448 157.12 62.968 155.067 62.968 152.72C62.968 150.373 63.448 148.333 64.408 146.6C65.3946 144.84 66.7546 143.493 68.488 142.56C70.248 141.627 72.248 141.16 74.488 141.16C76.728 141.16 78.7146 141.627 80.448 142.56C82.208 143.467 83.568 144.773 84.528 146.48C85.5146 148.187 86.008 150.2 86.008 152.52ZM77.008 150.4C77.008 149.653 76.768 149.093 76.288 148.72C75.808 148.32 75.208 148.12 74.488 148.12C72.9146 148.12 71.9946 148.88 71.728 150.4H77.008ZM97.6964 144.52C98.2564 143.48 99.0564 142.667 100.096 142.08C101.163 141.467 102.43 141.16 103.896 141.16C105.656 141.16 107.243 141.627 108.656 142.56C110.07 143.467 111.176 144.8 111.976 146.56C112.803 148.293 113.216 150.347 113.216 152.72C113.216 155.093 112.803 157.16 111.976 158.92C111.176 160.653 110.07 161.987 108.656 162.92C107.243 163.827 105.656 164.28 103.896 164.28C102.43 164.28 101.163 163.987 100.096 163.4C99.0564 162.787 98.2564 161.96 97.6964 160.92V164H88.8164V134.4H97.6964V144.52ZM104.216 152.72C104.216 151.52 103.91 150.587 103.296 149.92C102.683 149.253 101.896 148.92 100.936 148.92C99.9764 148.92 99.1897 149.253 98.5764 149.92C97.9631 150.587 97.6564 151.52 97.6564 152.72C97.6564 153.92 97.9631 154.853 98.5764 155.52C99.1897 156.187 99.9764 156.52 100.936 156.52C101.896 156.52 102.683 156.187 103.296 155.52C103.91 154.853 104.216 153.92 104.216 152.72ZM114.804 152.72C114.804 150.347 115.204 148.293 116.004 146.56C116.831 144.8 117.951 143.467 119.364 142.56C120.777 141.627 122.364 141.16 124.124 141.16C125.591 141.16 126.857 141.467 127.924 142.08C128.991 142.667 129.804 143.48 130.364 144.52V141.44H139.204V164H130.364V160.92C129.804 161.96 128.991 162.787 127.924 163.4C126.857 163.987 125.591 164.28 124.124 164.28C122.364 164.28 120.777 163.827 119.364 162.92C117.951 161.987 116.831 160.653 116.004 158.92C115.204 157.16 114.804 155.093 114.804 152.72ZM130.364 152.72C130.364 151.52 130.057 150.587 129.444 149.92C128.831 149.253 128.044 148.92 127.084 148.92C126.124 148.92 125.337 149.253 124.724 149.92C124.111 150.587 123.804 151.52 123.804 152.72C123.804 153.92 124.111 154.853 124.724 155.52C125.337 156.187 126.124 156.52 127.084 156.52C128.044 156.52 128.831 156.187 129.444 155.52C130.057 154.853 130.364 153.92 130.364 152.72ZM151.311 141.16C152.778 141.16 154.045 141.467 155.111 142.08C156.178 142.667 156.991 143.48 157.551 144.52V141.44H166.391V163.6C166.391 165.707 166.005 167.627 165.231 169.36C164.458 171.093 163.205 172.48 161.471 173.52C159.765 174.56 157.565 175.08 154.871 175.08C151.245 175.08 148.365 174.227 146.231 172.52C144.125 170.84 142.925 168.547 142.631 165.64H151.351C151.591 166.813 152.551 167.4 154.231 167.4C155.271 167.4 156.085 167.133 156.671 166.6C157.258 166.067 157.551 165.067 157.551 163.6V160.92C156.991 161.96 156.178 162.787 155.111 163.4C154.045 163.987 152.778 164.28 151.311 164.28C149.551 164.28 147.965 163.827 146.551 162.92C145.138 161.987 144.018 160.653 143.191 158.92C142.391 157.16 141.991 155.093 141.991 152.72C141.991 150.347 142.391 148.293 143.191 146.56C144.018 144.8 145.138 143.467 146.551 142.56C147.965 141.627 149.551 141.16 151.311 141.16ZM157.551 152.72C157.551 151.52 157.245 150.587 156.631 149.92C156.018 149.253 155.231 148.92 154.271 148.92C153.311 148.92 152.525 149.253 151.911 149.92C151.298 150.587 150.991 151.52 150.991 152.72C150.991 153.92 151.298 154.853 151.911 155.52C152.525 156.187 153.311 156.52 154.271 156.52C155.231 156.52 156.018 156.187 156.631 155.52C157.245 154.853 157.551 153.92 157.551 152.72ZM169.179 152.72C169.179 150.347 169.579 148.293 170.379 146.56C171.206 144.8 172.326 143.467 173.739 142.56C175.152 141.627 176.739 141.16 178.499 141.16C179.966 141.16 181.232 141.467 182.299 142.08C183.366 142.667 184.179 143.48 184.739 144.52V141.44H193.579V164H184.739V160.92C184.179 161.96 183.366 162.787 182.299 163.4C181.232 163.987 179.966 164.28 178.499 164.28C176.739 164.28 175.152 163.827 173.739 162.92C172.326 161.987 171.206 160.653 170.379 158.92C169.579 157.16 169.179 155.093 169.179 152.72ZM184.739 152.72C184.739 151.52 184.432 150.587 183.819 149.92C183.206 149.253 182.419 148.92 181.459 148.92C180.499 148.92 179.712 149.253 179.099 149.92C178.486 150.587 178.179 151.52 178.179 152.72C178.179 153.92 178.486 154.853 179.099 155.52C179.712 156.187 180.499 156.52 181.459 156.52C182.419 156.52 183.206 156.187 183.819 155.52C184.432 154.853 184.739 153.92 184.739 152.72ZM202.046 139.64C200.5 139.64 199.26 139.227 198.326 138.4C197.393 137.573 196.926 136.533 196.926 135.28C196.926 134 197.393 132.947 198.326 132.12C199.26 131.267 200.5 130.84 202.046 130.84C203.566 130.84 204.793 131.267 205.726 132.12C206.66 132.947 207.126 134 207.126 135.28C207.126 136.533 206.66 137.573 205.726 138.4C204.793 139.227 203.566 139.64 202.046 139.64ZM206.446 141.44V164H197.566V141.44H206.446ZM226.134 135.68V164H217.254V135.68H226.134ZM239.025 144.52C239.585 143.48 240.385 142.667 241.425 142.08C242.491 141.467 243.758 141.16 245.225 141.16C246.985 141.16 248.571 141.627 249.985 142.56C251.398 143.467 252.505 144.8 253.305 146.56C254.131 148.293 254.545 150.347 254.545 152.72C254.545 155.093 254.131 157.16 253.305 158.92C252.505 160.653 251.398 161.987 249.985 162.92C248.571 163.827 246.985 164.28 245.225 164.28C243.758 164.28 242.491 163.987 241.425 163.4C240.385 162.787 239.585 161.96 239.025 160.92V164H230.145V134.4H239.025V144.52ZM245.545 152.72C245.545 151.52 245.238 150.587 244.625 149.92C244.011 149.253 243.225 148.92 242.265 148.92C241.305 148.92 240.518 149.253 239.905 149.92C239.291 150.587 238.985 151.52 238.985 152.72C238.985 153.92 239.291 154.853 239.905 155.52C240.518 156.187 241.305 156.52 242.265 156.52C243.225 156.52 244.011 156.187 244.625 155.52C245.238 154.853 245.545 153.92 245.545 152.72ZM281.212 141.44V164H272.332V160.56C271.639 161.627 270.705 162.493 269.532 163.16C268.385 163.827 267.012 164.16 265.412 164.16C262.825 164.16 260.799 163.293 259.332 161.56C257.892 159.827 257.172 157.48 257.172 154.52V141.44H266.012V153.4C266.012 154.467 266.292 155.32 266.852 155.96C267.439 156.573 268.212 156.88 269.172 156.88C270.159 156.88 270.932 156.573 271.492 155.96C272.052 155.32 272.332 154.467 272.332 153.4V141.44H281.212ZM306.26 164L300.94 153.84H300.9V164H292.02V135.68H305.22C307.513 135.68 309.473 136.093 311.1 136.92C312.726 137.72 313.94 138.827 314.74 140.24C315.566 141.627 315.98 143.2 315.98 144.96C315.98 146.853 315.446 148.533 314.38 150C313.34 151.467 311.833 152.52 309.86 153.16L316.02 164H306.26ZM300.9 147.92H304.42C305.273 147.92 305.913 147.733 306.34 147.36C306.766 146.96 306.98 146.347 306.98 145.52C306.98 144.773 306.753 144.187 306.3 143.76C305.873 143.333 305.246 143.12 304.42 143.12H300.9V147.92ZM342.696 141.44V164H333.816V160.56C333.123 161.627 332.19 162.493 331.016 163.16C329.87 163.827 328.496 164.16 326.896 164.16C324.31 164.16 322.283 163.293 320.816 161.56C319.376 159.827 318.656 157.48 318.656 154.52V141.44H327.496V153.4C327.496 154.467 327.776 155.32 328.336 155.96C328.923 156.573 329.696 156.88 330.656 156.88C331.643 156.88 332.416 156.573 332.976 155.96C333.536 155.32 333.816 154.467 333.816 153.4V141.44H342.696ZM376.827 141.28C379.707 141.28 381.934 142.147 383.507 143.88C385.107 145.613 385.907 147.96 385.907 150.92V164H377.067V152.04C377.067 151.08 376.774 150.333 376.187 149.8C375.627 149.24 374.867 148.96 373.907 148.96C372.92 148.96 372.147 149.24 371.587 149.8C371.027 150.333 370.747 151.08 370.747 152.04V164H361.907V152.04C361.907 151.08 361.614 150.333 361.027 149.8C360.467 149.24 359.707 148.96 358.747 148.96C357.76 148.96 356.987 149.24 356.427 149.8C355.867 150.333 355.587 151.08 355.587 152.04V164H346.707V141.44H355.587V144.48C356.227 143.52 357.094 142.747 358.187 142.16C359.307 141.573 360.614 141.28 362.107 141.28C363.734 141.28 365.174 141.64 366.427 142.36C367.68 143.053 368.68 144.04 369.427 145.32C370.254 144.147 371.307 143.187 372.587 142.44C373.867 141.667 375.28 141.28 376.827 141.28ZM388.554 152.72C388.554 150.347 388.954 148.293 389.754 146.56C390.581 144.8 391.701 143.467 393.114 142.56C394.527 141.627 396.114 141.16 397.874 141.16C399.341 141.16 400.607 141.467 401.674 142.08C402.741 142.667 403.554 143.48 404.114 144.52V141.44H412.954V164H404.114V160.92C403.554 161.96 402.741 162.787 401.674 163.4C400.607 163.987 399.341 164.28 397.874 164.28C396.114 164.28 394.527 163.827 393.114 162.92C391.701 161.987 390.581 160.653 389.754 158.92C388.954 157.16 388.554 155.093 388.554 152.72ZM404.114 152.72C404.114 151.52 403.807 150.587 403.194 149.92C402.581 149.253 401.794 148.92 400.834 148.92C399.874 148.92 399.087 149.253 398.474 149.92C397.861 150.587 397.554 151.52 397.554 152.72C397.554 153.92 397.861 154.853 398.474 155.52C399.087 156.187 399.874 156.52 400.834 156.52C401.794 156.52 402.581 156.187 403.194 155.52C403.807 154.853 404.114 153.92 404.114 152.72ZM432.741 141.28C435.328 141.28 437.341 142.147 438.781 143.88C440.248 145.613 440.981 147.96 440.981 150.92V164H432.141V152.04C432.141 150.973 431.848 150.133 431.261 149.52C430.701 148.88 429.941 148.56 428.981 148.56C427.995 148.56 427.221 148.88 426.661 149.52C426.101 150.133 425.821 150.973 425.821 152.04V164H416.941V134.4H425.821V144.88C426.515 143.813 427.435 142.947 428.581 142.28C429.755 141.613 431.141 141.28 432.741 141.28ZM183.595 195.68V202.72H176.075V224H167.195V202.72H159.755V195.68H183.595ZM184.804 212.72C184.804 210.347 185.204 208.293 186.004 206.56C186.831 204.8 187.951 203.467 189.364 202.56C190.777 201.627 192.364 201.16 194.124 201.16C195.591 201.16 196.857 201.467 197.924 202.08C198.991 202.667 199.804 203.48 200.364 204.52V201.44H209.204V224H200.364V220.92C199.804 221.96 198.991 222.787 197.924 223.4C196.857 223.987 195.591 224.28 194.124 224.28C192.364 224.28 190.777 223.827 189.364 222.92C187.951 221.987 186.831 220.653 186.004 218.92C185.204 217.16 184.804 215.093 184.804 212.72ZM200.364 212.72C200.364 211.52 200.057 210.587 199.444 209.92C198.831 209.253 198.044 208.92 197.084 208.92C196.124 208.92 195.337 209.253 194.724 209.92C194.111 210.587 193.804 211.52 193.804 212.72C193.804 213.92 194.111 214.853 194.724 215.52C195.337 216.187 196.124 216.52 197.084 216.52C198.044 216.52 198.831 216.187 199.444 215.52C200.057 214.853 200.364 213.92 200.364 212.72ZM228.991 201.28C231.578 201.28 233.591 202.147 235.031 203.88C236.498 205.613 237.231 207.96 237.231 210.92V224H228.391V212.04C228.391 210.973 228.098 210.133 227.511 209.52C226.951 208.88 226.191 208.56 225.231 208.56C224.245 208.56 223.471 208.88 222.911 209.52C222.351 210.133 222.071 210.973 222.071 212.04V224H213.191V201.44H222.071V204.88C222.765 203.813 223.685 202.947 224.831 202.28C226.005 201.613 227.391 201.28 228.991 201.28ZM249.202 201.16C250.669 201.16 251.935 201.467 253.002 202.08C254.069 202.667 254.882 203.48 255.442 204.52V201.44H264.282V223.6C264.282 225.707 263.895 227.627 263.122 229.36C262.349 231.093 261.095 232.48 259.362 233.52C257.655 234.56 255.455 235.08 252.762 235.08C249.135 235.08 246.255 234.227 244.122 232.52C242.015 230.84 240.815 228.547 240.522 225.64H249.242C249.482 226.813 250.442 227.4 252.122 227.4C253.162 227.4 253.975 227.133 254.562 226.6C255.149 226.067 255.442 225.067 255.442 223.6V220.92C254.882 221.96 254.069 222.787 253.002 223.4C251.935 223.987 250.669 224.28 249.202 224.28C247.442 224.28 245.855 223.827 244.442 222.92C243.029 221.987 241.909 220.653 241.082 218.92C240.282 217.16 239.882 215.093 239.882 212.72C239.882 210.347 240.282 208.293 241.082 206.56C241.909 204.8 243.029 203.467 244.442 202.56C245.855 201.627 247.442 201.16 249.202 201.16ZM255.442 212.72C255.442 211.52 255.135 210.587 254.522 209.92C253.909 209.253 253.122 208.92 252.162 208.92C251.202 208.92 250.415 209.253 249.802 209.92C249.189 210.587 248.882 211.52 248.882 212.72C248.882 213.92 249.189 214.853 249.802 215.52C250.415 216.187 251.202 216.52 252.162 216.52C253.122 216.52 253.909 216.187 254.522 215.52C255.135 214.853 255.442 213.92 255.442 212.72ZM276.39 201.16C277.856 201.16 279.123 201.467 280.19 202.08C281.256 202.667 282.07 203.48 282.63 204.52V201.44H291.47V223.6C291.47 225.707 291.083 227.627 290.31 229.36C289.536 231.093 288.283 232.48 286.55 233.52C284.843 234.56 282.643 235.08 279.95 235.08C276.323 235.08 273.443 234.227 271.31 232.52C269.203 230.84 268.003 228.547 267.71 225.64H276.43C276.67 226.813 277.63 227.4 279.31 227.4C280.35 227.4 281.163 227.133 281.75 226.6C282.336 226.067 282.63 225.067 282.63 223.6V220.92C282.07 221.96 281.256 222.787 280.19 223.4C279.123 223.987 277.856 224.28 276.39 224.28C274.63 224.28 273.043 223.827 271.63 222.92C270.216 221.987 269.096 220.653 268.27 218.92C267.47 217.16 267.07 215.093 267.07 212.72C267.07 210.347 267.47 208.293 268.27 206.56C269.096 204.8 270.216 203.467 271.63 202.56C273.043 201.627 274.63 201.16 276.39 201.16ZM282.63 212.72C282.63 211.52 282.323 210.587 281.71 209.92C281.096 209.253 280.31 208.92 279.35 208.92C278.39 208.92 277.603 209.253 276.99 209.92C276.376 210.587 276.07 211.52 276.07 212.72C276.07 213.92 276.376 214.853 276.99 215.52C277.603 216.187 278.39 216.52 279.35 216.52C280.31 216.52 281.096 216.187 281.71 215.52C282.323 214.853 282.63 213.92 282.63 212.72ZM294.257 212.72C294.257 210.347 294.657 208.293 295.457 206.56C296.284 204.8 297.404 203.467 298.817 202.56C300.23 201.627 301.817 201.16 303.577 201.16C305.044 201.16 306.31 201.467 307.377 202.08C308.444 202.667 309.257 203.48 309.817 204.52V201.44H318.657V224H309.817V220.92C309.257 221.96 308.444 222.787 307.377 223.4C306.31 223.987 305.044 224.28 303.577 224.28C301.817 224.28 300.23 223.827 298.817 222.92C297.404 221.987 296.284 220.653 295.457 218.92C294.657 217.16 294.257 215.093 294.257 212.72ZM309.817 212.72C309.817 211.52 309.51 210.587 308.897 209.92C308.284 209.253 307.497 208.92 306.537 208.92C305.577 208.92 304.79 209.253 304.177 209.92C303.564 210.587 303.257 211.52 303.257 212.72C303.257 213.92 303.564 214.853 304.177 215.52C304.79 216.187 305.577 216.52 306.537 216.52C307.497 216.52 308.284 216.187 308.897 215.52C309.51 214.853 309.817 213.92 309.817 212.72Z" fill="white"/>
<defs>
<filter id="filter0_df_1166_3" x="10.1836" y="4.3999" width="459.782" height="240.68" filterUnits="userSpaceOnUse" color-interpolation-filters="sRGB">
<feFlood flood-opacity="0" result="BackgroundImageFix"/>
<feColorMatrix in="SourceAlpha" type="matrix" values="0 0 0 0 0 0 0 0 0 0 0 0 0 0 0 0 0 0 127 0" result="hardAlpha"/>
<feOffset dy="4"/>
<feGaussianBlur stdDeviation="2"/>
<feComposite in2="hardAlpha" operator="out"/>
<feColorMatrix type="matrix" values="0 0 0 0 0 0 0 0 0 0.191489 0 0 0 0 1 0 0 0 1 0"/>
<feBlend mode="normal" in2="BackgroundImageFix" result="effect1_dropShadow_1166_3"/>
<feBlend mode="normal" in="SourceGraphic" in2="effect1_dropShadow_1166_3" result="shape"/>
<feGaussianBlur stdDeviation="5" result="effect2_foregroundBlur_1166_3"/>
</filter>
</defs>
</svg>
