<svg width="345" height="216" viewBox="0 0 345 216" fill="none" xmlns="http://www.w3.org/2000/svg">
<g filter="url(#filter0_df_1167_4)">
<path d="M54.4029 30.68C54.4029 32.824 53.9069 34.776 52.9149 36.536C51.9229 38.264 50.4509 39.64 48.4989 40.664C46.5789 41.688 44.2429 42.2 41.4909 42.2H37.2669V53H26.6109V19.016H41.4909C45.6509 19.016 48.8349 20.072 51.0429 22.184C53.2829 24.296 54.4029 27.128 54.4029 30.68ZM40.2909 33.8C42.4989 33.8 43.6029 32.76 43.6029 30.68C43.6029 28.6 42.4989 27.56 40.2909 27.56H37.2669V33.8H40.2909ZM83.9908 39.224C83.9908 39.96 83.9428 40.664 83.8468 41.336H66.7108C66.8708 43.672 67.8468 44.84 69.6388 44.84C70.7908 44.84 71.6228 44.312 72.1348 43.256H83.4148C83.0308 45.176 82.2148 46.904 80.9668 48.44C79.7508 49.944 78.1988 51.144 76.3108 52.04C74.4548 52.904 72.4068 53.336 70.1668 53.336C67.4788 53.336 65.0788 52.776 62.9668 51.656C60.8868 50.536 59.2548 48.936 58.0708 46.856C56.9188 44.744 56.3428 42.28 56.3428 39.464C56.3428 36.648 56.9188 34.2 58.0708 32.12C59.2548 30.008 60.8868 28.392 62.9668 27.272C65.0788 26.152 67.4788 25.592 70.1668 25.592C72.8548 25.592 75.2388 26.152 77.3188 27.272C79.4308 28.36 81.0628 29.928 82.2148 31.976C83.3988 34.024 83.9908 36.44 83.9908 39.224ZM73.1908 36.68C73.1908 35.784 72.9028 35.112 72.3268 34.664C71.7508 34.184 71.0308 33.944 70.1668 33.944C68.2788 33.944 67.1748 34.856 66.8548 36.68H73.1908ZM98.0169 30.92C99.1049 29.352 100.433 28.104 102.001 27.176C103.569 26.216 105.201 25.736 106.897 25.736V37.112H103.873C101.857 37.112 100.369 37.464 99.4089 38.168C98.4809 38.872 98.0169 40.12 98.0169 41.912V53H87.3609V25.928H98.0169V30.92ZM135.975 39.224C135.975 39.96 135.927 40.664 135.831 41.336H118.695C118.855 43.672 119.831 44.84 121.623 44.84C122.775 44.84 123.607 44.312 124.119 43.256H135.399C135.015 45.176 134.199 46.904 132.951 48.44C131.735 49.944 130.183 51.144 128.295 52.04C126.439 52.904 124.391 53.336 122.151 53.336C119.463 53.336 117.063 52.776 114.951 51.656C112.871 50.536 111.239 48.936 110.055 46.856C108.903 44.744 108.327 42.28 108.327 39.464C108.327 36.648 108.903 34.2 110.055 32.12C111.239 30.008 112.871 28.392 114.951 27.272C117.063 26.152 119.463 25.592 122.151 25.592C124.839 25.592 127.223 26.152 129.303 27.272C131.415 28.36 133.047 29.928 134.199 31.976C135.383 34.024 135.975 36.44 135.975 39.224ZM125.175 36.68C125.175 35.784 124.887 35.112 124.311 34.664C123.735 34.184 123.015 33.944 122.151 33.944C120.263 33.944 119.159 34.856 118.839 36.68H125.175ZM175.489 25.736C178.945 25.736 181.617 26.776 183.505 28.856C185.425 30.936 186.385 33.752 186.385 37.304V53H175.777V38.648C175.777 37.496 175.425 36.6 174.721 35.96C174.049 35.288 173.137 34.952 171.985 34.952C170.801 34.952 169.873 35.288 169.201 35.96C168.529 36.6 168.193 37.496 168.193 38.648V53H157.585V38.648C157.585 37.496 157.233 36.6 156.529 35.96C155.857 35.288 154.945 34.952 153.793 34.952C152.609 34.952 151.681 35.288 151.009 35.96C150.337 36.6 150.001 37.496 150.001 38.648V53H139.345V25.928H150.001V29.576C150.769 28.424 151.809 27.496 153.121 26.792C154.465 26.088 156.033 25.736 157.825 25.736C159.777 25.736 161.505 26.168 163.009 27.032C164.513 27.864 165.713 29.048 166.609 30.584C167.601 29.176 168.865 28.024 170.401 27.128C171.937 26.2 173.633 25.736 175.489 25.736ZM201.658 29.624C202.33 28.376 203.29 27.4 204.538 26.696C205.818 25.96 207.338 25.592 209.098 25.592C211.21 25.592 213.114 26.152 214.81 27.272C216.506 28.36 217.834 29.96 218.794 32.072C219.786 34.152 220.282 36.616 220.282 39.464C220.282 42.312 219.786 44.792 218.794 46.904C217.834 48.984 216.506 50.584 214.81 51.704C213.114 52.792 211.21 53.336 209.098 53.336C207.338 53.336 205.818 52.984 204.538 52.28C203.29 51.544 202.33 50.552 201.658 49.304V65.96H191.002V25.928H201.658V29.624ZM209.482 39.464C209.482 38.024 209.114 36.904 208.378 36.104C207.642 35.304 206.698 34.904 205.546 34.904C204.394 34.904 203.45 35.304 202.714 36.104C201.978 36.904 201.61 38.024 201.61 39.464C201.61 40.904 201.978 42.024 202.714 42.824C203.45 43.624 204.394 44.024 205.546 44.024C206.698 44.024 207.642 43.624 208.378 42.824C209.114 42.024 209.482 40.904 209.482 39.464ZM252.283 25.928V53H241.627V48.872C240.795 50.152 239.675 51.192 238.267 51.992C236.891 52.792 235.243 53.192 233.323 53.192C230.219 53.192 227.787 52.152 226.027 50.072C224.299 47.992 223.435 45.176 223.435 41.624V25.928H234.043V40.28C234.043 41.56 234.379 42.584 235.051 43.352C235.755 44.088 236.683 44.456 237.835 44.456C239.019 44.456 239.947 44.088 240.619 43.352C241.291 42.584 241.627 41.56 241.627 40.28V25.928H252.283ZM255.655 39.464C255.655 36.616 256.135 34.152 257.095 32.072C258.087 29.96 259.431 28.36 261.127 27.272C262.823 26.152 264.727 25.592 266.839 25.592C268.599 25.592 270.119 25.96 271.399 26.696C272.679 27.4 273.655 28.376 274.327 29.624V25.928H284.935V53H274.327V49.304C273.655 50.552 272.679 51.544 271.399 52.28C270.119 52.984 268.599 53.336 266.839 53.336C264.727 53.336 262.823 52.792 261.127 51.704C259.431 50.584 258.087 48.984 257.095 46.904C256.135 44.792 255.655 42.312 255.655 39.464ZM274.327 39.464C274.327 38.024 273.959 36.904 273.223 36.104C272.487 35.304 271.543 34.904 270.391 34.904C269.239 34.904 268.295 35.304 267.559 36.104C266.823 36.904 266.455 38.024 266.455 39.464C266.455 40.904 266.823 42.024 267.559 42.824C268.295 43.624 269.239 44.024 270.391 44.024C271.543 44.024 272.487 43.624 273.223 42.824C273.959 42.024 274.327 40.904 274.327 39.464ZM308.68 25.736C311.784 25.736 314.2 26.776 315.928 28.856C317.688 30.936 318.568 33.752 318.568 37.304V53H307.96V38.648C307.96 37.368 307.608 36.36 306.904 35.624C306.232 34.856 305.32 34.472 304.168 34.472C302.984 34.472 302.056 34.856 301.384 35.624C300.712 36.36 300.376 37.368 300.376 38.648V53H289.72V25.928H300.376V30.056C301.208 28.776 302.312 27.736 303.688 26.936C305.096 26.136 306.76 25.736 308.68 25.736ZM71.6447 91.016V125H60.9887V111.752H50.8607V125H40.2047V91.016H50.8607V103.256H60.9887V91.016H71.6447ZM74.9991 111.464C74.9991 108.616 75.4791 106.152 76.4391 104.072C77.4311 101.96 78.7751 100.36 80.4711 99.272C82.1671 98.152 84.0711 97.592 86.1831 97.592C87.9431 97.592 89.4631 97.96 90.7431 98.696C92.0231 99.4 92.9991 100.376 93.6711 101.624V97.928H104.279V125H93.6711V121.304C92.9991 122.552 92.0231 123.544 90.7431 124.28C89.4631 124.984 87.9431 125.336 86.1831 125.336C84.0711 125.336 82.1671 124.792 80.4711 123.704C78.7751 122.584 77.4311 120.984 76.4391 118.904C75.4791 116.792 74.9991 114.312 74.9991 111.464ZM93.6711 111.464C93.6711 110.024 93.3031 108.904 92.5671 108.104C91.8311 107.304 90.8871 106.904 89.7351 106.904C88.5831 106.904 87.6391 107.304 86.9031 108.104C86.1671 108.904 85.7991 110.024 85.7991 111.464C85.7991 112.904 86.1671 114.024 86.9031 114.824C87.6391 115.624 88.5831 116.024 89.7351 116.024C90.8871 116.024 91.8311 115.624 92.5671 114.824C93.3031 114.024 93.6711 112.904 93.6711 111.464ZM119.72 102.92C120.808 101.352 122.136 100.104 123.704 99.176C125.272 98.216 126.904 97.736 128.6 97.736V109.112H125.576C123.56 109.112 122.072 109.464 121.112 110.168C120.184 110.872 119.72 112.12 119.72 113.912V125H109.064V97.928H119.72V102.92ZM160.126 97.928V125H149.47V120.872C148.638 122.152 147.518 123.192 146.11 123.992C144.734 124.792 143.086 125.192 141.166 125.192C138.062 125.192 135.63 124.152 133.87 122.072C132.142 119.992 131.278 117.176 131.278 113.624V97.928H141.886V112.28C141.886 113.56 142.222 114.584 142.894 115.352C143.598 116.088 144.526 116.456 145.678 116.456C146.862 116.456 147.79 116.088 148.462 115.352C149.134 114.584 149.47 113.56 149.47 112.28V97.928H160.126ZM176.987 125.336C174.427 125.336 172.155 124.92 170.171 124.088C168.219 123.256 166.667 122.104 165.515 120.632C164.363 119.16 163.707 117.496 163.547 115.64H173.771C173.899 116.44 174.235 117.032 174.779 117.416C175.355 117.8 176.075 117.992 176.939 117.992C177.483 117.992 177.915 117.88 178.235 117.656C178.555 117.4 178.715 117.096 178.715 116.744C178.715 116.136 178.379 115.704 177.707 115.448C177.035 115.192 175.899 114.904 174.299 114.584C172.347 114.2 170.731 113.784 169.451 113.336C168.203 112.888 167.099 112.12 166.139 111.032C165.211 109.944 164.747 108.44 164.747 106.52C164.747 104.856 165.179 103.352 166.043 102.008C166.939 100.632 168.251 99.56 169.979 98.792C171.707 97.992 173.803 97.592 176.267 97.592C179.915 97.592 182.763 98.488 184.811 100.28C186.891 102.072 188.139 104.408 188.555 107.288H179.099C178.939 106.552 178.603 105.992 178.091 105.608C177.579 105.192 176.891 104.984 176.027 104.984C175.483 104.984 175.067 105.096 174.779 105.32C174.491 105.512 174.347 105.816 174.347 106.232C174.347 106.776 174.683 107.192 175.355 107.48C176.027 107.736 177.099 108.008 178.571 108.296C180.523 108.68 182.171 109.112 183.515 109.592C184.859 110.072 186.027 110.904 187.019 112.088C188.011 113.24 188.507 114.84 188.507 116.888C188.507 118.488 188.043 119.928 187.115 121.208C186.187 122.488 184.843 123.496 183.083 124.232C181.355 124.968 179.323 125.336 176.987 125.336ZM223.644 107.576C225.692 108.056 227.276 109.048 228.396 110.552C229.548 112.024 230.124 113.736 230.124 115.688C230.124 118.664 229.132 120.968 227.148 122.6C225.196 124.2 222.38 125 218.7 125H200.892V91.016H218.22C221.676 91.016 224.396 91.768 226.38 93.272C228.364 94.776 229.356 96.968 229.356 99.848C229.356 101.832 228.828 103.512 227.772 104.888C226.748 106.232 225.372 107.128 223.644 107.576ZM211.548 104.264H215.676C216.636 104.264 217.34 104.072 217.788 103.688C218.268 103.304 218.508 102.712 218.508 101.912C218.508 101.08 218.268 100.472 217.788 100.088C217.34 99.672 216.636 99.464 215.676 99.464H211.548V104.264ZM216.396 116.456C217.356 116.456 218.06 116.28 218.508 115.928C218.988 115.544 219.228 114.936 219.228 114.104C219.228 112.472 218.284 111.656 216.396 111.656H211.548V116.456H216.396ZM239.081 95.768C237.225 95.768 235.737 95.272 234.617 94.28C233.497 93.288 232.937 92.04 232.937 90.536C232.937 89 233.497 87.736 234.617 86.744C235.737 85.72 237.225 85.208 239.081 85.208C240.905 85.208 242.377 85.72 243.497 86.744C244.617 87.736 245.177 89 245.177 90.536C245.177 92.04 244.617 93.288 243.497 94.28C242.377 95.272 240.905 95.768 239.081 95.768ZM244.361 97.928V125H233.705V97.928H244.361ZM261.221 125.336C258.661 125.336 256.389 124.92 254.405 124.088C252.453 123.256 250.901 122.104 249.749 120.632C248.597 119.16 247.941 117.496 247.781 115.64H258.005C258.133 116.44 258.469 117.032 259.013 117.416C259.589 117.8 260.309 117.992 261.173 117.992C261.717 117.992 262.149 117.88 262.469 117.656C262.789 117.4 262.949 117.096 262.949 116.744C262.949 116.136 262.613 115.704 261.941 115.448C261.269 115.192 260.133 114.904 258.533 114.584C256.581 114.2 254.965 113.784 253.685 113.336C252.437 112.888 251.333 112.12 250.373 111.032C249.445 109.944 248.981 108.44 248.981 106.52C248.981 104.856 249.413 103.352 250.277 102.008C251.173 100.632 252.485 99.56 254.213 98.792C255.941 97.992 258.037 97.592 260.501 97.592C264.149 97.592 266.997 98.488 269.045 100.28C271.125 102.072 272.373 104.408 272.789 107.288H263.333C263.173 106.552 262.837 105.992 262.325 105.608C261.813 105.192 261.125 104.984 260.261 104.984C259.717 104.984 259.301 105.096 259.013 105.32C258.725 105.512 258.581 105.816 258.581 106.232C258.581 106.776 258.917 107.192 259.589 107.48C260.261 107.736 261.333 108.008 262.805 108.296C264.757 108.68 266.405 109.112 267.749 109.592C269.093 110.072 270.261 110.904 271.253 112.088C272.245 113.24 272.741 114.84 272.741 116.888C272.741 118.488 272.277 119.928 271.349 121.208C270.421 122.488 269.077 123.496 267.317 124.232C265.589 124.968 263.557 125.336 261.221 125.336ZM275.53 111.464C275.53 108.616 276.01 106.152 276.97 104.072C277.962 101.96 279.306 100.36 281.002 99.272C282.698 98.152 284.602 97.592 286.714 97.592C288.474 97.592 289.994 97.96 291.274 98.696C292.554 99.4 293.53 100.376 294.202 101.624V97.928H304.81V125H294.202V121.304C293.53 122.552 292.554 123.544 291.274 124.28C289.994 124.984 288.474 125.336 286.714 125.336C284.602 125.336 282.698 124.792 281.002 123.704C279.306 122.584 277.962 120.984 276.97 118.904C276.01 116.792 275.53 114.312 275.53 111.464ZM294.202 111.464C294.202 110.024 293.834 108.904 293.098 108.104C292.362 107.304 291.418 106.904 290.266 106.904C289.114 106.904 288.17 107.304 287.434 108.104C286.698 108.904 286.33 110.024 286.33 111.464C286.33 112.904 286.698 114.024 287.434 114.824C288.17 115.624 289.114 116.024 290.266 116.024C291.418 116.024 292.362 115.624 293.098 114.824C293.834 114.024 294.202 112.904 294.202 111.464ZM89.5605 163.016V197H78.9525V180.056L73.7205 197H64.6005L59.3685 180.056V197H48.7125V163.016H61.7685L69.2565 183.416L76.5525 163.016H89.5605ZM120.577 183.224C120.577 183.96 120.529 184.664 120.433 185.336H103.297C103.457 187.672 104.433 188.84 106.225 188.84C107.377 188.84 108.209 188.312 108.721 187.256H120.001C119.617 189.176 118.801 190.904 117.553 192.44C116.337 193.944 114.785 195.144 112.897 196.04C111.041 196.904 108.993 197.336 106.753 197.336C104.065 197.336 101.665 196.776 99.5528 195.656C97.4728 194.536 95.8408 192.936 94.6568 190.856C93.5048 188.744 92.9288 186.28 92.9288 183.464C92.9288 180.648 93.5048 178.2 94.6568 176.12C95.8408 174.008 97.4728 172.392 99.5528 171.272C101.665 170.152 104.065 169.592 106.753 169.592C109.441 169.592 111.825 170.152 113.905 171.272C116.017 172.36 117.649 173.928 118.801 175.976C119.985 178.024 120.577 180.44 120.577 183.224ZM109.777 180.68C109.777 179.784 109.489 179.112 108.913 178.664C108.337 178.184 107.617 177.944 106.753 177.944C104.865 177.944 103.761 178.856 103.441 180.68H109.777ZM160.091 169.736C163.547 169.736 166.219 170.776 168.107 172.856C170.027 174.936 170.987 177.752 170.987 181.304V197H160.379V182.648C160.379 181.496 160.027 180.6 159.323 179.96C158.651 179.288 157.739 178.952 156.587 178.952C155.403 178.952 154.475 179.288 153.803 179.96C153.131 180.6 152.795 181.496 152.795 182.648V197H142.187V182.648C142.187 181.496 141.835 180.6 141.131 179.96C140.459 179.288 139.547 178.952 138.395 178.952C137.211 178.952 136.283 179.288 135.611 179.96C134.939 180.6 134.603 181.496 134.603 182.648V197H123.947V169.928H134.603V173.576C135.371 172.424 136.411 171.496 137.723 170.792C139.067 170.088 140.635 169.736 142.427 169.736C144.379 169.736 146.107 170.168 147.611 171.032C149.115 171.864 150.315 173.048 151.211 174.584C152.203 173.176 153.467 172.024 155.003 171.128C156.539 170.2 158.235 169.736 160.091 169.736ZM174.163 183.464C174.163 180.616 174.643 178.152 175.603 176.072C176.595 173.96 177.939 172.36 179.635 171.272C181.331 170.152 183.235 169.592 185.347 169.592C187.107 169.592 188.627 169.96 189.907 170.696C191.187 171.4 192.163 172.376 192.835 173.624V169.928H203.443V197H192.835V193.304C192.163 194.552 191.187 195.544 189.907 196.28C188.627 196.984 187.107 197.336 185.347 197.336C183.235 197.336 181.331 196.792 179.635 195.704C177.939 194.584 176.595 192.984 175.603 190.904C174.643 188.792 174.163 186.312 174.163 183.464ZM192.835 183.464C192.835 182.024 192.467 180.904 191.731 180.104C190.995 179.304 190.051 178.904 188.899 178.904C187.747 178.904 186.803 179.304 186.067 180.104C185.331 180.904 184.963 182.024 184.963 183.464C184.963 184.904 185.331 186.024 186.067 186.824C186.803 187.624 187.747 188.024 188.899 188.024C190.051 188.024 190.995 187.624 191.731 186.824C192.467 186.024 192.835 184.904 192.835 183.464ZM220.276 197.336C217.716 197.336 215.444 196.92 213.46 196.088C211.508 195.256 209.956 194.104 208.804 192.632C207.652 191.16 206.996 189.496 206.836 187.64H217.06C217.188 188.44 217.524 189.032 218.068 189.416C218.644 189.8 219.364 189.992 220.228 189.992C220.772 189.992 221.204 189.88 221.524 189.656C221.844 189.4 222.004 189.096 222.004 188.744C222.004 188.136 221.668 187.704 220.996 187.448C220.324 187.192 219.188 186.904 217.588 186.584C215.636 186.2 214.02 185.784 212.74 185.336C211.492 184.888 210.388 184.12 209.428 183.032C208.5 181.944 208.036 180.44 208.036 178.52C208.036 176.856 208.468 175.352 209.332 174.008C210.228 172.632 211.54 171.56 213.268 170.792C214.996 169.992 217.092 169.592 219.556 169.592C223.204 169.592 226.052 170.488 228.1 172.28C230.18 174.072 231.428 176.408 231.844 179.288H222.388C222.228 178.552 221.892 177.992 221.38 177.608C220.868 177.192 220.18 176.984 219.316 176.984C218.772 176.984 218.356 177.096 218.068 177.32C217.78 177.512 217.636 177.816 217.636 178.232C217.636 178.776 217.972 179.192 218.644 179.48C219.316 179.736 220.388 180.008 221.86 180.296C223.812 180.68 225.46 181.112 226.804 181.592C228.148 182.072 229.316 182.904 230.308 184.088C231.3 185.24 231.796 186.84 231.796 188.888C231.796 190.488 231.332 191.928 230.404 193.208C229.476 194.488 228.132 195.496 226.372 196.232C224.644 196.968 222.612 197.336 220.276 197.336ZM234.585 183.464C234.585 180.616 235.065 178.152 236.025 176.072C237.017 173.96 238.361 172.36 240.057 171.272C241.753 170.152 243.657 169.592 245.769 169.592C247.529 169.592 249.049 169.96 250.329 170.696C251.609 171.4 252.585 172.376 253.257 173.624V169.928H263.865V197H253.257V193.304C252.585 194.552 251.609 195.544 250.329 196.28C249.049 196.984 247.529 197.336 245.769 197.336C243.657 197.336 241.753 196.792 240.057 195.704C238.361 194.584 237.017 192.984 236.025 190.904C235.065 188.792 234.585 186.312 234.585 183.464ZM253.257 183.464C253.257 182.024 252.889 180.904 252.153 180.104C251.417 179.304 250.473 178.904 249.321 178.904C248.169 178.904 247.225 179.304 246.489 180.104C245.753 180.904 245.385 182.024 245.385 183.464C245.385 184.904 245.753 186.024 246.489 186.824C247.225 187.624 248.169 188.024 249.321 188.024C250.473 188.024 251.417 187.624 252.153 186.824C252.889 186.024 253.257 184.904 253.257 183.464ZM285.978 197L279.306 186.2V197H268.65V161.48H279.306V180.056L286.074 169.928H298.458L288.33 183.56L298.698 197H285.978Z" fill="#FF006B"/>
</g>
<path d="M54.4029 30.68C54.4029 32.824 53.9069 34.776 52.9149 36.536C51.9229 38.264 50.4509 39.64 48.4989 40.664C46.5789 41.688 44.2429 42.2 41.4909 42.2H37.2669V53H26.6109V19.016H41.4909C45.6509 19.016 48.8349 20.072 51.0429 22.184C53.2829 24.296 54.4029 27.128 54.4029 30.68ZM40.2909 33.8C42.4989 33.8 43.6029 32.76 43.6029 30.68C43.6029 28.6 42.4989 27.56 40.2909 27.56H37.2669V33.8H40.2909ZM83.9908 39.224C83.9908 39.96 83.9428 40.664 83.8468 41.336H66.7108C66.8708 43.672 67.8468 44.84 69.6388 44.84C70.7908 44.84 71.6228 44.312 72.1348 43.256H83.4148C83.0308 45.176 82.2148 46.904 80.9668 48.44C79.7508 49.944 78.1988 51.144 76.3108 52.04C74.4548 52.904 72.4068 53.336 70.1668 53.336C67.4788 53.336 65.0788 52.776 62.9668 51.656C60.8868 50.536 59.2548 48.936 58.0708 46.856C56.9188 44.744 56.3428 42.28 56.3428 39.464C56.3428 36.648 56.9188 34.2 58.0708 32.12C59.2548 30.008 60.8868 28.392 62.9668 27.272C65.0788 26.152 67.4788 25.592 70.1668 25.592C72.8548 25.592 75.2388 26.152 77.3188 27.272C79.4308 28.36 81.0628 29.928 82.2148 31.976C83.3988 34.024 83.9908 36.44 83.9908 39.224ZM73.1908 36.68C73.1908 35.784 72.9028 35.112 72.3268 34.664C71.7508 34.184 71.0308 33.944 70.1668 33.944C68.2788 33.944 67.1748 34.856 66.8548 36.68H73.1908ZM98.0169 30.92C99.1049 29.352 100.433 28.104 102.001 27.176C103.569 26.216 105.201 25.736 106.897 25.736V37.112H103.873C101.857 37.112 100.369 37.464 99.4089 38.168C98.4809 38.872 98.0169 40.12 98.0169 41.912V53H87.3609V25.928H98.0169V30.92ZM135.975 39.224C135.975 39.96 135.927 40.664 135.831 41.336H118.695C118.855 43.672 119.831 44.84 121.623 44.84C122.775 44.84 123.607 44.312 124.119 43.256H135.399C135.015 45.176 134.199 46.904 132.951 48.44C131.735 49.944 130.183 51.144 128.295 52.04C126.439 52.904 124.391 53.336 122.151 53.336C119.463 53.336 117.063 52.776 114.951 51.656C112.871 50.536 111.239 48.936 110.055 46.856C108.903 44.744 108.327 42.28 108.327 39.464C108.327 36.648 108.903 34.2 110.055 32.12C111.239 30.008 112.871 28.392 114.951 27.272C117.063 26.152 119.463 25.592 122.151 25.592C124.839 25.592 127.223 26.152 129.303 27.272C131.415 28.36 133.047 29.928 134.199 31.976C135.383 34.024 135.975 36.44 135.975 39.224ZM125.175 36.68C125.175 35.784 124.887 35.112 124.311 34.664C123.735 34.184 123.015 33.944 122.151 33.944C120.263 33.944 119.159 34.856 118.839 36.68H125.175ZM175.489 25.736C178.945 25.736 181.617 26.776 183.505 28.856C185.425 30.936 186.385 33.752 186.385 37.304V53H175.777V38.648C175.777 37.496 175.425 36.6 174.721 35.96C174.049 35.288 173.137 34.952 171.985 34.952C170.801 34.952 169.873 35.288 169.201 35.96C168.529 36.6 168.193 37.496 168.193 38.648V53H157.585V38.648C157.585 37.496 157.233 36.6 156.529 35.96C155.857 35.288 154.945 34.952 153.793 34.952C152.609 34.952 151.681 35.288 151.009 35.96C150.337 36.6 150.001 37.496 150.001 38.648V53H139.345V25.928H150.001V29.576C150.769 28.424 151.809 27.496 153.121 26.792C154.465 26.088 156.033 25.736 157.825 25.736C159.777 25.736 161.505 26.168 163.009 27.032C164.513 27.864 165.713 29.048 166.609 30.584C167.601 29.176 168.865 28.024 170.401 27.128C171.937 26.2 173.633 25.736 175.489 25.736ZM201.658 29.624C202.33 28.376 203.29 27.4 204.538 26.696C205.818 25.96 207.338 25.592 209.098 25.592C211.21 25.592 213.114 26.152 214.81 27.272C216.506 28.36 217.834 29.96 218.794 32.072C219.786 34.152 220.282 36.616 220.282 39.464C220.282 42.312 219.786 44.792 218.794 46.904C217.834 48.984 216.506 50.584 214.81 51.704C213.114 52.792 211.21 53.336 209.098 53.336C207.338 53.336 205.818 52.984 204.538 52.28C203.29 51.544 202.33 50.552 201.658 49.304V65.96H191.002V25.928H201.658V29.624ZM209.482 39.464C209.482 38.024 209.114 36.904 208.378 36.104C207.642 35.304 206.698 34.904 205.546 34.904C204.394 34.904 203.45 35.304 202.714 36.104C201.978 36.904 201.61 38.024 201.61 39.464C201.61 40.904 201.978 42.024 202.714 42.824C203.45 43.624 204.394 44.024 205.546 44.024C206.698 44.024 207.642 43.624 208.378 42.824C209.114 42.024 209.482 40.904 209.482 39.464ZM252.283 25.928V53H241.627V48.872C240.795 50.152 239.675 51.192 238.267 51.992C236.891 52.792 235.243 53.192 233.323 53.192C230.219 53.192 227.787 52.152 226.027 50.072C224.299 47.992 223.435 45.176 223.435 41.624V25.928H234.043V40.28C234.043 41.56 234.379 42.584 235.051 43.352C235.755 44.088 236.683 44.456 237.835 44.456C239.019 44.456 239.947 44.088 240.619 43.352C241.291 42.584 241.627 41.56 241.627 40.28V25.928H252.283ZM255.655 39.464C255.655 36.616 256.135 34.152 257.095 32.072C258.087 29.96 259.431 28.36 261.127 27.272C262.823 26.152 264.727 25.592 266.839 25.592C268.599 25.592 270.119 25.96 271.399 26.696C272.679 27.4 273.655 28.376 274.327 29.624V25.928H284.935V53H274.327V49.304C273.655 50.552 272.679 51.544 271.399 52.28C270.119 52.984 268.599 53.336 266.839 53.336C264.727 53.336 262.823 52.792 261.127 51.704C259.431 50.584 258.087 48.984 257.095 46.904C256.135 44.792 255.655 42.312 255.655 39.464ZM274.327 39.464C274.327 38.024 273.959 36.904 273.223 36.104C272.487 35.304 271.543 34.904 270.391 34.904C269.239 34.904 268.295 35.304 267.559 36.104C266.823 36.904 266.455 38.024 266.455 39.464C266.455 40.904 266.823 42.024 267.559 42.824C268.295 43.624 269.239 44.024 270.391 44.024C271.543 44.024 272.487 43.624 273.223 42.824C273.959 42.024 274.327 40.904 274.327 39.464ZM308.68 25.736C311.784 25.736 314.2 26.776 315.928 28.856C317.688 30.936 318.568 33.752 318.568 37.304V53H307.96V38.648C307.96 37.368 307.608 36.36 306.904 35.624C306.232 34.856 305.32 34.472 304.168 34.472C302.984 34.472 302.056 34.856 301.384 35.624C300.712 36.36 300.376 37.368 300.376 38.648V53H289.72V25.928H300.376V30.056C301.208 28.776 302.312 27.736 303.688 26.936C305.096 26.136 306.76 25.736 308.68 25.736ZM71.6447 91.016V125H60.9887V111.752H50.8607V125H40.2047V91.016H50.8607V103.256H60.9887V91.016H71.6447ZM74.9991 111.464C74.9991 108.616 75.4791 106.152 76.4391 104.072C77.4311 101.96 78.7751 100.36 80.4711 99.272C82.1671 98.152 84.0711 97.592 86.1831 97.592C87.9431 97.592 89.4631 97.96 90.7431 98.696C92.0231 99.4 92.9991 100.376 93.6711 101.624V97.928H104.279V125H93.6711V121.304C92.9991 122.552 92.0231 123.544 90.7431 124.28C89.4631 124.984 87.9431 125.336 86.1831 125.336C84.0711 125.336 82.1671 124.792 80.4711 123.704C78.7751 122.584 77.4311 120.984 76.4391 118.904C75.4791 116.792 74.9991 114.312 74.9991 111.464ZM93.6711 111.464C93.6711 110.024 93.3031 108.904 92.5671 108.104C91.8311 107.304 90.8871 106.904 89.7351 106.904C88.5831 106.904 87.6391 107.304 86.9031 108.104C86.1671 108.904 85.7991 110.024 85.7991 111.464C85.7991 112.904 86.1671 114.024 86.9031 114.824C87.6391 115.624 88.5831 116.024 89.7351 116.024C90.8871 116.024 91.8311 115.624 92.5671 114.824C93.3031 114.024 93.6711 112.904 93.6711 111.464ZM119.72 102.92C120.808 101.352 122.136 100.104 123.704 99.176C125.272 98.216 126.904 97.736 128.6 97.736V109.112H125.576C123.56 109.112 122.072 109.464 121.112 110.168C120.184 110.872 119.72 112.12 119.72 113.912V125H109.064V97.928H119.72V102.92ZM160.126 97.928V125H149.47V120.872C148.638 122.152 147.518 123.192 146.11 123.992C144.734 124.792 143.086 125.192 141.166 125.192C138.062 125.192 135.63 124.152 133.87 122.072C132.142 119.992 131.278 117.176 131.278 113.624V97.928H141.886V112.28C141.886 113.56 142.222 114.584 142.894 115.352C143.598 116.088 144.526 116.456 145.678 116.456C146.862 116.456 147.79 116.088 148.462 115.352C149.134 114.584 149.47 113.56 149.47 112.28V97.928H160.126ZM176.987 125.336C174.427 125.336 172.155 124.92 170.171 124.088C168.219 123.256 166.667 122.104 165.515 120.632C164.363 119.16 163.707 117.496 163.547 115.64H173.771C173.899 116.44 174.235 117.032 174.779 117.416C175.355 117.8 176.075 117.992 176.939 117.992C177.483 117.992 177.915 117.88 178.235 117.656C178.555 117.4 178.715 117.096 178.715 116.744C178.715 116.136 178.379 115.704 177.707 115.448C177.035 115.192 175.899 114.904 174.299 114.584C172.347 114.2 170.731 113.784 169.451 113.336C168.203 112.888 167.099 112.12 166.139 111.032C165.211 109.944 164.747 108.44 164.747 106.52C164.747 104.856 165.179 103.352 166.043 102.008C166.939 100.632 168.251 99.56 169.979 98.792C171.707 97.992 173.803 97.592 176.267 97.592C179.915 97.592 182.763 98.488 184.811 100.28C186.891 102.072 188.139 104.408 188.555 107.288H179.099C178.939 106.552 178.603 105.992 178.091 105.608C177.579 105.192 176.891 104.984 176.027 104.984C175.483 104.984 175.067 105.096 174.779 105.32C174.491 105.512 174.347 105.816 174.347 106.232C174.347 106.776 174.683 107.192 175.355 107.48C176.027 107.736 177.099 108.008 178.571 108.296C180.523 108.68 182.171 109.112 183.515 109.592C184.859 110.072 186.027 110.904 187.019 112.088C188.011 113.24 188.507 114.84 188.507 116.888C188.507 118.488 188.043 119.928 187.115 121.208C186.187 122.488 184.843 123.496 183.083 124.232C181.355 124.968 179.323 125.336 176.987 125.336ZM223.644 107.576C225.692 108.056 227.276 109.048 228.396 110.552C229.548 112.024 230.124 113.736 230.124 115.688C230.124 118.664 229.132 120.968 227.148 122.6C225.196 124.2 222.38 125 218.7 125H200.892V91.016H218.22C221.676 91.016 224.396 91.768 226.38 93.272C228.364 94.776 229.356 96.968 229.356 99.848C229.356 101.832 228.828 103.512 227.772 104.888C226.748 106.232 225.372 107.128 223.644 107.576ZM211.548 104.264H215.676C216.636 104.264 217.34 104.072 217.788 103.688C218.268 103.304 218.508 102.712 218.508 101.912C218.508 101.08 218.268 100.472 217.788 100.088C217.34 99.672 216.636 99.464 215.676 99.464H211.548V104.264ZM216.396 116.456C217.356 116.456 218.06 116.28 218.508 115.928C218.988 115.544 219.228 114.936 219.228 114.104C219.228 112.472 218.284 111.656 216.396 111.656H211.548V116.456H216.396ZM239.081 95.768C237.225 95.768 235.737 95.272 234.617 94.28C233.497 93.288 232.937 92.04 232.937 90.536C232.937 89 233.497 87.736 234.617 86.744C235.737 85.72 237.225 85.208 239.081 85.208C240.905 85.208 242.377 85.72 243.497 86.744C244.617 87.736 245.177 89 245.177 90.536C245.177 92.04 244.617 93.288 243.497 94.28C242.377 95.272 240.905 95.768 239.081 95.768ZM244.361 97.928V125H233.705V97.928H244.361ZM261.221 125.336C258.661 125.336 256.389 124.92 254.405 124.088C252.453 123.256 250.901 122.104 249.749 120.632C248.597 119.16 247.941 117.496 247.781 115.64H258.005C258.133 116.44 258.469 117.032 259.013 117.416C259.589 117.8 260.309 117.992 261.173 117.992C261.717 117.992 262.149 117.88 262.469 117.656C262.789 117.4 262.949 117.096 262.949 116.744C262.949 116.136 262.613 115.704 261.941 115.448C261.269 115.192 260.133 114.904 258.533 114.584C256.581 114.2 254.965 113.784 253.685 113.336C252.437 112.888 251.333 112.12 250.373 111.032C249.445 109.944 248.981 108.44 248.981 106.52C248.981 104.856 249.413 103.352 250.277 102.008C251.173 100.632 252.485 99.56 254.213 98.792C255.941 97.992 258.037 97.592 260.501 97.592C264.149 97.592 266.997 98.488 269.045 100.28C271.125 102.072 272.373 104.408 272.789 107.288H263.333C263.173 106.552 262.837 105.992 262.325 105.608C261.813 105.192 261.125 104.984 260.261 104.984C259.717 104.984 259.301 105.096 259.013 105.32C258.725 105.512 258.581 105.816 258.581 106.232C258.581 106.776 258.917 107.192 259.589 107.48C260.261 107.736 261.333 108.008 262.805 108.296C264.757 108.68 266.405 109.112 267.749 109.592C269.093 110.072 270.261 110.904 271.253 112.088C272.245 113.24 272.741 114.84 272.741 116.888C272.741 118.488 272.277 119.928 271.349 121.208C270.421 122.488 269.077 123.496 267.317 124.232C265.589 124.968 263.557 125.336 261.221 125.336ZM275.53 111.464C275.53 108.616 276.01 106.152 276.97 104.072C277.962 101.96 279.306 100.36 281.002 99.272C282.698 98.152 284.602 97.592 286.714 97.592C288.474 97.592 289.994 97.96 291.274 98.696C292.554 99.4 293.53 100.376 294.202 101.624V97.928H304.81V125H294.202V121.304C293.53 122.552 292.554 123.544 291.274 124.28C289.994 124.984 288.474 125.336 286.714 125.336C284.602 125.336 282.698 124.792 281.002 123.704C279.306 122.584 277.962 120.984 276.97 118.904C276.01 116.792 275.53 114.312 275.53 111.464ZM294.202 111.464C294.202 110.024 293.834 108.904 293.098 108.104C292.362 107.304 291.418 106.904 290.266 106.904C289.114 106.904 288.17 107.304 287.434 108.104C286.698 108.904 286.33 110.024 286.33 111.464C286.33 112.904 286.698 114.024 287.434 114.824C288.17 115.624 289.114 116.024 290.266 116.024C291.418 116.024 292.362 115.624 293.098 114.824C293.834 114.024 294.202 112.904 294.202 111.464ZM89.5605 163.016V197H78.9525V180.056L73.7205 197H64.6005L59.3685 180.056V197H48.7125V163.016H61.7685L69.2565 183.416L76.5525 163.016H89.5605ZM120.577 183.224C120.577 183.96 120.529 184.664 120.433 185.336H103.297C103.457 187.672 104.433 188.84 106.225 188.84C107.377 188.84 108.209 188.312 108.721 187.256H120.001C119.617 189.176 118.801 190.904 117.553 192.44C116.337 193.944 114.785 195.144 112.897 196.04C111.041 196.904 108.993 197.336 106.753 197.336C104.065 197.336 101.665 196.776 99.5528 195.656C97.4728 194.536 95.8408 192.936 94.6568 190.856C93.5048 188.744 92.9288 186.28 92.9288 183.464C92.9288 180.648 93.5048 178.2 94.6568 176.12C95.8408 174.008 97.4728 172.392 99.5528 171.272C101.665 170.152 104.065 169.592 106.753 169.592C109.441 169.592 111.825 170.152 113.905 171.272C116.017 172.36 117.649 173.928 118.801 175.976C119.985 178.024 120.577 180.44 120.577 183.224ZM109.777 180.68C109.777 179.784 109.489 179.112 108.913 178.664C108.337 178.184 107.617 177.944 106.753 177.944C104.865 177.944 103.761 178.856 103.441 180.68H109.777ZM160.091 169.736C163.547 169.736 166.219 170.776 168.107 172.856C170.027 174.936 170.987 177.752 170.987 181.304V197H160.379V182.648C160.379 181.496 160.027 180.6 159.323 179.96C158.651 179.288 157.739 178.952 156.587 178.952C155.403 178.952 154.475 179.288 153.803 179.96C153.131 180.6 152.795 181.496 152.795 182.648V197H142.187V182.648C142.187 181.496 141.835 180.6 141.131 179.96C140.459 179.288 139.547 178.952 138.395 178.952C137.211 178.952 136.283 179.288 135.611 179.96C134.939 180.6 134.603 181.496 134.603 182.648V197H123.947V169.928H134.603V173.576C135.371 172.424 136.411 171.496 137.723 170.792C139.067 170.088 140.635 169.736 142.427 169.736C144.379 169.736 146.107 170.168 147.611 171.032C149.115 171.864 150.315 173.048 151.211 174.584C152.203 173.176 153.467 172.024 155.003 171.128C156.539 170.2 158.235 169.736 160.091 169.736ZM174.163 183.464C174.163 180.616 174.643 178.152 175.603 176.072C176.595 173.96 177.939 172.36 179.635 171.272C181.331 170.152 183.235 169.592 185.347 169.592C187.107 169.592 188.627 169.96 189.907 170.696C191.187 171.4 192.163 172.376 192.835 173.624V169.928H203.443V197H192.835V193.304C192.163 194.552 191.187 195.544 189.907 196.28C188.627 196.984 187.107 197.336 185.347 197.336C183.235 197.336 181.331 196.792 179.635 195.704C177.939 194.584 176.595 192.984 175.603 190.904C174.643 188.792 174.163 186.312 174.163 183.464ZM192.835 183.464C192.835 182.024 192.467 180.904 191.731 180.104C190.995 179.304 190.051 178.904 188.899 178.904C187.747 178.904 186.803 179.304 186.067 180.104C185.331 180.904 184.963 182.024 184.963 183.464C184.963 184.904 185.331 186.024 186.067 186.824C186.803 187.624 187.747 188.024 188.899 188.024C190.051 188.024 190.995 187.624 191.731 186.824C192.467 186.024 192.835 184.904 192.835 183.464ZM220.276 197.336C217.716 197.336 215.444 196.92 213.46 196.088C211.508 195.256 209.956 194.104 208.804 192.632C207.652 191.16 206.996 189.496 206.836 187.64H217.06C217.188 188.44 217.524 189.032 218.068 189.416C218.644 189.8 219.364 189.992 220.228 189.992C220.772 189.992 221.204 189.88 221.524 189.656C221.844 189.4 222.004 189.096 222.004 188.744C222.004 188.136 221.668 187.704 220.996 187.448C220.324 187.192 219.188 186.904 217.588 186.584C215.636 186.2 214.02 185.784 212.74 185.336C211.492 184.888 210.388 184.12 209.428 183.032C208.5 181.944 208.036 180.44 208.036 178.52C208.036 176.856 208.468 175.352 209.332 174.008C210.228 172.632 211.54 171.56 213.268 170.792C214.996 169.992 217.092 169.592 219.556 169.592C223.204 169.592 226.052 170.488 228.1 172.28C230.18 174.072 231.428 176.408 231.844 179.288H222.388C222.228 178.552 221.892 177.992 221.38 177.608C220.868 177.192 220.18 176.984 219.316 176.984C218.772 176.984 218.356 177.096 218.068 177.32C217.78 177.512 217.636 177.816 217.636 178.232C217.636 178.776 217.972 179.192 218.644 179.48C219.316 179.736 220.388 180.008 221.86 180.296C223.812 180.68 225.46 181.112 226.804 181.592C228.148 182.072 229.316 182.904 230.308 184.088C231.3 185.24 231.796 186.84 231.796 188.888C231.796 190.488 231.332 191.928 230.404 193.208C229.476 194.488 228.132 195.496 226.372 196.232C224.644 196.968 222.612 197.336 220.276 197.336ZM234.585 183.464C234.585 180.616 235.065 178.152 236.025 176.072C237.017 173.96 238.361 172.36 240.057 171.272C241.753 170.152 243.657 169.592 245.769 169.592C247.529 169.592 249.049 169.96 250.329 170.696C251.609 171.4 252.585 172.376 253.257 173.624V169.928H263.865V197H253.257V193.304C252.585 194.552 251.609 195.544 250.329 196.28C249.049 196.984 247.529 197.336 245.769 197.336C243.657 197.336 241.753 196.792 240.057 195.704C238.361 194.584 237.017 192.984 236.025 190.904C235.065 188.792 234.585 186.312 234.585 183.464ZM253.257 183.464C253.257 182.024 252.889 180.904 252.153 180.104C251.417 179.304 250.473 178.904 249.321 178.904C248.169 178.904 247.225 179.304 246.489 180.104C245.753 180.904 245.385 182.024 245.385 183.464C245.385 184.904 245.753 186.024 246.489 186.824C247.225 187.624 248.169 188.024 249.321 188.024C250.473 188.024 251.417 187.624 252.153 186.824C252.889 186.024 253.257 184.904 253.257 183.464ZM285.978 197L279.306 186.2V197H268.65V161.48H279.306V180.056L286.074 169.928H298.458L288.33 183.56L298.698 197H285.978Z" fill="white"/>
<defs>
<filter id="filter0_df_1167_4" x="16.6113" y="9.01599" width="311.957" height="198.32" filterUnits="userSpaceOnUse" color-interpolation-filters="sRGB">
<feFlood flood-opacity="0" result="BackgroundImageFix"/>
<feColorMatrix in="SourceAlpha" type="matrix" values="0 0 0 0 0 0 0 0 0 0 0 0 0 0 0 0 0 0 127 0" result="hardAlpha"/>
<feOffset dy="4"/>
<feGaussianBlur stdDeviation="2"/>
<feComposite in2="hardAlpha" operator="out"/>
<feColorMatrix type="matrix" values="0 0 0 0 1 0 0 0 0 0 0 0 0 0 0.42 0 0 0 1 0"/>
<feBlend mode="normal" in2="BackgroundImageFix" result="effect1_dropShadow_1167_4"/>
<feBlend mode="normal" in="SourceGraphic" in2="effect1_dropShadow_1167_4" result="shape"/>
<feGaussianBlur stdDeviation="5" result="effect2_foregroundBlur_1167_4"/>
</filter>
</defs>
</svg>
