<svg width="466" height="148" viewBox="0 0 466 148" fill="none" xmlns="http://www.w3.org/2000/svg">
<g filter="url(#filter0_df_1167_2)">
<path d="M38.192 30.68C38.192 32.824 37.696 34.776 36.704 36.536C35.712 38.264 34.24 39.64 32.288 40.664C30.368 41.688 28.032 42.2 25.28 42.2H21.056V53H10.4V19.016H25.28C29.44 19.016 32.624 20.072 34.832 22.184C37.072 24.296 38.192 27.128 38.192 30.68ZM24.08 33.8C26.288 33.8 27.392 32.76 27.392 30.68C27.392 28.6 26.288 27.56 24.08 27.56H21.056V33.8H24.08ZM67.7799 39.224C67.7799 39.96 67.7319 40.664 67.6359 41.336H50.4999C50.6599 43.672 51.6359 44.84 53.4279 44.84C54.5799 44.84 55.4119 44.312 55.9239 43.256H67.2039C66.8199 45.176 66.0039 46.904 64.7559 48.44C63.5399 49.944 61.9879 51.144 60.0999 52.04C58.2439 52.904 56.1959 53.336 53.9559 53.336C51.2679 53.336 48.8679 52.776 46.7559 51.656C44.6759 50.536 43.0439 48.936 41.8599 46.856C40.7079 44.744 40.1319 42.28 40.1319 39.464C40.1319 36.648 40.7079 34.2 41.8599 32.12C43.0439 30.008 44.6759 28.392 46.7559 27.272C48.8679 26.152 51.2679 25.592 53.9559 25.592C56.6439 25.592 59.0279 26.152 61.1079 27.272C63.2199 28.36 64.8519 29.928 66.0039 31.976C67.1879 34.024 67.7799 36.44 67.7799 39.224ZM56.9799 36.68C56.9799 35.784 56.6919 35.112 56.1159 34.664C55.5399 34.184 54.8199 33.944 53.9559 33.944C52.0679 33.944 50.9639 34.856 50.6439 36.68H56.9799ZM81.806 30.92C82.894 29.352 84.222 28.104 85.79 27.176C87.358 26.216 88.99 25.736 90.686 25.736V37.112H87.662C85.646 37.112 84.158 37.464 83.198 38.168C82.27 38.872 81.806 40.12 81.806 41.912V53H71.15V25.928H81.806V30.92ZM119.764 39.224C119.764 39.96 119.716 40.664 119.62 41.336H102.484C102.644 43.672 103.62 44.84 105.412 44.84C106.564 44.84 107.396 44.312 107.908 43.256H119.188C118.804 45.176 117.988 46.904 116.74 48.44C115.524 49.944 113.972 51.144 112.084 52.04C110.228 52.904 108.18 53.336 105.94 53.336C103.252 53.336 100.852 52.776 98.7403 51.656C96.6603 50.536 95.0283 48.936 93.8443 46.856C92.6923 44.744 92.1163 42.28 92.1163 39.464C92.1163 36.648 92.6923 34.2 93.8443 32.12C95.0283 30.008 96.6603 28.392 98.7403 27.272C100.852 26.152 103.252 25.592 105.94 25.592C108.628 25.592 111.012 26.152 113.092 27.272C115.204 28.36 116.836 29.928 117.988 31.976C119.172 34.024 119.764 36.44 119.764 39.224ZM108.964 36.68C108.964 35.784 108.676 35.112 108.1 34.664C107.524 34.184 106.804 33.944 105.94 33.944C104.052 33.944 102.948 34.856 102.628 36.68H108.964ZM159.278 25.736C162.734 25.736 165.406 26.776 167.294 28.856C169.214 30.936 170.174 33.752 170.174 37.304V53H159.566V38.648C159.566 37.496 159.214 36.6 158.51 35.96C157.838 35.288 156.926 34.952 155.774 34.952C154.59 34.952 153.662 35.288 152.99 35.96C152.318 36.6 151.982 37.496 151.982 38.648V53H141.374V38.648C141.374 37.496 141.022 36.6 140.318 35.96C139.646 35.288 138.734 34.952 137.582 34.952C136.398 34.952 135.47 35.288 134.798 35.96C134.126 36.6 133.79 37.496 133.79 38.648V53H123.134V25.928H133.79V29.576C134.558 28.424 135.598 27.496 136.91 26.792C138.254 26.088 139.822 25.736 141.614 25.736C143.566 25.736 145.294 26.168 146.798 27.032C148.302 27.864 149.502 29.048 150.398 30.584C151.39 29.176 152.654 28.024 154.19 27.128C155.726 26.2 157.422 25.736 159.278 25.736ZM185.447 29.624C186.119 28.376 187.079 27.4 188.327 26.696C189.607 25.96 191.127 25.592 192.887 25.592C194.999 25.592 196.903 26.152 198.599 27.272C200.295 28.36 201.623 29.96 202.583 32.072C203.575 34.152 204.071 36.616 204.071 39.464C204.071 42.312 203.575 44.792 202.583 46.904C201.623 48.984 200.295 50.584 198.599 51.704C196.903 52.792 194.999 53.336 192.887 53.336C191.127 53.336 189.607 52.984 188.327 52.28C187.079 51.544 186.119 50.552 185.447 49.304V65.96H174.791V25.928H185.447V29.624ZM193.271 39.464C193.271 38.024 192.903 36.904 192.167 36.104C191.431 35.304 190.487 34.904 189.335 34.904C188.183 34.904 187.239 35.304 186.503 36.104C185.767 36.904 185.399 38.024 185.399 39.464C185.399 40.904 185.767 42.024 186.503 42.824C187.239 43.624 188.183 44.024 189.335 44.024C190.487 44.024 191.431 43.624 192.167 42.824C192.903 42.024 193.271 40.904 193.271 39.464ZM236.072 25.928V53H225.416V48.872C224.584 50.152 223.464 51.192 222.056 51.992C220.68 52.792 219.032 53.192 217.112 53.192C214.008 53.192 211.576 52.152 209.816 50.072C208.088 47.992 207.224 45.176 207.224 41.624V25.928H217.832V40.28C217.832 41.56 218.168 42.584 218.84 43.352C219.544 44.088 220.472 44.456 221.624 44.456C222.808 44.456 223.736 44.088 224.408 43.352C225.08 42.584 225.416 41.56 225.416 40.28V25.928H236.072ZM239.444 39.464C239.444 36.616 239.924 34.152 240.884 32.072C241.876 29.96 243.22 28.36 244.916 27.272C246.612 26.152 248.516 25.592 250.628 25.592C252.388 25.592 253.908 25.96 255.188 26.696C256.468 27.4 257.444 28.376 258.116 29.624V25.928H268.724V53H258.116V49.304C257.444 50.552 256.468 51.544 255.188 52.28C253.908 52.984 252.388 53.336 250.628 53.336C248.516 53.336 246.612 52.792 244.916 51.704C243.22 50.584 241.876 48.984 240.884 46.904C239.924 44.792 239.444 42.312 239.444 39.464ZM258.116 39.464C258.116 38.024 257.748 36.904 257.012 36.104C256.276 35.304 255.332 34.904 254.18 34.904C253.028 34.904 252.084 35.304 251.348 36.104C250.612 36.904 250.244 38.024 250.244 39.464C250.244 40.904 250.612 42.024 251.348 42.824C252.084 43.624 253.028 44.024 254.18 44.024C255.332 44.024 256.276 43.624 257.012 42.824C257.748 42.024 258.116 40.904 258.116 39.464ZM292.469 25.736C295.573 25.736 297.989 26.776 299.717 28.856C301.477 30.936 302.357 33.752 302.357 37.304V53H291.749V38.648C291.749 37.368 291.397 36.36 290.693 35.624C290.021 34.856 289.109 34.472 287.957 34.472C286.773 34.472 285.845 34.856 285.173 35.624C284.501 36.36 284.165 37.368 284.165 38.648V53H273.509V25.928H284.165V30.056C284.997 28.776 286.101 27.736 287.477 26.936C288.885 26.136 290.549 25.736 292.469 25.736ZM341.822 19.016V27.464H332.798V53H322.142V27.464H313.214V19.016H341.822ZM350.089 23.768C348.233 23.768 346.745 23.272 345.625 22.28C344.505 21.288 343.945 20.04 343.945 18.536C343.945 17 344.505 15.736 345.625 14.744C346.745 13.72 348.233 13.208 350.089 13.208C351.913 13.208 353.385 13.72 354.505 14.744C355.625 15.736 356.185 17 356.185 18.536C356.185 20.04 355.625 21.288 354.505 22.28C353.385 23.272 351.913 23.768 350.089 23.768ZM355.369 25.928V53H344.713V25.928H355.369ZM358.741 39.464C358.741 36.616 359.221 34.152 360.181 32.072C361.173 29.96 362.517 28.36 364.213 27.272C365.909 26.152 367.813 25.592 369.925 25.592C371.685 25.592 373.189 25.96 374.437 26.696C375.717 27.4 376.693 28.376 377.365 29.624V17.48H388.021V53H377.365V49.304C376.693 50.552 375.717 51.544 374.437 52.28C373.189 52.984 371.685 53.336 369.925 53.336C367.813 53.336 365.909 52.792 364.213 51.704C362.517 50.584 361.173 48.984 360.181 46.904C359.221 44.792 358.741 42.312 358.741 39.464ZM377.413 39.464C377.413 38.024 377.045 36.904 376.309 36.104C375.573 35.304 374.629 34.904 373.477 34.904C372.325 34.904 371.381 35.304 370.645 36.104C369.909 36.904 369.541 38.024 369.541 39.464C369.541 40.904 369.909 42.024 370.645 42.824C371.381 43.624 372.325 44.024 373.477 44.024C374.629 44.024 375.573 43.624 376.309 42.824C377.045 42.024 377.413 40.904 377.413 39.464ZM391.366 39.464C391.366 36.616 391.846 34.152 392.806 32.072C393.798 29.96 395.142 28.36 396.838 27.272C398.534 26.152 400.438 25.592 402.55 25.592C404.31 25.592 405.83 25.96 407.11 26.696C408.39 27.4 409.366 28.376 410.038 29.624V25.928H420.646V53H410.038V49.304C409.366 50.552 408.39 51.544 407.11 52.28C405.83 52.984 404.31 53.336 402.55 53.336C400.438 53.336 398.534 52.792 396.838 51.704C395.142 50.584 393.798 48.984 392.806 46.904C391.846 44.792 391.366 42.312 391.366 39.464ZM410.038 39.464C410.038 38.024 409.67 36.904 408.934 36.104C408.198 35.304 407.254 34.904 406.102 34.904C404.95 34.904 404.006 35.304 403.27 36.104C402.534 36.904 402.166 38.024 402.166 39.464C402.166 40.904 402.534 42.024 403.27 42.824C404.006 43.624 404.95 44.024 406.102 44.024C407.254 44.024 408.198 43.624 408.934 42.824C409.67 42.024 410.038 40.904 410.038 39.464ZM442.759 53L436.087 42.2V53H425.431V17.48H436.087V36.056L442.855 25.928H455.239L445.111 39.56L455.479 53H442.759ZM33.152 107.576C35.2 108.056 36.784 109.048 37.904 110.552C39.056 112.024 39.632 113.736 39.632 115.688C39.632 118.664 38.64 120.968 36.656 122.6C34.704 124.2 31.888 125 28.208 125H10.4V91.016H27.728C31.184 91.016 33.904 91.768 35.888 93.272C37.872 94.776 38.864 96.968 38.864 99.848C38.864 101.832 38.336 103.512 37.28 104.888C36.256 106.232 34.88 107.128 33.152 107.576ZM21.056 104.264H25.184C26.144 104.264 26.848 104.072 27.296 103.688C27.776 103.304 28.016 102.712 28.016 101.912C28.016 101.08 27.776 100.472 27.296 100.088C26.848 99.672 26.144 99.464 25.184 99.464H21.056V104.264ZM25.904 116.456C26.864 116.456 27.568 116.28 28.016 115.928C28.496 115.544 28.736 114.936 28.736 114.104C28.736 112.472 27.792 111.656 25.904 111.656H21.056V116.456H25.904ZM48.5885 95.768C46.7325 95.768 45.2445 95.272 44.1245 94.28C43.0045 93.288 42.4445 92.04 42.4445 90.536C42.4445 89 43.0045 87.736 44.1245 86.744C45.2445 85.72 46.7325 85.208 48.5885 85.208C50.4125 85.208 51.8845 85.72 53.0045 86.744C54.1245 87.736 54.6845 89 54.6845 90.536C54.6845 92.04 54.1245 93.288 53.0045 94.28C51.8845 95.272 50.4125 95.768 48.5885 95.768ZM53.8685 97.928V125H43.2125V97.928H53.8685ZM70.7293 125.336C68.1693 125.336 65.8973 124.92 63.9133 124.088C61.9613 123.256 60.4093 122.104 59.2573 120.632C58.1053 119.16 57.4493 117.496 57.2893 115.64H67.5133C67.6413 116.44 67.9773 117.032 68.5213 117.416C69.0973 117.8 69.8173 117.992 70.6813 117.992C71.2253 117.992 71.6573 117.88 71.9773 117.656C72.2973 117.4 72.4573 117.096 72.4573 116.744C72.4573 116.136 72.1213 115.704 71.4493 115.448C70.7773 115.192 69.6413 114.904 68.0413 114.584C66.0893 114.2 64.4733 113.784 63.1933 113.336C61.9453 112.888 60.8413 112.12 59.8813 111.032C58.9533 109.944 58.4893 108.44 58.4893 106.52C58.4893 104.856 58.9213 103.352 59.7853 102.008C60.6813 100.632 61.9933 99.56 63.7213 98.792C65.4493 97.992 67.5453 97.592 70.0093 97.592C73.6573 97.592 76.5053 98.488 78.5533 100.28C80.6333 102.072 81.8813 104.408 82.2973 107.288H72.8413C72.6813 106.552 72.3453 105.992 71.8333 105.608C71.3213 105.192 70.6333 104.984 69.7693 104.984C69.2253 104.984 68.8093 105.096 68.5213 105.32C68.2333 105.512 68.0893 105.816 68.0893 106.232C68.0893 106.776 68.4253 107.192 69.0973 107.48C69.7693 107.736 70.8413 108.008 72.3133 108.296C74.2653 108.68 75.9133 109.112 77.2573 109.592C78.6013 110.072 79.7693 110.904 80.7613 112.088C81.7533 113.24 82.2493 114.84 82.2493 116.888C82.2493 118.488 81.7853 119.928 80.8573 121.208C79.9293 122.488 78.5853 123.496 76.8253 124.232C75.0973 124.968 73.0653 125.336 70.7293 125.336ZM85.0381 111.464C85.0381 108.616 85.5181 106.152 86.4781 104.072C87.4701 101.96 88.8141 100.36 90.5101 99.272C92.2061 98.152 94.1101 97.592 96.2221 97.592C97.9821 97.592 99.5021 97.96 100.782 98.696C102.062 99.4 103.038 100.376 103.71 101.624V97.928H114.318V125H103.71V121.304C103.038 122.552 102.062 123.544 100.782 124.28C99.5021 124.984 97.9821 125.336 96.2221 125.336C94.1101 125.336 92.2061 124.792 90.5101 123.704C88.8141 122.584 87.4701 120.984 86.4781 118.904C85.5181 116.792 85.0381 114.312 85.0381 111.464ZM103.71 111.464C103.71 110.024 103.342 108.904 102.606 108.104C101.87 107.304 100.926 106.904 99.7741 106.904C98.6221 106.904 97.6781 107.304 96.9421 108.104C96.2061 108.904 95.8381 110.024 95.8381 111.464C95.8381 112.904 96.2061 114.024 96.9421 114.824C97.6781 115.624 98.6221 116.024 99.7741 116.024C100.926 116.024 101.87 115.624 102.606 114.824C103.342 114.024 103.71 112.904 103.71 111.464ZM168.107 91.016V125H157.499V108.056L152.267 125H143.147L137.915 108.056V125H127.259V91.016H140.315L147.803 111.416L155.099 91.016H168.107ZM199.124 111.224C199.124 111.96 199.076 112.664 198.98 113.336H181.844C182.004 115.672 182.98 116.84 184.772 116.84C185.924 116.84 186.756 116.312 187.268 115.256H198.548C198.164 117.176 197.348 118.904 196.1 120.44C194.884 121.944 193.332 123.144 191.444 124.04C189.588 124.904 187.54 125.336 185.3 125.336C182.612 125.336 180.212 124.776 178.1 123.656C176.02 122.536 174.388 120.936 173.204 118.856C172.052 116.744 171.476 114.28 171.476 111.464C171.476 108.648 172.052 106.2 173.204 104.12C174.388 102.008 176.02 100.392 178.1 99.272C180.212 98.152 182.612 97.592 185.3 97.592C187.988 97.592 190.372 98.152 192.452 99.272C194.564 100.36 196.196 101.928 197.348 103.976C198.532 106.024 199.124 108.44 199.124 111.224ZM188.324 108.68C188.324 107.784 188.036 107.112 187.46 106.664C186.884 106.184 186.164 105.944 185.3 105.944C183.412 105.944 182.308 106.856 181.988 108.68H188.324ZM238.638 97.736C242.094 97.736 244.766 98.776 246.654 100.856C248.574 102.936 249.534 105.752 249.534 109.304V125H238.926V110.648C238.926 109.496 238.574 108.6 237.87 107.96C237.198 107.288 236.286 106.952 235.134 106.952C233.95 106.952 233.022 107.288 232.35 107.96C231.678 108.6 231.342 109.496 231.342 110.648V125H220.734V110.648C220.734 109.496 220.382 108.6 219.678 107.96C219.006 107.288 218.094 106.952 216.942 106.952C215.758 106.952 214.83 107.288 214.158 107.96C213.486 108.6 213.15 109.496 213.15 110.648V125H202.494V97.928H213.15V101.576C213.918 100.424 214.958 99.496 216.27 98.792C217.614 98.088 219.182 97.736 220.974 97.736C222.926 97.736 224.654 98.168 226.158 99.032C227.662 99.864 228.862 101.048 229.758 102.584C230.75 101.176 232.014 100.024 233.55 99.128C235.086 98.2 236.782 97.736 238.638 97.736ZM259.526 95.768C257.67 95.768 256.182 95.272 255.062 94.28C253.942 93.288 253.382 92.04 253.382 90.536C253.382 89 253.942 87.736 255.062 86.744C256.182 85.72 257.67 85.208 259.526 85.208C261.35 85.208 262.822 85.72 263.942 86.744C265.062 87.736 265.622 89 265.622 90.536C265.622 92.04 265.062 93.288 263.942 94.28C262.822 95.272 261.35 95.768 259.526 95.768ZM264.806 97.928V125H254.15V97.928H264.806ZM305.763 97.736C309.219 97.736 311.891 98.776 313.779 100.856C315.699 102.936 316.659 105.752 316.659 109.304V125H306.051V110.648C306.051 109.496 305.699 108.6 304.995 107.96C304.323 107.288 303.411 106.952 302.259 106.952C301.075 106.952 300.147 107.288 299.475 107.96C298.803 108.6 298.467 109.496 298.467 110.648V125H287.859V110.648C287.859 109.496 287.507 108.6 286.803 107.96C286.131 107.288 285.219 106.952 284.067 106.952C282.883 106.952 281.955 107.288 281.283 107.96C280.611 108.6 280.275 109.496 280.275 110.648V125H269.619V97.928H280.275V101.576C281.043 100.424 282.083 99.496 283.395 98.792C284.739 98.088 286.307 97.736 288.099 97.736C290.051 97.736 291.779 98.168 293.283 99.032C294.787 99.864 295.987 101.048 296.883 102.584C297.875 101.176 299.139 100.024 300.675 99.128C302.211 98.2 303.907 97.736 305.763 97.736ZM331.931 101.624C332.603 100.376 333.563 99.4 334.811 98.696C336.091 97.96 337.611 97.592 339.371 97.592C341.483 97.592 343.387 98.152 345.083 99.272C346.779 100.36 348.107 101.96 349.067 104.072C350.059 106.152 350.555 108.616 350.555 111.464C350.555 114.312 350.059 116.792 349.067 118.904C348.107 120.984 346.779 122.584 345.083 123.704C343.387 124.792 341.483 125.336 339.371 125.336C337.611 125.336 336.091 124.984 334.811 124.28C333.563 123.544 332.603 122.552 331.931 121.304V137.96H321.275V97.928H331.931V101.624ZM339.755 111.464C339.755 110.024 339.387 108.904 338.651 108.104C337.915 107.304 336.971 106.904 335.819 106.904C334.667 106.904 333.723 107.304 332.987 108.104C332.251 108.904 331.883 110.024 331.883 111.464C331.883 112.904 332.251 114.024 332.987 114.824C333.723 115.624 334.667 116.024 335.819 116.024C336.971 116.024 337.915 115.624 338.651 114.824C339.387 114.024 339.755 112.904 339.755 111.464ZM359.276 95.768C357.42 95.768 355.932 95.272 354.812 94.28C353.692 93.288 353.132 92.04 353.132 90.536C353.132 89 353.692 87.736 354.812 86.744C355.932 85.72 357.42 85.208 359.276 85.208C361.1 85.208 362.572 85.72 363.692 86.744C364.812 87.736 365.372 89 365.372 90.536C365.372 92.04 364.812 93.288 363.692 94.28C362.572 95.272 361.1 95.768 359.276 95.768ZM364.556 97.928V125H353.9V97.928H364.556ZM388.329 97.736C391.433 97.736 393.849 98.776 395.577 100.856C397.337 102.936 398.217 105.752 398.217 109.304V125H387.609V110.648C387.609 109.368 387.257 108.36 386.553 107.624C385.881 106.856 384.969 106.472 383.817 106.472C382.633 106.472 381.705 106.856 381.033 107.624C380.361 108.36 380.025 109.368 380.025 110.648V125H369.369V97.928H380.025V102.056C380.857 100.776 381.961 99.736 383.337 98.936C384.745 98.136 386.409 97.736 388.329 97.736ZM413.494 87.896C417.046 87.896 419.894 88.792 422.038 90.584C424.214 92.344 425.302 94.936 425.302 98.36C425.302 101.176 424.342 103.448 422.422 105.176C420.534 106.904 418.054 107.8 414.982 107.864L414.694 111.272H405.286L404.998 101.096H409.03C410.918 101.096 412.358 100.888 413.35 100.472C414.374 100.056 414.886 99.384 414.886 98.456C414.886 97.848 414.726 97.384 414.406 97.064C414.118 96.712 413.718 96.536 413.206 96.536C412.566 96.536 412.086 96.744 411.766 97.16C411.478 97.544 411.334 98.056 411.334 98.696H401.302C401.206 96.712 401.59 94.904 402.454 93.272C403.35 91.64 404.726 90.344 406.582 89.384C408.438 88.392 410.742 87.896 413.494 87.896ZM410.134 125.384C408.278 125.384 406.79 124.888 405.67 123.896C404.55 122.904 403.99 121.656 403.99 120.152C403.99 118.616 404.55 117.352 405.67 116.36C406.79 115.336 408.278 114.824 410.134 114.824C411.958 114.824 413.43 115.336 414.549 116.36C415.67 117.352 416.23 118.616 416.23 120.152C416.23 121.656 415.67 122.904 414.549 123.896C413.43 124.888 411.958 125.384 410.134 125.384Z" fill="#FF5C00"/>
</g>
<path d="M38.192 30.68C38.192 32.824 37.696 34.776 36.704 36.536C35.712 38.264 34.24 39.64 32.288 40.664C30.368 41.688 28.032 42.2 25.28 42.2H21.056V53H10.4V19.016H25.28C29.44 19.016 32.624 20.072 34.832 22.184C37.072 24.296 38.192 27.128 38.192 30.68ZM24.08 33.8C26.288 33.8 27.392 32.76 27.392 30.68C27.392 28.6 26.288 27.56 24.08 27.56H21.056V33.8H24.08ZM67.7799 39.224C67.7799 39.96 67.7319 40.664 67.6359 41.336H50.4999C50.6599 43.672 51.6359 44.84 53.4279 44.84C54.5799 44.84 55.4119 44.312 55.9239 43.256H67.2039C66.8199 45.176 66.0039 46.904 64.7559 48.44C63.5399 49.944 61.9879 51.144 60.0999 52.04C58.2439 52.904 56.1959 53.336 53.9559 53.336C51.2679 53.336 48.8679 52.776 46.7559 51.656C44.6759 50.536 43.0439 48.936 41.8599 46.856C40.7079 44.744 40.1319 42.28 40.1319 39.464C40.1319 36.648 40.7079 34.2 41.8599 32.12C43.0439 30.008 44.6759 28.392 46.7559 27.272C48.8679 26.152 51.2679 25.592 53.9559 25.592C56.6439 25.592 59.0279 26.152 61.1079 27.272C63.2199 28.36 64.8519 29.928 66.0039 31.976C67.1879 34.024 67.7799 36.44 67.7799 39.224ZM56.9799 36.68C56.9799 35.784 56.6919 35.112 56.1159 34.664C55.5399 34.184 54.8199 33.944 53.9559 33.944C52.0679 33.944 50.9639 34.856 50.6439 36.68H56.9799ZM81.806 30.92C82.894 29.352 84.222 28.104 85.79 27.176C87.358 26.216 88.99 25.736 90.686 25.736V37.112H87.662C85.646 37.112 84.158 37.464 83.198 38.168C82.27 38.872 81.806 40.12 81.806 41.912V53H71.15V25.928H81.806V30.92ZM119.764 39.224C119.764 39.96 119.716 40.664 119.62 41.336H102.484C102.644 43.672 103.62 44.84 105.412 44.84C106.564 44.84 107.396 44.312 107.908 43.256H119.188C118.804 45.176 117.988 46.904 116.74 48.44C115.524 49.944 113.972 51.144 112.084 52.04C110.228 52.904 108.18 53.336 105.94 53.336C103.252 53.336 100.852 52.776 98.7403 51.656C96.6603 50.536 95.0283 48.936 93.8443 46.856C92.6923 44.744 92.1163 42.28 92.1163 39.464C92.1163 36.648 92.6923 34.2 93.8443 32.12C95.0283 30.008 96.6603 28.392 98.7403 27.272C100.852 26.152 103.252 25.592 105.94 25.592C108.628 25.592 111.012 26.152 113.092 27.272C115.204 28.36 116.836 29.928 117.988 31.976C119.172 34.024 119.764 36.44 119.764 39.224ZM108.964 36.68C108.964 35.784 108.676 35.112 108.1 34.664C107.524 34.184 106.804 33.944 105.94 33.944C104.052 33.944 102.948 34.856 102.628 36.68H108.964ZM159.278 25.736C162.734 25.736 165.406 26.776 167.294 28.856C169.214 30.936 170.174 33.752 170.174 37.304V53H159.566V38.648C159.566 37.496 159.214 36.6 158.51 35.96C157.838 35.288 156.926 34.952 155.774 34.952C154.59 34.952 153.662 35.288 152.99 35.96C152.318 36.6 151.982 37.496 151.982 38.648V53H141.374V38.648C141.374 37.496 141.022 36.6 140.318 35.96C139.646 35.288 138.734 34.952 137.582 34.952C136.398 34.952 135.47 35.288 134.798 35.96C134.126 36.6 133.79 37.496 133.79 38.648V53H123.134V25.928H133.79V29.576C134.558 28.424 135.598 27.496 136.91 26.792C138.254 26.088 139.822 25.736 141.614 25.736C143.566 25.736 145.294 26.168 146.798 27.032C148.302 27.864 149.502 29.048 150.398 30.584C151.39 29.176 152.654 28.024 154.19 27.128C155.726 26.2 157.422 25.736 159.278 25.736ZM185.447 29.624C186.119 28.376 187.079 27.4 188.327 26.696C189.607 25.96 191.127 25.592 192.887 25.592C194.999 25.592 196.903 26.152 198.599 27.272C200.295 28.36 201.623 29.96 202.583 32.072C203.575 34.152 204.071 36.616 204.071 39.464C204.071 42.312 203.575 44.792 202.583 46.904C201.623 48.984 200.295 50.584 198.599 51.704C196.903 52.792 194.999 53.336 192.887 53.336C191.127 53.336 189.607 52.984 188.327 52.28C187.079 51.544 186.119 50.552 185.447 49.304V65.96H174.791V25.928H185.447V29.624ZM193.271 39.464C193.271 38.024 192.903 36.904 192.167 36.104C191.431 35.304 190.487 34.904 189.335 34.904C188.183 34.904 187.239 35.304 186.503 36.104C185.767 36.904 185.399 38.024 185.399 39.464C185.399 40.904 185.767 42.024 186.503 42.824C187.239 43.624 188.183 44.024 189.335 44.024C190.487 44.024 191.431 43.624 192.167 42.824C192.903 42.024 193.271 40.904 193.271 39.464ZM236.072 25.928V53H225.416V48.872C224.584 50.152 223.464 51.192 222.056 51.992C220.68 52.792 219.032 53.192 217.112 53.192C214.008 53.192 211.576 52.152 209.816 50.072C208.088 47.992 207.224 45.176 207.224 41.624V25.928H217.832V40.28C217.832 41.56 218.168 42.584 218.84 43.352C219.544 44.088 220.472 44.456 221.624 44.456C222.808 44.456 223.736 44.088 224.408 43.352C225.08 42.584 225.416 41.56 225.416 40.28V25.928H236.072ZM239.444 39.464C239.444 36.616 239.924 34.152 240.884 32.072C241.876 29.96 243.22 28.36 244.916 27.272C246.612 26.152 248.516 25.592 250.628 25.592C252.388 25.592 253.908 25.96 255.188 26.696C256.468 27.4 257.444 28.376 258.116 29.624V25.928H268.724V53H258.116V49.304C257.444 50.552 256.468 51.544 255.188 52.28C253.908 52.984 252.388 53.336 250.628 53.336C248.516 53.336 246.612 52.792 244.916 51.704C243.22 50.584 241.876 48.984 240.884 46.904C239.924 44.792 239.444 42.312 239.444 39.464ZM258.116 39.464C258.116 38.024 257.748 36.904 257.012 36.104C256.276 35.304 255.332 34.904 254.18 34.904C253.028 34.904 252.084 35.304 251.348 36.104C250.612 36.904 250.244 38.024 250.244 39.464C250.244 40.904 250.612 42.024 251.348 42.824C252.084 43.624 253.028 44.024 254.18 44.024C255.332 44.024 256.276 43.624 257.012 42.824C257.748 42.024 258.116 40.904 258.116 39.464ZM292.469 25.736C295.573 25.736 297.989 26.776 299.717 28.856C301.477 30.936 302.357 33.752 302.357 37.304V53H291.749V38.648C291.749 37.368 291.397 36.36 290.693 35.624C290.021 34.856 289.109 34.472 287.957 34.472C286.773 34.472 285.845 34.856 285.173 35.624C284.501 36.36 284.165 37.368 284.165 38.648V53H273.509V25.928H284.165V30.056C284.997 28.776 286.101 27.736 287.477 26.936C288.885 26.136 290.549 25.736 292.469 25.736ZM341.822 19.016V27.464H332.798V53H322.142V27.464H313.214V19.016H341.822ZM350.089 23.768C348.233 23.768 346.745 23.272 345.625 22.28C344.505 21.288 343.945 20.04 343.945 18.536C343.945 17 344.505 15.736 345.625 14.744C346.745 13.72 348.233 13.208 350.089 13.208C351.913 13.208 353.385 13.72 354.505 14.744C355.625 15.736 356.185 17 356.185 18.536C356.185 20.04 355.625 21.288 354.505 22.28C353.385 23.272 351.913 23.768 350.089 23.768ZM355.369 25.928V53H344.713V25.928H355.369ZM358.741 39.464C358.741 36.616 359.221 34.152 360.181 32.072C361.173 29.96 362.517 28.36 364.213 27.272C365.909 26.152 367.813 25.592 369.925 25.592C371.685 25.592 373.189 25.96 374.437 26.696C375.717 27.4 376.693 28.376 377.365 29.624V17.48H388.021V53H377.365V49.304C376.693 50.552 375.717 51.544 374.437 52.28C373.189 52.984 371.685 53.336 369.925 53.336C367.813 53.336 365.909 52.792 364.213 51.704C362.517 50.584 361.173 48.984 360.181 46.904C359.221 44.792 358.741 42.312 358.741 39.464ZM377.413 39.464C377.413 38.024 377.045 36.904 376.309 36.104C375.573 35.304 374.629 34.904 373.477 34.904C372.325 34.904 371.381 35.304 370.645 36.104C369.909 36.904 369.541 38.024 369.541 39.464C369.541 40.904 369.909 42.024 370.645 42.824C371.381 43.624 372.325 44.024 373.477 44.024C374.629 44.024 375.573 43.624 376.309 42.824C377.045 42.024 377.413 40.904 377.413 39.464ZM391.366 39.464C391.366 36.616 391.846 34.152 392.806 32.072C393.798 29.96 395.142 28.36 396.838 27.272C398.534 26.152 400.438 25.592 402.55 25.592C404.31 25.592 405.83 25.96 407.11 26.696C408.39 27.4 409.366 28.376 410.038 29.624V25.928H420.646V53H410.038V49.304C409.366 50.552 408.39 51.544 407.11 52.28C405.83 52.984 404.31 53.336 402.55 53.336C400.438 53.336 398.534 52.792 396.838 51.704C395.142 50.584 393.798 48.984 392.806 46.904C391.846 44.792 391.366 42.312 391.366 39.464ZM410.038 39.464C410.038 38.024 409.67 36.904 408.934 36.104C408.198 35.304 407.254 34.904 406.102 34.904C404.95 34.904 404.006 35.304 403.27 36.104C402.534 36.904 402.166 38.024 402.166 39.464C402.166 40.904 402.534 42.024 403.27 42.824C404.006 43.624 404.95 44.024 406.102 44.024C407.254 44.024 408.198 43.624 408.934 42.824C409.67 42.024 410.038 40.904 410.038 39.464ZM442.759 53L436.087 42.2V53H425.431V17.48H436.087V36.056L442.855 25.928H455.239L445.111 39.56L455.479 53H442.759ZM33.152 107.576C35.2 108.056 36.784 109.048 37.904 110.552C39.056 112.024 39.632 113.736 39.632 115.688C39.632 118.664 38.64 120.968 36.656 122.6C34.704 124.2 31.888 125 28.208 125H10.4V91.016H27.728C31.184 91.016 33.904 91.768 35.888 93.272C37.872 94.776 38.864 96.968 38.864 99.848C38.864 101.832 38.336 103.512 37.28 104.888C36.256 106.232 34.88 107.128 33.152 107.576ZM21.056 104.264H25.184C26.144 104.264 26.848 104.072 27.296 103.688C27.776 103.304 28.016 102.712 28.016 101.912C28.016 101.08 27.776 100.472 27.296 100.088C26.848 99.672 26.144 99.464 25.184 99.464H21.056V104.264ZM25.904 116.456C26.864 116.456 27.568 116.28 28.016 115.928C28.496 115.544 28.736 114.936 28.736 114.104C28.736 112.472 27.792 111.656 25.904 111.656H21.056V116.456H25.904ZM48.5885 95.768C46.7325 95.768 45.2445 95.272 44.1245 94.28C43.0045 93.288 42.4445 92.04 42.4445 90.536C42.4445 89 43.0045 87.736 44.1245 86.744C45.2445 85.72 46.7325 85.208 48.5885 85.208C50.4125 85.208 51.8845 85.72 53.0045 86.744C54.1245 87.736 54.6845 89 54.6845 90.536C54.6845 92.04 54.1245 93.288 53.0045 94.28C51.8845 95.272 50.4125 95.768 48.5885 95.768ZM53.8685 97.928V125H43.2125V97.928H53.8685ZM70.7293 125.336C68.1693 125.336 65.8973 124.92 63.9133 124.088C61.9613 123.256 60.4093 122.104 59.2573 120.632C58.1053 119.16 57.4493 117.496 57.2893 115.64H67.5133C67.6413 116.44 67.9773 117.032 68.5213 117.416C69.0973 117.8 69.8173 117.992 70.6813 117.992C71.2253 117.992 71.6573 117.88 71.9773 117.656C72.2973 117.4 72.4573 117.096 72.4573 116.744C72.4573 116.136 72.1213 115.704 71.4493 115.448C70.7773 115.192 69.6413 114.904 68.0413 114.584C66.0893 114.2 64.4733 113.784 63.1933 113.336C61.9453 112.888 60.8413 112.12 59.8813 111.032C58.9533 109.944 58.4893 108.44 58.4893 106.52C58.4893 104.856 58.9213 103.352 59.7853 102.008C60.6813 100.632 61.9933 99.56 63.7213 98.792C65.4493 97.992 67.5453 97.592 70.0093 97.592C73.6573 97.592 76.5053 98.488 78.5533 100.28C80.6333 102.072 81.8813 104.408 82.2973 107.288H72.8413C72.6813 106.552 72.3453 105.992 71.8333 105.608C71.3213 105.192 70.6333 104.984 69.7693 104.984C69.2253 104.984 68.8093 105.096 68.5213 105.32C68.2333 105.512 68.0893 105.816 68.0893 106.232C68.0893 106.776 68.4253 107.192 69.0973 107.48C69.7693 107.736 70.8413 108.008 72.3133 108.296C74.2653 108.68 75.9133 109.112 77.2573 109.592C78.6013 110.072 79.7693 110.904 80.7613 112.088C81.7533 113.24 82.2493 114.84 82.2493 116.888C82.2493 118.488 81.7853 119.928 80.8573 121.208C79.9293 122.488 78.5853 123.496 76.8253 124.232C75.0973 124.968 73.0653 125.336 70.7293 125.336ZM85.0381 111.464C85.0381 108.616 85.5181 106.152 86.4781 104.072C87.4701 101.96 88.8141 100.36 90.5101 99.272C92.2061 98.152 94.1101 97.592 96.2221 97.592C97.9821 97.592 99.5021 97.96 100.782 98.696C102.062 99.4 103.038 100.376 103.71 101.624V97.928H114.318V125H103.71V121.304C103.038 122.552 102.062 123.544 100.782 124.28C99.5021 124.984 97.9821 125.336 96.2221 125.336C94.1101 125.336 92.2061 124.792 90.5101 123.704C88.8141 122.584 87.4701 120.984 86.4781 118.904C85.5181 116.792 85.0381 114.312 85.0381 111.464ZM103.71 111.464C103.71 110.024 103.342 108.904 102.606 108.104C101.87 107.304 100.926 106.904 99.7741 106.904C98.6221 106.904 97.6781 107.304 96.9421 108.104C96.2061 108.904 95.8381 110.024 95.8381 111.464C95.8381 112.904 96.2061 114.024 96.9421 114.824C97.6781 115.624 98.6221 116.024 99.7741 116.024C100.926 116.024 101.87 115.624 102.606 114.824C103.342 114.024 103.71 112.904 103.71 111.464ZM168.107 91.016V125H157.499V108.056L152.267 125H143.147L137.915 108.056V125H127.259V91.016H140.315L147.803 111.416L155.099 91.016H168.107ZM199.124 111.224C199.124 111.96 199.076 112.664 198.98 113.336H181.844C182.004 115.672 182.98 116.84 184.772 116.84C185.924 116.84 186.756 116.312 187.268 115.256H198.548C198.164 117.176 197.348 118.904 196.1 120.44C194.884 121.944 193.332 123.144 191.444 124.04C189.588 124.904 187.54 125.336 185.3 125.336C182.612 125.336 180.212 124.776 178.1 123.656C176.02 122.536 174.388 120.936 173.204 118.856C172.052 116.744 171.476 114.28 171.476 111.464C171.476 108.648 172.052 106.2 173.204 104.12C174.388 102.008 176.02 100.392 178.1 99.272C180.212 98.152 182.612 97.592 185.3 97.592C187.988 97.592 190.372 98.152 192.452 99.272C194.564 100.36 196.196 101.928 197.348 103.976C198.532 106.024 199.124 108.44 199.124 111.224ZM188.324 108.68C188.324 107.784 188.036 107.112 187.46 106.664C186.884 106.184 186.164 105.944 185.3 105.944C183.412 105.944 182.308 106.856 181.988 108.68H188.324ZM238.638 97.736C242.094 97.736 244.766 98.776 246.654 100.856C248.574 102.936 249.534 105.752 249.534 109.304V125H238.926V110.648C238.926 109.496 238.574 108.6 237.87 107.96C237.198 107.288 236.286 106.952 235.134 106.952C233.95 106.952 233.022 107.288 232.35 107.96C231.678 108.6 231.342 109.496 231.342 110.648V125H220.734V110.648C220.734 109.496 220.382 108.6 219.678 107.96C219.006 107.288 218.094 106.952 216.942 106.952C215.758 106.952 214.83 107.288 214.158 107.96C213.486 108.6 213.15 109.496 213.15 110.648V125H202.494V97.928H213.15V101.576C213.918 100.424 214.958 99.496 216.27 98.792C217.614 98.088 219.182 97.736 220.974 97.736C222.926 97.736 224.654 98.168 226.158 99.032C227.662 99.864 228.862 101.048 229.758 102.584C230.75 101.176 232.014 100.024 233.55 99.128C235.086 98.2 236.782 97.736 238.638 97.736ZM259.526 95.768C257.67 95.768 256.182 95.272 255.062 94.28C253.942 93.288 253.382 92.04 253.382 90.536C253.382 89 253.942 87.736 255.062 86.744C256.182 85.72 257.67 85.208 259.526 85.208C261.35 85.208 262.822 85.72 263.942 86.744C265.062 87.736 265.622 89 265.622 90.536C265.622 92.04 265.062 93.288 263.942 94.28C262.822 95.272 261.35 95.768 259.526 95.768ZM264.806 97.928V125H254.15V97.928H264.806ZM305.763 97.736C309.219 97.736 311.891 98.776 313.779 100.856C315.699 102.936 316.659 105.752 316.659 109.304V125H306.051V110.648C306.051 109.496 305.699 108.6 304.995 107.96C304.323 107.288 303.411 106.952 302.259 106.952C301.075 106.952 300.147 107.288 299.475 107.96C298.803 108.6 298.467 109.496 298.467 110.648V125H287.859V110.648C287.859 109.496 287.507 108.6 286.803 107.96C286.131 107.288 285.219 106.952 284.067 106.952C282.883 106.952 281.955 107.288 281.283 107.96C280.611 108.6 280.275 109.496 280.275 110.648V125H269.619V97.928H280.275V101.576C281.043 100.424 282.083 99.496 283.395 98.792C284.739 98.088 286.307 97.736 288.099 97.736C290.051 97.736 291.779 98.168 293.283 99.032C294.787 99.864 295.987 101.048 296.883 102.584C297.875 101.176 299.139 100.024 300.675 99.128C302.211 98.2 303.907 97.736 305.763 97.736ZM331.931 101.624C332.603 100.376 333.563 99.4 334.811 98.696C336.091 97.96 337.611 97.592 339.371 97.592C341.483 97.592 343.387 98.152 345.083 99.272C346.779 100.36 348.107 101.96 349.067 104.072C350.059 106.152 350.555 108.616 350.555 111.464C350.555 114.312 350.059 116.792 349.067 118.904C348.107 120.984 346.779 122.584 345.083 123.704C343.387 124.792 341.483 125.336 339.371 125.336C337.611 125.336 336.091 124.984 334.811 124.28C333.563 123.544 332.603 122.552 331.931 121.304V137.96H321.275V97.928H331.931V101.624ZM339.755 111.464C339.755 110.024 339.387 108.904 338.651 108.104C337.915 107.304 336.971 106.904 335.819 106.904C334.667 106.904 333.723 107.304 332.987 108.104C332.251 108.904 331.883 110.024 331.883 111.464C331.883 112.904 332.251 114.024 332.987 114.824C333.723 115.624 334.667 116.024 335.819 116.024C336.971 116.024 337.915 115.624 338.651 114.824C339.387 114.024 339.755 112.904 339.755 111.464ZM359.276 95.768C357.42 95.768 355.932 95.272 354.812 94.28C353.692 93.288 353.132 92.04 353.132 90.536C353.132 89 353.692 87.736 354.812 86.744C355.932 85.72 357.42 85.208 359.276 85.208C361.1 85.208 362.572 85.72 363.692 86.744C364.812 87.736 365.372 89 365.372 90.536C365.372 92.04 364.812 93.288 363.692 94.28C362.572 95.272 361.1 95.768 359.276 95.768ZM364.556 97.928V125H353.9V97.928H364.556ZM388.329 97.736C391.433 97.736 393.849 98.776 395.577 100.856C397.337 102.936 398.217 105.752 398.217 109.304V125H387.609V110.648C387.609 109.368 387.257 108.36 386.553 107.624C385.881 106.856 384.969 106.472 383.817 106.472C382.633 106.472 381.705 106.856 381.033 107.624C380.361 108.36 380.025 109.368 380.025 110.648V125H369.369V97.928H380.025V102.056C380.857 100.776 381.961 99.736 383.337 98.936C384.745 98.136 386.409 97.736 388.329 97.736ZM413.494 87.896C417.046 87.896 419.894 88.792 422.038 90.584C424.214 92.344 425.302 94.936 425.302 98.36C425.302 101.176 424.342 103.448 422.422 105.176C420.534 106.904 418.054 107.8 414.982 107.864L414.694 111.272H405.286L404.998 101.096H409.03C410.918 101.096 412.358 100.888 413.35 100.472C414.374 100.056 414.886 99.384 414.886 98.456C414.886 97.848 414.726 97.384 414.406 97.064C414.118 96.712 413.718 96.536 413.206 96.536C412.566 96.536 412.086 96.744 411.766 97.16C411.478 97.544 411.334 98.056 411.334 98.696H401.302C401.206 96.712 401.59 94.904 402.454 93.272C403.35 91.64 404.726 90.344 406.582 89.384C408.438 88.392 410.742 87.896 413.494 87.896ZM410.134 125.384C408.278 125.384 406.79 124.888 405.67 123.896C404.55 122.904 403.99 121.656 403.99 120.152C403.99 118.616 404.55 117.352 405.67 116.36C406.79 115.336 408.278 114.824 410.134 114.824C411.958 114.824 413.43 115.336 414.549 116.36C415.67 117.352 416.23 118.616 416.23 120.152C416.23 121.656 415.67 122.904 414.549 123.896C413.43 124.888 411.958 125.384 410.134 125.384Z" fill="white"/>
<defs>
<filter id="filter0_df_1167_2" x="0.399902" y="3.20801" width="465.08" height="144.752" filterUnits="userSpaceOnUse" color-interpolation-filters="sRGB">
<feFlood flood-opacity="0" result="BackgroundImageFix"/>
<feColorMatrix in="SourceAlpha" type="matrix" values="0 0 0 0 0 0 0 0 0 0 0 0 0 0 0 0 0 0 127 0" result="hardAlpha"/>
<feOffset dy="4"/>
<feGaussianBlur stdDeviation="2"/>
<feComposite in2="hardAlpha" operator="out"/>
<feColorMatrix type="matrix" values="0 0 0 0 0 0 0 0 0 0 0 0 0 0 0 0 0 0 0.25 0"/>
<feBlend mode="normal" in2="BackgroundImageFix" result="effect1_dropShadow_1167_2"/>
<feBlend mode="normal" in="SourceGraphic" in2="effect1_dropShadow_1167_2" result="shape"/>
<feGaussianBlur stdDeviation="5" result="effect2_foregroundBlur_1167_2"/>
</filter>
</defs>
</svg>
